<svg xmlns="http://www.w3.org/2000/svg" viewBox="0 0 100 100"><defs><style>.cls-1{fill:#4d4d4d;}.cls-2{fill:#b3b3b3;}.cls-3,.cls-4{stroke:#000;stroke-miterlimit:10;stroke-width:4px;}.cls-3{fill-rule:evenodd;}.cls-4{fill:none;}</style></defs><title>Cave</title><g id="Layer_1" data-name="Layer 1"><path class="cls-1" d="M15.25,80.13c7.72,0,7.73-12,0-12s-7.73,12,0,12Z"/><path class="cls-2" d="M10.2,68.68C8,62.11,5.13,52.67,7.69,45.9c.68-1.81-2.22-2.59-2.89-.8C2.06,52.35,5,62.44,7.31,69.48c.59,1.83,3.49,1,2.89-.8Z"/><path class="cls-2" d="M7.36,42.37A20.38,20.38,0,0,1,11,36.23c1.26-1.45-.86-3.58-2.12-2.12a24.33,24.33,0,0,0-4.4,7.46c-.68,1.81,2.22,2.59,2.89.8Z"/><path class="cls-2" d="M4.47,41.37c-1.78,7.79-.69,15.36,1.09,23.05.69,3,2.42,8.18,5.73,3.34a8.92,8.92,0,0,0,.87-3.05c.55-2.14,1.47-4,2.22-6.08,1.36-3.77,2.44-7.39,4.17-11,3.55-7.47,6.75-15.11,9.67-22.85.68-1.81-2.21-2.59-2.89-.8-3.85,10.21-9.58,20-12.78,30.34-.77,2.49-2,4.78-2.79,7.26-.55,1.76-.21,6-1.3,2.07C6.52,56.7,5.76,49.2,7.36,42.16c.43-1.88-2.46-2.68-2.89-.79Z"/><path class="cls-2" d="M12.64,61,13,48c.1-3.82-.09-7.54,1.73-11C18,30.66,22.11,24.28,28,20.17c4.72-3.26.63-10.54-4.54-7.77A33.46,33.46,0,0,0,8.41,28.85,33,33,0,0,0,5.79,40.08c-.23,4.46.72,8.81.16,13.27-.64,5,8,6.18,8.84,1.19,1.2-6.9,4-13.09,7.17-19.29,2.75-5.34,5.45-10.61,10.12-14.54L25,19.79c2.44,3.38.48,7.12,2.89,10.59,2.55,3.65,5.52,7,8,10.7C38.13,44.51,42.7,43.6,44.1,40a129.85,129.85,0,0,1,17-30.42c2-2.7-.69-7-3.89-6.77-10.85.75-23.29.74-32.24,7.82-3.61,2.86-5.45,6.8-2.46,10.91a15.8,15.8,0,0,0,5.72,4.56c.66.33,7.92,2.32,7.84,1.88.66,3.74,6.59,4.43,8.23,1.07,3.39-6.95-1.73-13.33-9.18-12.15L40.67,20c-.34-1-.67-1.92-1-2.88l-1.32,3.19c1.91-1.64,6.69-1.32,9.06-1.6A33.47,33.47,0,0,0,55.51,17c5.34-2,3.19-10.5-2.39-8.68a32,32,0,0,0-14.53,9.47C34.82,22.12,40.81,28.3,45,24.16a71.87,71.87,0,0,1,9.91-8.44c2.39-1.64,4.23-3.11,7.32-2.37a19.17,19.17,0,0,1,5.6,2.78c6.69,4.29,11.4,10.94,15.36,17.68,2.94,5,10.48.58,7.77-4.54l-4.21-8-7.77,4.54a44,44,0,0,1,6.76,38.46h8.68C92.94,59,93.16,53.59,92.21,48.25A50.88,50.88,0,0,0,86.7,33.64,87.75,87.75,0,0,0,68.23,10c-3.63-3.31-9.91,1-7.06,5.46,7.65,12.06,15.24,24.24,18.62,38.28,1.35,5.63,10,3.25,8.67-2.39C84.91,36.58,77,23.63,68.94,10.93l-7.07,5.45a80.22,80.22,0,0,1,17.05,21.8A40.21,40.21,0,0,1,83.81,53c.47,4.62.66,9.17,1.88,13.67,1.17,4.34,7.44,4.23,8.68,0A52.57,52.57,0,0,0,86.7,21.31c-3.34-4.63-10.53-.67-7.77,4.54l4.21,8,7.77-4.54C85.4,19.88,78.25,10.72,68.12,6.07,56.33.64,46.57,9.81,38.59,17.79L45,24.16A23.14,23.14,0,0,1,55.51,17L53.12,8.32c-5.5,2-11.5,1.35-17,3.29-5.72,2-5.93,5.62-4.11,10.82a4.67,4.67,0,0,0,5.54,3.15l-1-1.07,8.22,1.07a7.54,7.54,0,0,0-5.08-5.84c-2.82-1-9.17-.27-9.94-4l-.45,3.47C31,15.35,37.9,14,41.59,13.3a136.56,136.56,0,0,1,15.64-1.49L53.35,5A138.25,138.25,0,0,0,35.42,37.61l8.23-1.07c-1.24-1.9-2.52-3.77-3.87-5.59-1.23-1.65-3.69-3.74-4.4-5.57-.29-.74.24-2.43-.07-4.27a13.59,13.59,0,0,0-2.52-5.86,4.6,4.6,0,0,0-7.07-.91c-5.24,4.41-8.44,10.37-11.53,16.37-3.53,6.84-6.75,13.81-8.08,21.44L15,53.35C15.78,46.81,13.84,40.43,16,34A24.66,24.66,0,0,1,28,20.17L23.5,12.4C16.19,17.46,11.1,24.66,7,32.42,2.48,40.8,3.89,51.75,3.64,61c-.16,5.8,8.84,5.79,9,0Z"/><path class="cls-1" d="M27,33.37c-.72,5.47-4.84,9.77-5.71,15.25-.29,1.89,2.6,2.7,2.9.8.9-5.74,5-10.24,5.81-16.05.25-1.91-2.75-1.89-3,0Z"/><path class="cls-1" d="M28.15,35.18c.7,2.77,1.1,6.4,4,7.77,1.74.82,3.26-1.76,1.52-2.59-2-.92-2.16-4.12-2.63-6s-3.36-1.08-2.89.79Z"/><path class="cls-1" d="M24.42,40.08C23.13,49,28.26,57.24,37.61,58.34,46.8,59.43,53.87,53.19,56.86,45c2.4-6.59-7.48-10.19-11-4.63a10,10,0,0,1-2.34,2.79l8.21,8.21A98.85,98.85,0,0,0,61.54,36c2.72-5.34,5.6-11,5.13-17.18L54.88,20.39C58.28,32.77,62.2,45,70.93,54.68c4,4.52,11.65-.24,10-5.83a54.83,54.83,0,0,0-4.78-11.43C73,31.63,62.77,35.55,65.22,42,68.94,51.92,76.88,59.19,80,69.47c.79,2.59-.45,2.94-2.59,4.43A69.66,69.66,0,0,1,70.82,78a70.3,70.3,0,0,1-16.11,6.27C48.3,85.92,49.43,96.38,56.31,96A36.45,36.45,0,0,0,67.72,93.7c7.12-2.75,4.49-13.22-3.19-11.58-12.31,2.65-27.21,5.8-37.4-3.82-1.05-1-1.93-2.13-2.95-3.14-1.24-1.22-1.05-.45-.19-1.9,1.44-2.44,2-6,2.81-8.66,1.87-6.12,3.82-12,7.35-17.43l-11-1.43c.84,3.43,1.58,6.58.67,10.08-.78,3-2.12,5.79-2.72,8.85C20.08,70,19.29,77.15,24,81s12.83,4.24,18.52,5a46.35,46.35,0,0,0,20.27-1.7c9.17-3,26.74-7.53,23.66-20.68C85.12,58,80,54.14,76.53,50A96.76,96.76,0,0,1,65.21,33c-3.35-6.28-12.24-1.78-11,4.62A60.63,60.63,0,0,0,59.16,51.4c1.18,2.5,2.46,5,3.6,7.48.76,1.65,1.47,5.87,2.6,7Q65.6,68.05,67,65q3.08-2.55-.31-1.27a25.08,25.08,0,0,0-3.5.59c-2.69.38-5.41.57-8.12.78-5.76.46-11.53.92-17.31,1-.79,0-3-.37-3.66,0-1.42.84.4,2.84,1.82,2.17C36.7,68,37.08,66.9,38,66.53a6.86,6.86,0,0,1,3.28,0c5.25.48,10.82,1.92,16.08,1.76,12.76-.37,8-15.43,4.54-22.26-2.7-5.39-11.28-2.73-11.18,3,.17,9.47-13.32,9.86-19.87,13.41l6.05,10.37A83,83,0,0,0,64.35,43.3c3.72-6.77-6.64-12.83-10.36-6.06a70.35,70.35,0,0,1-23.15,25.2c-6.44,4.22-.78,14.07,6.05,10.37,5.63-3.06,12.26-3.64,17.62-7.32,5.7-3.91,8.33-9.6,8.2-16.46l-11.18,3a32.07,32.07,0,0,1,1.92,4.17A8.35,8.35,0,0,1,54,58.29c.13,1.7.86,1,2.2-2.1-.2-.33-5.15-.59-5.59-.64L45,54.92c-6.33-.71-11.67-.91-16.56,3.82-4,3.87-7.36,10.24-3.64,15.38s11,4.16,16.62,3.93c6.91-.29,13.87-.77,20.74-1.57,5.16-.61,13.25-.63,15.25-6.6,1.78-5.29-2.15-12.39-4.29-17.06-2.79-6.09-6-11.78-7.31-18.42L54.85,39A110.49,110.49,0,0,0,71,61.77c.8.87,3.92,3.25,3.65,4.64s-4.39,2.32-5.36,2.69A124.26,124.26,0,0,1,57,73.47a36,36,0,0,1-14.81.43c-2.43-.37-5.2-1.48-7.64-1.51-1.33-1-2-.84-2.13.35a29.33,29.33,0,0,1,.08-3.25C32.93,65,35.22,61,36,56.5c.82-4.72-.13-9.36-1.25-14-1.28-5.26-8.25-5.58-11-1.44C18.93,48.53,16.67,57,14,65.37c-1.07,3.35-2.85,6.8-2.46,10.41C12,80,15.16,83.35,18,86.19c13.66,13.56,32.5,11.2,49.7,7.51L64.53,82.12A25.89,25.89,0,0,1,56.31,84L57.9,95.8a83.84,83.84,0,0,0,19.73-7.9C82.8,85,90.31,81,92.12,74.83c1.7-5.77-1.75-12.71-4.18-17.78-3.07-6.41-8.67-11.59-11.15-18.2l-11,4.63A40.1,40.1,0,0,1,69.38,52l10-5.84c-7.25-8.09-10.15-18.76-13-29-1.73-6.33-12.32-5.32-11.78,1.6.38,5-2.78,10-5.12,14.2a100.57,100.57,0,0,1-8.16,12.31C37.82,50,44.94,57.1,49.6,53.52a25.82,25.82,0,0,0,6.65-7.09l-11-4.62a6.68,6.68,0,0,1-4.63,4.55c-1.89.39-5-.54-4.66-3.09,1.1-7.56-10.47-10.82-11.58-3.19Z"/><path d="M50,4A46,46,0,1,1,4,50,46.06,46.06,0,0,1,50,4m0-4a50,50,0,1,0,50,50A50,50,0,0,0,50,0Z"/></g><g id="Layer_2" data-name="Layer 2"><path class="cls-3" d="M70,75H49S58,40,70,75Z"/><polyline class="cls-4" points="9 75 28 28 40 47 61 9 93 71"/></g></svg>