<svg xmlns="http://www.w3.org/2000/svg" viewBox="0 0 100 100"><defs><style>.cls-1{fill:#c69c6d;}.cls-2{fill:#aee1ff;}.cls-3,.cls-4{fill:none;fill-rule:evenodd;}.cls-3,.cls-4,.cls-5{stroke:#000;stroke-miterlimit:10;}.cls-3{stroke-width:4px;}.cls-4,.cls-5{stroke-linecap:round;stroke-width:2px;}.cls-5{fill:#ff0;}</style></defs><title>Dessert</title><g id="Layer_3" data-name="Layer 3"><path d="M20.05,64.85a29.42,29.42,0,0,1,18.57-5.8c1.93.05,1.93-2.95,0-3a32.18,32.18,0,0,0-20.09,6.21C17,63.38,18.48,66,20.05,64.85Z"/><path class="cls-1" d="M36.38,58.75a1.5,1.5,0,0,0,0-3,1.5,1.5,0,0,0,0,3Z"/><path class="cls-1" d="M28.59,60a12.3,12.3,0,0,1,4.58-2.54c1.25-.44,1.6-2.63,0-2.89-3.37-.55-6.05.25-9.07,1.82-2.69,1.42-5.71,2.55-7.47,5.12-.93,1.36.82,2.63,2.05,2.05a111.32,111.32,0,0,1,22.11-7.6c1.61-.37,1.31-3.12-.4-2.94a69.6,69.6,0,0,0-7.3,1.13c-1.91.41-1.07,3.21.8,2.9l1.75-.29c1.71-.28,1.24-2.93-.4-2.95l-1.46,0v3c6.08-.72,13.52.07,18.73,3.77C54.09,61.65,55.59,59,54,57.93a36.86,36.86,0,0,0-9.65-4.22c-3.38-1-7.17-.36-10.6,0-1.87.22-2,3,0,3l1.46,0-.4-2.94-1.75.28.8,2.9a61.48,61.48,0,0,1,6.5-1L40,53a115.3,115.3,0,0,0-22.83,7.9L19.22,63c2.08-3.05,10-6.09,13.16-5.57V54.53a19.56,19.56,0,0,0-5.91,3.31C25,59,27.1,61.16,28.59,60Z"/><path class="cls-1" d="M18.77,78.92c5.56-3.44,9.23-8.81,15.12-11.81C37.29,65.38,40.2,63.9,44,65.5c3.33,1.41,6.13,4.21,9.08,6.22A41.38,41.38,0,0,0,90,76.16l-5.84-10A125.46,125.46,0,0,1,66.5,79.45c-5.55,3.49-2.07,13.17,4.63,11a50.88,50.88,0,0,0,7.58-3.19l-7.27-9.42c-2.21,2.79-6.36,3.45-9.53,4.81C57,84.75,52.46,85.08,47.11,85c-4.66-.06-8.55-.68-12.68-3-1.33-.74-9.31-5-9.18-6l-1.76,4.24c2.7-2.38,7.08-3.92,10.4-5.25,4.13-1.65,7.89-3.58,12-1.24,7.12,4.09,14.75,6.48,22.63,8.61l-1.43-11c-5.88,3.36-12.67,3.68-19.28,4.21A77.66,77.66,0,0,1,37.44,76a26.63,26.63,0,0,1-4.28-.53,18.63,18.63,0,0,1-2.44-.64q-3-1.53-.69.2v6.06c-1.6,1.36-1.66,1.88-.17,1.58l2.92-.09c1.94-.06,3.88-.1,5.82-.13,3.88-.07,7.77-.08,11.65-.07,7.72,0,7.74-12,0-12q-7.28,0-14.56.13c-4,.08-9-.56-12.72,1.23a7,7,0,0,0-3.9,7.92c.84,3.38,3.88,5,6.88,6.16,7.52,2.88,15.67,2.31,23.54,1.65,8.24-.69,16.3-1.53,23.63-5.71,4.48-2.56,3.52-9.62-1.44-11-6.26-1.7-12.61-3.36-18.31-6.56-6.28-3.51-10.76-4.75-17.82-2.53-8.45,2.66-28.8,8.93-20,20.88C22.24,91.75,35.36,96.77,46.3,97c6.5.14,12.79-.15,18.83-2.74,5.06-2.18,11.22-3.45,14.79-8C84,81.1,79,73.56,72.65,76.87a30.88,30.88,0,0,1-4.71,2l4.62,11a143,143,0,0,0,20-15.19c4.33-3.91-.19-12.06-5.84-10a30.45,30.45,0,0,1-19.92.65c-6.72-2.15-11.35-7.5-17.61-10.46-7.07-3.34-13.17-2-19.94,1.26a39.55,39.55,0,0,0-8.23,5.05c-2.88,2.39-5.15,5.48-8.35,7.47-6.56,4-.54,14.44,6,10.36Z"/><path class="cls-2" d="M15,65.08c2-11.39-2.69-24.37,5.17-34.12C26.83,22.75,37,14.67,47.79,14.2s23,2.56,29.36,12c2.94,4.37,4.58,9.42,5.93,14.47a35,35,0,0,1,1.63,8.89c0,3.26-.82,6.29-.41,9.57l6-6c-4,.39-7.72,1.51-11.67,2.22a10.71,10.71,0,0,1-9.45-2.25c-6-4.45-11.87-8.51-19-10.93a37.38,37.38,0,0,0-21.08-1c-7.5,1.94-13.18,6.9-18.47,12.32l10,2.65C18.88,47.65,22.46,38,26.89,30.8S39.63,20,48,20.86c7.8.76,16.34,5,20.69,11.6,4.77,7.27,5.86,16.29,6.89,24.72l6-6c-3.15.09-6.65-.53-9.75-.14-1.45-.26-1.63-.15-.55.33q1.59,1.11-.13-.95a16.87,16.87,0,0,0-2.31-3.13C65.12,42.8,60,40.35,54.43,38.94c-12.2-3.07-25-3-37.32-.87l7.38,7.38c.43-2.64,3.26-5.13,4.83-7.26,2.06-2.79,4-5.69,5.89-8.58,1.56-2.32,3.09-4.78,5.92-5.61s7.48-.26,9.7,1.54c2,1.64,3.14,4.54,4.42,6.72a70.82,70.82,0,0,0,5.2,7.29,22.82,22.82,0,0,1,4.16,7.63c.91,3,2,5.66,4.43,7.72,5.86,4.9,14.36-3.39,8.49-8.49-3.7-3.21-7.5-6.35-11-9.73-3-2.88-5.45-7-9-9.14-4.09-2.49-8-1.46-12.32-.16C40,29,34.67,29.08,29.31,29.09l1.6,11.79A55.59,55.59,0,0,0,53.55,30.6c2.9-2.28,4.71-5.59,2.79-9.23-1.61-3-5.34-4.17-8.47-4.81-6.79-1.4-18.11-.1-17,9.44,1,8.33,12.85,12.85,19.47,15.63L52,29.84c-4.72,0-10.2-.43-12.17,4.87s2,9.38,6.76,11c2.66.91,5.3-.66,6.78-2.76l.63-.9C58.43,35.73,48,29.73,43.61,36l-.63.91,6.77-2.76.61.34L51,39.11l.4-1.21-2.76,3.59c-1.65.36-1.53.48.35.34h3c7.28,0,7.46-9.32,1.6-11.78-3.41-1.43-6.3-3.82-9.6-5.33l-1.45-1.16Q39.7,28.82,43.73,28l1.78.29q3.08,1.38.46-.86l-.6-4.62c1-3.19-.45-.65-2,.32A48.53,48.53,0,0,1,38.21,26a49,49,0,0,1-10.49,3.36C21,30.74,22.64,41.1,29.31,41.09A85.73,85.73,0,0,0,42,40.33c3-.45,7.62-2.75,10-1.68,1.21.54,2.61,3.1,3.52,4.07C56.74,44,58,45.18,59.27,46.35c3.19,2.93,6.51,5.71,9.77,8.55l8.49-8.49c-2.34-2-2.8-7.13-4.51-9.86-2.13-3.4-5-6.29-7-9.73-4.42-7.3-8.23-13.39-17.39-14.65-8.95-1.24-16.24,1.15-21.68,8.45-2.6,3.5-4.84,7.26-7.41,10.79C17,34.78,13.62,38,12.92,42.26c-.77,4.74,2.62,8.2,7.38,7.38,10.89-1.86,24.6-2.35,35,2.14,4.86,2.1,5.63,7.33,9.88,9.86s11.61,1.69,16.44,1.54c3-.1,6.41-2.69,6-6-1.42-11.63-3-23.65-10.29-33.26-6.81-9-19.86-15.37-31.21-15.13C34.21,9,23.43,14,17,24S6.58,47.32,9.06,59.33c.92,4.46,7,5.72,10,2.64C24,56.91,29,52.55,36.35,52.11c6.46-.38,12.64,2,18.1,5.22,5.2,3.11,9.7,8.25,15.68,9.81,7,1.82,13.34-1.35,20.17-2,2.91-.27,6.43-2.54,6-6-.52-4.14.66-8.19.25-12.37a60.16,60.16,0,0,0-2.09-10c-1.72-6.22-4-12.52-7.79-17.81C78.33,7.22,63.38,1.85,49.45,2.16c-7.17.16-14,1.39-20.09,5.33a89,89,0,0,0-16,13.17A34,34,0,0,0,3.91,39.2c-1.09,7.54.88,15.2-.45,22.69S13.67,72.68,15,65.08Z"/></g><g id="Layer_2" data-name="Layer 2"><path class="cls-3" d="M8,72C20,58,37.75,43.13,53,57c22,20,29,6,43,8"/><path class="cls-4" d="M19,72c17-13,22,5,45,0"/><path class="cls-4" d="M25,80c20-10,33,6,50-2"/><circle class="cls-5" cx="31" cy="21" r="14"/></g><g id="Layer_1" data-name="Layer 1"><path d="M50,4A46,46,0,1,1,4,50,46.06,46.06,0,0,1,50,4m0-4a50,50,0,1,0,50,50A50,50,0,0,0,50,0Z"/></g></svg>