<svg xmlns="http://www.w3.org/2000/svg" viewBox="0 0 100 100"><defs><style>.cls-1{fill:#39b54a;}.cls-2{fill:#3fa9f5;}.cls-3{fill:#603813;}.cls-3,.cls-4{stroke:#000;stroke-linecap:round;stroke-miterlimit:10;stroke-width:2px;}.cls-4{fill:#006837;}</style></defs><title>Forest</title><g id="Layer_2" data-name="Layer 2"><path class="cls-1" d="M55.75,75.25a1.5,1.5,0,0,0,0-3,1.5,1.5,0,0,0,0,3Z"/><path class="cls-1" d="M55.5,75.38a1.5,1.5,0,0,0,0-3,1.5,1.5,0,0,0,0,3Z"/><path class="cls-1" d="M56,74a1.5,1.5,0,0,0,0-3,1.5,1.5,0,0,0,0,3Z"/><path class="cls-1" d="M5.67,62a18.09,18.09,0,0,0,9.66,17.74,1.51,1.51,0,0,0,2-2.05c-1.6-2.92-1-5.24-1.57-8.19a3.79,3.79,0,0,0-1.07-2.32,1.51,1.51,0,0,0-2.5.66c-1.43,4.14,1.3,9.67,3.27,13.27s4.66,6.23,8.82,6.31a1.52,1.52,0,0,0,1.06-2.56c-.85-.73-7.72-5.63-6.92-7.16l-2,.54A30,30,0,0,0,25,82.52a1.51,1.51,0,0,0,1.84-1.85A12.33,12.33,0,0,0,21.13,74l-.76,2.8a47.13,47.13,0,0,0,10.07-.43c1.66-.24,1.16-2.41,0-2.89a14.58,14.58,0,0,0-10.22-.55,1.51,1.51,0,0,0,.4,3,57.5,57.5,0,0,0,9.9-.52l-1.16-2.75c-2.79,1.45-8.54,3.4-9.21,6.93A1.51,1.51,0,0,0,20.53,81c2.92,2.47,6.87,1.94,9.89-.12a1.52,1.52,0,0,0-.36-2.74c-2.61-.61-9.12-.76-9.23,3.33s9,5.73,11.57,6.39l.4-3A29.24,29.24,0,0,1,23,82.77c-1.08-.43-2.15.84-1.84,1.85,1.38,4.59,9.27,6.07,13.2,7.48,1.58.56,2.73-2.07,1.16-2.74l-9.81-4.23a1.5,1.5,0,0,0-1.81,2.35c3.77,4.88,9.61,6.24,15.42,7.25,1.87.32,2.7-2.4.8-2.89A91.14,91.14,0,0,1,26.5,87.12l-1.16,2.74c9.41,3.81,19.09,6.57,29.32,5.84,1.9-.14,2-3,0-3-5.67,0-11.32,0-17-.27-1.94-.07-1.91,2.86,0,3a103.93,103.93,0,0,0,24.85-1.17l-.8-2.89a89.74,89.74,0,0,1-18.82,2.47,1.5,1.5,0,0,0,0,3,62.48,62.48,0,0,0,22.3-3c1.83-.59,1.06-3.46-.79-2.89L61.1,92a1.5,1.5,0,0,0,.8,2.89c9.44-1.53,19.79-8,25.67-15.47A36.18,36.18,0,0,0,94,66.78c1.56-5.64.92-11.27,1.55-17l-2.8.76a23,23,0,0,1,2.64,5.38c.63,1.81,3.48,1.06,2.9-.8A27.82,27.82,0,0,0,97,51.62c-.54-1.24-2.41-.77-2.74.36A91.66,91.66,0,0,0,91.86,62.2l2.94.4a17.25,17.25,0,0,1,.32-6.77l-2.94-.4a20.63,20.63,0,0,1-3.07,13.63l2.79.75a31.08,31.08,0,0,1,1-9.74l-3-.39c-.64,7.29-5.52,14-9,20.22l2.79.75a14.65,14.65,0,0,1,2.8-7.89l-2.59-1.51c-2.72,5-6.42,9.23-10.26,13.4l2.51,1.46a28,28,0,0,1,7.58-10.85L81.4,73.44a71.38,71.38,0,0,1-7.13,12.93c-1,1.39,1.26,3.14,2.35,1.82L83,80.47a1.5,1.5,0,0,0-2.12-2.12l-6.88,6c-1.47,1.29.65,3.33,2.12,2.12,4.5-3.68,6.35-9,8-14.36.48-1.6-2-2.69-2.75-1.15-1.84,3.67-3.7,7.19-7.26,9.49l2,2.06a120,120,0,0,1,8.26-11.42c1-1.24-.26-3.28-1.82-2.35L68.27,77.32l2,2.05a81,81,0,0,1,7.9-10.46,1.5,1.5,0,0,0-2.12-2.12l-7.17,5.66c-1.33,1,.46,3.4,1.81,2.36a37.85,37.85,0,0,0,6.6-6.42c.81-1,.1-3.13-1.46-2.51l-11,4.36L66.07,73l7.25-4.51a1.51,1.51,0,0,0-1.16-2.74q-15.34,2.7-30.56,6c-1.9.42-1.09,3.28.79,2.9a43.77,43.77,0,0,0,16.22-6.88A1.51,1.51,0,0,0,57.85,65c-7.65.07-15,1.78-22.38,3.64-1.91.48-1.07,3.21.79,2.9a82.48,82.48,0,0,0,20.43-6.27c1.38-.63.66-2.85-.76-2.8a66.59,66.59,0,0,0-27.4,6.91,1.5,1.5,0,0,0-.54,2c1.88,3,6.18,1.74,9.12,1.36A60.76,60.76,0,0,0,53.23,68.2c1.48-.63.57-2.71-.76-2.79-3.12-.19-28.91,1.76-23.21,8.82,2.5,3.1,10.52,1.59,13.76,1.21a53.24,53.24,0,0,0,17.31-5.33c1.41-.7.62-2.72-.76-2.79C51,66.9,38.3,67.08,31.46,73.09a1.53,1.53,0,0,0-.23,1.82c2.26,4.29,11.48,2.28,15.15,1.82a65.18,65.18,0,0,0,20-6,1.51,1.51,0,0,0,.53-2c-2.26-4-10.68-1.47-14.39-.91-5,.76-11.78,1.23-15,5.7a1.53,1.53,0,0,0,.54,2C43,78.9,51,77.6,56.5,76.73c5.06-.79,14-1.85,16.44-7.15a1.54,1.54,0,0,0-.54-2c-4.41-2.4-10.57-1.36-15.34-.77-3.56.44-8.68.55-10.32,4.34A1.56,1.56,0,0,0,47,72.92c4,3.65,10.08,4.08,15.26,4.34,5.36.27,11.86.24,16.4-3a1.52,1.52,0,0,0,.31-2.35c-3-2.81-8-2.19-11.76-2.18a35.78,35.78,0,0,0-15,2.9,1.52,1.52,0,0,0-.69,1.69C52.25,79,60.6,78,63.69,78c5.66-.11,13.5-.33,17.7-4.62a1.51,1.51,0,0,0-.66-2.5C76,69.71,65.13,68.2,62.92,74a1.5,1.5,0,0,0,1.44,1.9A48.64,48.64,0,0,0,78.86,74l-1.15-2.75c-4.11,2.38-11.11,4.64-12.59,9.64a1.51,1.51,0,0,0,1.44,1.9c5.4.49,11.14-5.13,14.89-8.48,1.27-1.14-.38-3.26-1.82-2.36A37.83,37.83,0,0,0,68.5,82.6c-1,1.46,1.14,2.91,2.35,1.82a69,69,0,0,1,9.72-7.28l-1.82-2.35a89.44,89.44,0,0,0-10.13,11,1.5,1.5,0,0,0,2.12,2.12,27.14,27.14,0,0,1,7.11-4.59l-1.16-2.74a47.27,47.27,0,0,0-7.93,6.6,1.51,1.51,0,0,0,1.82,2.36l5.79-2.89c1.73-.86.21-3.44-1.52-2.59A116.11,116.11,0,0,1,60.53,90a1.5,1.5,0,0,0,.8,2.89l8.26-1.54c1.65-.31,1.29-3.08-.4-2.95q-8.25.64-16.46,1.78l.8,2.9L62,91.46c1.92-.36,1.08-3.18-.8-2.89L38.73,92.09c-1.66.26-1.29,3.12.39,3l12.09-1.23c1.53-.15,2.2-2.65.4-2.94L34.27,88a1.5,1.5,0,0,0-.8,2.89,86.57,86.57,0,0,0,11.38,3.19l.8-2.89A62.48,62.48,0,0,1,30,86.69l-1.16,2.74L43,92.33a1.53,1.53,0,0,0,1.9-1.45c-.1-1.84-.84-2.47-2.35-3.44C38.78,85,34,83.53,29.93,81.67l-1.16,2.74A56.87,56.87,0,0,1,42.68,89.7L43.83,87a52.62,52.62,0,0,1-16.77-7l-1.15,2.75q7.93,2.19,15.72,4.91c1.82.64,2.61-2.26.79-2.89a115.53,115.53,0,0,1-17.57-7.37L23.7,80.1,37.25,82c1.32.19,2.72-1.4,1.46-2.51-3.46-3-7.45-4.53-11.8-5.89l-.8,2.89a57.8,57.8,0,0,0,16.7,2c2,0,1.88-2.79,0-3a46.79,46.79,0,0,0-15.07.8c-1.78.38-1.17,2.78.4,3a166.78,166.78,0,0,0,29.39.5,1.5,1.5,0,0,0,0-3,97.28,97.28,0,0,0-24,1.16c-1.8.31-1.14,2.77.4,2.94,10.31,1.14,20.63.77,31,.31,1.91-.08,1.94-3,0-3l-22.18.47v3a113.22,113.22,0,0,0,25.67-4,1.51,1.51,0,0,0-.4-3,49.73,49.73,0,0,0-17,2.85,1.52,1.52,0,0,0-.89,2.21c1.3,2.43,4.16,2.21,6.68,2.41a61.78,61.78,0,0,0,13.92-.6c1.73-.25,1.22-2.89-.4-2.94A220.57,220.57,0,0,0,48.25,79L48.64,82c5.16-1.12,11.93-1.35,16.11-4.85a1.52,1.52,0,0,0-.66-2.51,19.44,19.44,0,0,0-15.37.81,1.5,1.5,0,0,0,0,2.59,21.31,21.31,0,0,0,15.83,1.37,1.52,1.52,0,0,0,0-2.9,46.3,46.3,0,0,0-13.78-2.6c-1.93-.08-1.92,2.91,0,3a36.32,36.32,0,0,0,10.13-1c1.55-.36,1.29-2.41,0-2.89A7,7,0,0,0,55.57,73c-1.12.38-1.59,2.14-.35,2.74,1.83.9,4.09,1.8,5.86.25a3.08,3.08,0,0,0,.51-4.23,2.8,2.8,0,0,0-3.72-.38c-2,1.33-1.35,3.62-.44,5.35a1.51,1.51,0,0,0,2.36.31A3,3,0,0,0,60,72.86c-1.62-1.93-4.11-.87-6,0a1.53,1.53,0,0,0-.3,2.36c2.44,3.14,6.56,0,4.62-3.34-.6-1-2.53-1-2.74.36a10.37,10.37,0,0,0-.21,3.51,1.5,1.5,0,0,0,3,0,10.26,10.26,0,0,0-.17-3.45c-.24-1.85-3.14-2-3,0,.32,4.48,3.06,12.06,8.56,12.47,4,.3,5.45-4.87,2.53-7.24-4.67-3.8-9.7,2.51-10.38,6.76s2.89,7.78,6.82,5c3.23-2.25,3.64-8.11.07-10.3-3.87-2.37-7.21,2-4.45,5.45,1.83,2.27,8.61,3.37,9.08-.73.5-4.29-5.86-2.88-6.81.21a1.49,1.49,0,0,0,.39,1.46c2.44,2.36,5.47.5,6.92-2,.51-.9-.13-2.4-1.3-2.26-2.52.3-6.44,2.43-5.22,5.69.85,2.27,3.66,2,5.32.94,6.51-4.36-4.52-9.45-4.61-2.78-.11,7.17,12.91,4.21,9.31-1.56-3.86-6.17-13,1.07-7.31,5.8a1.52,1.52,0,0,0,2.35-.3c3.49-5.13-3.82-12.53-9.3-11.23-2.22.52-3,2.46-2.31,4.51.89,2.72,3.76,3.86,6.35,3.85a1.53,1.53,0,0,0,1.45-1.9c-.42-3-2.56-4.87-3-7.79a11.29,11.29,0,0,0-2.52-6.3c-1.18-1.43-3,.39-2.35,1.82q2.36,5.47,4.88,10.9l2.59-1.52a45.69,45.69,0,0,1-2.57-6.67l-2.21,1.7c5.39,3.11,9.49,7.87,15.43,10.06,1.27.47,2.29-1.14,1.69-2.21-2.42-4.26-10.52-6.68-13.1-1.08-.88,1.9-.39,4,1.72,4.59,2.94.87,6.81-2,9-3.64l-2.35-1.81a22,22,0,0,1-4.45,4.83l2.36,1.82,2.78-4.5c1-1.54-1.11-2.85-2.35-1.82a59.86,59.86,0,0,1-10.26,6.8l1.81,2.35L66.4,86c1.34-1.16-.37-3.09-1.82-2.35A19.58,19.58,0,0,0,57,90.51c-.77,1.15.5,2.47,1.7,2.2,2.49-.55,6-3.74,2.72-5.88-2.19-1.41-6.8-.34-9.12-.11A65.48,65.48,0,0,0,41.06,88.9a1.51,1.51,0,0,0,.4,2.95,77.68,77.68,0,0,0,13.38-.47c1.87-.23,2-2.95,0-3q-11.52-.31-23,.1a1.5,1.5,0,0,0,0,3A24.19,24.19,0,0,0,39,91.26a1.5,1.5,0,0,0,.66-2.5,23.41,23.41,0,0,0-3.8-2.56L35.13,89a14.45,14.45,0,0,1,5.21.69l.79-2.89L35,85.54l-.8,2.89,9.53,1.82c1.58.3,2.75-1.89,1.16-2.74a55.38,55.38,0,0,0-8.78-3.79l-.4,2.94c6.79.17,13.53.66,20.27,1.47,1.69.21,2-2.54.4-2.94-3.92-1-15.32-4.52-18.46-.8a1.51,1.51,0,0,0,.66,2.5,50,50,0,0,0,20.59.26,1.51,1.51,0,0,0,0-2.89,30.75,30.75,0,0,0-13.53.49,1.52,1.52,0,0,0,0,2.9,34.65,34.65,0,0,0,8.74,1.61c1.93.12,1.92-2.87,0-3l-9.6-.66v3a112.62,112.62,0,0,0,16.78-2,1.51,1.51,0,0,0,0-2.89,14.74,14.74,0,0,0-9.91,1,1.5,1.5,0,0,0,0,2.59A18.67,18.67,0,0,0,62.39,88.8c1.45-.21,1.42-2.65,0-2.89l-11.55-2-.4,3a19.26,19.26,0,0,0,6.07-1.46c1.18-.49,1.65-2.61,0-2.89a52.19,52.19,0,0,0-15.23-.39c-1.85.23-2,3.06,0,3a100.32,100.32,0,0,0,13.4-1.31c1.73-.28,1.22-2.88-.4-3a137.71,137.71,0,0,0-17.94.41c-1.54.14-2.2,2.68-.4,3a62.64,62.64,0,0,0,16.75.29c1.53-.18,2.21-2.58.4-3a74.24,74.24,0,0,0-19.51-1.37,1.5,1.5,0,0,0,0,3,142.72,142.72,0,0,0,15.32,1c1.94,0,1.92-2.91,0-3L34,80.48v3l14.43.26c2,0,1.88-2.81,0-3l-9-.93c-1.92-.2-1.9,2.8,0,3l9,.93v-3L34,80.48c-1.94,0-1.92,2.9,0,3l14.91.72v-3a142.72,142.72,0,0,1-15.32-1v3a70.78,70.78,0,0,1,18.71,1.27l.4-2.95a59.17,59.17,0,0,1-15.95-.19l-.4,3a137.71,137.71,0,0,1,17.94-.41L53.88,81a93.28,93.28,0,0,1-12.6,1.2v3a49.15,49.15,0,0,1,14.43.28V82.54a16.12,16.12,0,0,1-5.27,1.35c-1.55.14-2.19,2.64-.4,3l11.56,2V85.91a14.71,14.71,0,0,1-8.43-1.13v2.59a11.21,11.21,0,0,1,7.6-.73V83.75a107.3,107.3,0,0,1-16,1.85,1.5,1.5,0,0,0,0,3l9.6.66v-3a31.14,31.14,0,0,1-7.94-1.51v2.9a26.59,26.59,0,0,1,11.93-.5V84.26a46.2,46.2,0,0,1-19-.26l.66,2.51c1-1.18,6.08-.16,7.42,0a61.92,61.92,0,0,1,8.12,1.57l.4-3c-6.74-.81-13.48-1.3-20.27-1.47-1.75,0-2,2.43-.4,3a51.47,51.47,0,0,1,8.07,3.49l1.15-2.74L35,85.54c-1.88-.36-2.69,2.5-.8,2.89l6.13,1.25c1.87.38,2.68-2.41.79-2.89a24.22,24.22,0,0,0-6-.8,1.52,1.52,0,0,0-.76,2.8,13.72,13.72,0,0,1,3.19,2.09l.66-2.51a20.61,20.61,0,0,1-6.41.11v3q11.52-.41,23-.1v-3a77.68,77.68,0,0,1-13.38.47l.4,2.94a63.9,63.9,0,0,1,8.77-1.86c2-.26,5.89.19,7.22-.11L59.54,92a16.7,16.7,0,0,1,6.55-5.76L64.27,83.9,57.6,89.63c-1.34,1.15.37,3.12,1.82,2.36a63,63,0,0,0,10.87-7.27L67.93,82.9l-2.78,4.51c-1,1.54,1.1,2.84,2.35,1.81a24.48,24.48,0,0,0,4.92-5.44c1-1.54-1.13-2.77-2.36-1.82a14.29,14.29,0,0,1-4.18,2.41q-2.35,1.09-.6-.44c2.19-2.18,5.37-.62,6.74,1.8l1.69-2.2c-5.61-2.07-9.59-6.81-14.7-9.76a1.52,1.52,0,0,0-2.21,1.69,52.6,52.6,0,0,0,2.88,7.39c.83,1.74,3.4.22,2.59-1.52q-2.52-5.42-4.88-10.9L55,72.25c2,2.37.83,4.64,1.74,7.07.78,2.1,2.7,3.27,3,5.7l1.45-1.9q-3.66-3.69.42-1.19a4.23,4.23,0,0,1,2.25,5.55l2.36-.31.39-3-1.29-2.26q-2.35,5.22-6.1,1.59a6.74,6.74,0,0,1,2.24-3.38,11.59,11.59,0,0,1-3.28-7.81h-3a10.26,10.26,0,0,1,.17,3.45h3l.1-2.71-2.74.35.09-.3-.3,2.36,2.11-.62,2.36.31-3.3-2.07-.36,2.75,3.73.06V73a33.32,33.32,0,0,1-9.33.86v3a43.17,43.17,0,0,1,13,2.5v-2.9a18.22,18.22,0,0,1-13.52-1.06V78a16.52,16.52,0,0,1,13.06-.5L62.63,75c-3.49,2.92-10.47,3.14-14.78,4.08a1.51,1.51,0,0,0,.4,3,220.57,220.57,0,0,1,22.12-.33L70,78.76a58.5,58.5,0,0,1-9.25.67c-1.38,0-7.18.35-8-1.11l-.9,2.21A47.33,47.33,0,0,1,68,77.78l-.39-2.94a110.29,110.29,0,0,1-24.88,3.85c-1.92.08-1.94,3,0,3l22.18-.47v-3c-10.35.46-20.67.83-31-.31l.4,3a94.22,94.22,0,0,1,23.18-1v-3a166.78,166.78,0,0,1-29.39-.5l.4,2.94a43.89,43.89,0,0,1,14.27-.69v-3a55.49,55.49,0,0,1-15.9-1.93,1.5,1.5,0,0,0-.8,2.89c3.8,1.2,7.43,2.45,10.48,5.12l1.46-2.5L24.5,77.2C22.94,77,21.72,79.05,23.34,80a120.24,120.24,0,0,0,18.29,7.67l.79-2.89Q34.65,82,26.7,79.81a1.51,1.51,0,0,0-1.15,2.74A55,55,0,0,0,43,89.86c1.6.36,2.71-1.91,1.15-2.75a60.12,60.12,0,0,0-14.62-5.6c-1.57-.37-2.76,2-1.15,2.75,1.81.83,13.37,4.72,13.48,6.62l1.9-1.45L29.63,86.54c-1.55-.32-2.81,2-1.15,2.74a65.33,65.33,0,0,0,16.37,4.84c1.87.3,2.72-2.49.8-2.89A88.14,88.14,0,0,1,34.27,88l-.8,2.89,17.34,2.83.4-3L39.12,92l.4,2.94L62,91.46l-.8-2.89-8.48,1.61c-1.93.37-1.06,3.15.8,2.9,5.2-.72,10.42-1.27,15.66-1.68l-.39-3L60.53,90l.8,2.89a122.49,122.49,0,0,0,15-6.24l-1.52-2.59L69.06,87l1.82,2.36a44,44,0,0,1,7.33-6.14c1.32-.88.51-3.41-1.16-2.74a31.74,31.74,0,0,0-8.43,5.36l2.12,2.12a90.17,90.17,0,0,1,10.13-11,1.51,1.51,0,0,0-1.82-2.36A72.82,72.82,0,0,0,68.73,82.3l2.36,1.82a33.58,33.58,0,0,1,10.06-9.55l-1.82-2.35c-2.77,2.48-8.56,8-12.77,7.6L68,81.72c1-3.41,8.3-6.17,11.21-7.85a1.5,1.5,0,0,0-1.15-2.74,45.68,45.68,0,0,1-13.71,1.73l1.45,1.9c1.28-3.35,11.89-1.55,14.12-1l-.66-2.51c-3,3.1-8.86,3.33-12.87,3.62-1.47.11-11.65.85-12-1.33l-.69,1.69a30.61,30.61,0,0,1,11.83-2.47c2.73-.09,9.14-.74,11.28,1.28l.3-2.36c-3.69,2.64-8.7,2.71-13.1,2.64-4.68-.07-11.28-.16-14.93-3.51l.24,1.81c1.28-3,8.65-3,11.25-3.2,3.13-.24,7.45-.84,10.3.71l-.54-2.05c-2,4.33-11.15,5.27-15.34,5.85-4.58.64-11.41,1.75-15.41-1l.53,2c2.18-3,8-3.44,11.36-4,1.05-.19,11.93-2.37,12.84-.77l.54-2a62.2,62.2,0,0,1-14.55,5c-2.1.42-15,3.1-16.49.33l-.23,1.81c3.1-2.73,8.35-3.53,12.29-4.2a62.77,62.77,0,0,1,13.69-.69l-.76-2.8c-6.83,3.39-15,5.87-22.74,5.29-2.37-.18-6.22,0-.72-2.07a39.55,39.55,0,0,1,5.12-1.51,42.78,42.78,0,0,1,12-.82l-.76-2.8A58,58,0,0,1,41,69.09c-1.54.33-9.33,2.44-10.37.81L30,72a62.85,62.85,0,0,1,25.89-6.5l-.75-2.8a79.14,79.14,0,0,1-19.71,6l.79,2.9c7.13-1.81,14.2-3.47,21.59-3.54l-.76-2.8A41.64,41.64,0,0,1,41.6,71.76l.79,2.9q15.22-3.33,30.57-6L71.8,65.89l-7.24,4.5c-1.37.86-.49,3.4,1.16,2.75l11-4.37-1.46-2.5a34.77,34.77,0,0,1-6,6l1.82,2.35,7.17-5.66L76.1,66.79a85.74,85.74,0,0,0-8.37,11.07,1.51,1.51,0,0,0,2,2l14.35-8.55L82.31,69a126.44,126.44,0,0,0-8.73,12,1.51,1.51,0,0,0,2,2c4-2.6,6.24-6.36,8.34-10.57l-2.74-1.15c-1.5,4.93-3.12,9.67-7.22,13l2.12,2.12,6.88-6-2.12-2.12L74.5,86.07l2.36,1.82A71.47,71.47,0,0,0,84,75a1.51,1.51,0,0,0-2.36-1.81,31,31,0,0,0-8.35,12.18c-.56,1.41,1.53,2.51,2.5,1.46,4-4.38,7.88-8.77,10.73-14a1.5,1.5,0,0,0-2.59-1.51,17.83,17.83,0,0,0-3.21,9.4,1.51,1.51,0,0,0,2.8.76c3.8-6.85,8.69-13.74,9.4-21.73.15-1.71-2.53-2-2.94-.4A33.36,33.36,0,0,0,88.9,69.81a1.52,1.52,0,0,0,2.8.76,23.51,23.51,0,0,0,3.48-15.14c-.16-1.56-2.54-2.17-3-.4a20.74,20.74,0,0,0-.43,7.57c.19,1.5,2.64,2.23,3,.4A91.66,91.66,0,0,1,97.1,52.78l-2.74.36,1,2.77,2.9-.8a27.7,27.7,0,0,0-3-6.1,1.51,1.51,0,0,0-2.79.76c-.54,4.93,0,9.85-1.07,14.72a33.1,33.1,0,0,1-5.56,12.15C80.5,84,70.2,90.48,61.1,92l.8,2.89,3.31-1-.79-2.89a60.58,60.58,0,0,1-21.51,2.91v3a92.66,92.66,0,0,0,19.62-2.58c1.91-.46,1.07-3.2-.8-2.89a100.34,100.34,0,0,1-24,1.06v3c5.66.23,11.31.31,17,.27v-3c-10,.72-19.34-2-28.52-5.73-1.56-.64-2.71,2-1.15,2.74a95.55,95.55,0,0,0,14.34,5l.8-2.89c-5.29-.92-10.64-2-14.1-6.48l-1.82,2.36L34,92l1.15-2.74c-2.59-.93-10.3-2.7-11.11-5.39l-1.85,1.84A31.38,31.38,0,0,0,32.8,87.92,1.5,1.5,0,0,0,33.2,85a51.41,51.41,0,0,1-5.29-1.65,32.81,32.81,0,0,1-3.29-1.4c.85-1.72,2.39-2,4.64-.89L28.9,78.3c-1.42,1-5.85,2.38-3.38-.09,1.31-1.3,3.73-2.15,5.36-3s.39-2.95-1.16-2.74a51.29,51.29,0,0,1-9.1.42l.4,3a12.11,12.11,0,0,1,8.62.54V73.49a42.93,42.93,0,0,1-9.27.32,1.51,1.51,0,0,0-.76,2.79,9.54,9.54,0,0,1,4.33,4.87l1.84-1.85a27.58,27.58,0,0,1-7.85-4,1.51,1.51,0,0,0-2,.54C13.5,80.76,20.49,84.6,23.27,87l1.06-2.57c-5.42-.11-10.86-11-9.2-15.78l-2.51.66c.68.79.09,3.92.28,5a15.41,15.41,0,0,0,1.89,4.92l2.05-2A15.19,15.19,0,0,1,8.67,62c.17-1.92-2.83-1.91-3,0Z"/><path class="cls-2" d="M33.94,24.94l1.24-1-2.12-2.12a10.59,10.59,0,0,0-3.31,6.55c-.18,1.31,1.4,2.74,2.51,1.46A124.72,124.72,0,0,1,47.13,15.38a1.51,1.51,0,0,0-1.46-2.51,52.59,52.59,0,0,0-15.07,8.9L33,23.59a113.73,113.73,0,0,1,5.91-11c.75-1.22-.79-2.93-2-2l-6.17,4.33,2.25,1.29,1.71-3.59L32.24,10.7c-1.09,2.39-1.72,4.17-1,6.76a1.51,1.51,0,0,0,2.5.66,17,17,0,0,1,5.43-4.33L37,12.5c-.08,3.85-1.24,7.33-2.57,10.92-.67,1.82,2.2,2.57,2.9.79l3.47-8.86c.54-1.39-1.56-2.56-2.51-1.46a19.92,19.92,0,0,0-4.41,8.39c-.34,1.33,1.53,2.71,2.51,1.46A65,65,0,0,1,47.94,12.07L45.82,9.94c-.54.7-7.21,8.91-7.89,8.55l.31,2.36a27.3,27.3,0,0,1,8.51-7.38l-1.51-2.59c-1.5.88-5.5,4.23-7.13,4L39.56,16c.43,1.66,4.4-2.61,2.71.53-.44.82-1.58,1.49-2.18,2.22A10.3,10.3,0,0,0,38.27,22a1.52,1.52,0,0,0,2.21,1.7A28.16,28.16,0,0,0,49,15.24a1.51,1.51,0,0,0-2.05-2.05c-4.82,3.11-11.12,7.82-11.57,14a1.51,1.51,0,0,0,2.56,1.06q4.56-5.45,9.42-10.61L45,15.85c-3.05,4.33-7.16,7.46-8.49,12.79a1.52,1.52,0,0,0,1.45,1.9c5.9.15,12.07-5.82,16.17-9.53a1.51,1.51,0,0,0-1.46-2.51,77,77,0,0,0-15.57,6.89c-1.43.82-.48,3.37,1.15,2.74l14-5.4a1.5,1.5,0,0,0-.8-2.89c-3.68.89-12.14,2.09-13.53,6.27-.4,1.19.8,2,1.84,1.85,4.68-.77,9.15-2.51,13.64-4l-.8-2.89a33.63,33.63,0,0,0-8.87,4.78c-1,.78-.26,2.16.67,2.51C48.57,30,55.21,26,59.13,24.65c1.81-.62,1-3.51-.8-2.89A32.31,32.31,0,0,0,49,26.67a1.52,1.52,0,0,0,0,2.59c2.74,1.68,6.21.5,9.23.08,5.1-.71,10.15-1.64,15.18-2.73,1.72-.38,1.22-2.86-.4-2.95a104.77,104.77,0,0,0-14.61.21c-1.89.16-2,3.05,0,3,5.67-.12,11.85-.41,17.05-2.83,1.53-.71.53-2.63-.75-2.8a16.9,16.9,0,0,0-9.8,1.58,1.52,1.52,0,0,0,.36,2.74A27.49,27.49,0,0,0,78.53,24.5a1.5,1.5,0,0,0-.39-2.94,5.76,5.76,0,0,0-4.4,1.07,1.51,1.51,0,0,0,0,2.59c2.68,1.24,5.8,1.79,8.23-.28a1.54,1.54,0,0,0,.39-1.46A1.84,1.84,0,0,0,80.92,22a1.51,1.51,0,0,0-1.46,2.5c4.07,3.49,5.08-2.1,4.61-5.17l-2.51,1.46.83,1.65,1.84-1.85c-5.09-2.12-10.08-3.95-15.63-4.32a1.52,1.52,0,0,0-1.45,1.9c.84,3.58,5.63,6.17,8.44,8.22,1.36,1,3.14-1.28,1.81-2.36a67.19,67.19,0,0,0-7.78-5.48l-1.15,2.74a75,75,0,0,0,11,1.32c1.79.09,1.89-2.38.4-2.94a20.25,20.25,0,0,0-6.51-1.28,1.51,1.51,0,0,0-1.29,2.26,9,9,0,0,0,5.57,4.28c1.61.47,2.7-1.95,1.16-2.74-3.63-1.86-8.25-2.26-12.3-2.32-2.76,0-8.13-.16-10.12,2.17a2.39,2.39,0,0,0,.18,3.51c2.45,2.28,7.39,1.33,10.1.35a1.51,1.51,0,0,0,.89-2.2c-2.38-3.26-9.35-1.92-12.75-1.54-1.54.17-2.21,2.59-.4,2.95a27.75,27.75,0,0,0,12.2-.23c1.76-.42,1.19-2.78-.4-2.95A97.62,97.62,0,0,0,53.5,21.4v3A108.68,108.68,0,0,0,70.24,22c1.73-.38,1.22-2.84-.4-2.94a92,92,0,0,0-23.36,1.47c-1.47.28-1.38,2.55,0,2.89,6,1.46,13.78-1.26,19.51-2.94,1.56-.46,1.35-3.1-.4-2.95L43.77,19.47l.4,3Q51.58,21,59,19.82c1.68-.28,1.26-3-.4-2.95a75.67,75.67,0,0,0-16.14,2.06,1.51,1.51,0,0,0,0,2.89c7,1.64,15.9-1.06,22.86-2.17l-.8-2.89c-5,.89-10.95,1.06-15.52,3.38-1.27.65-.73,2.95.76,2.79a116.51,116.51,0,0,0,17.77-3.28c1.72-.47,1.21-2.8-.4-2.95a38.24,38.24,0,0,0-14.51,1.36,1.52,1.52,0,0,0,0,2.9,41.12,41.12,0,0,0,11.56.66c2.37-.17,5.14.11,6.92-1.64a1.51,1.51,0,0,0-.66-2.51A63.33,63.33,0,0,0,59,15.89v3a122.29,122.29,0,0,0,12.25-.53,1.5,1.5,0,0,0,0-3L58.48,13.82v3a89.33,89.33,0,0,0,13.88,0c1.55-.12,2.19-2.7.4-2.95A154.25,154.25,0,0,0,55.84,12.7v3a84.84,84.84,0,0,0,10.92-2c1.35-.34,1.5-2.65,0-2.89a20.38,20.38,0,0,0-10.44.85c-1.31.46-1.53,2.54,0,2.89a10,10,0,0,0,4.49.07c1.68-.32,1.27-3-.4-2.94l-14.82.25.4,2.94a24.08,24.08,0,0,1,5.58-1.09c1.88-.18,2-3,0-3a16,16,0,0,0-7.3,1.72,1.52,1.52,0,0,0,0,2.59c3.4,2.39,8.65,1.39,12.47.66,1.72-.33,1.23-2.89-.4-2.95a69.15,69.15,0,0,0-10.57.45c-1.51.19-2.23,2.65-.4,2.95a29.77,29.77,0,0,0,14-.89,1.5,1.5,0,0,0-.4-2.94c-4,0-8.48.11-11.79,2.58a1.51,1.51,0,0,0,.76,2.79,13.76,13.76,0,0,0,8.4-1.51c1.45-.72.59-2.68-.76-2.8a12,12,0,0,0-8.45,2.31c-.9.64-1.06,2.55.36,2.74A30,30,0,0,0,60.9,17.4a1.5,1.5,0,0,0-.4-2.94,25.22,25.22,0,0,0-10.17,1,1.5,1.5,0,0,0,.4,2.94,55.06,55.06,0,0,0,13-.88c1.78-.33,1.17-2.8-.4-2.95a36.35,36.35,0,0,0-11.3.71c-1.39.3-1.47,2.66,0,2.89a52.19,52.19,0,0,0,8.83.65,1.5,1.5,0,0,0,0-3,47,47,0,0,1-8-.54v2.89a34,34,0,0,1,10.5-.6l-.4-2.95a51.49,51.49,0,0,1-12.21.78l.4,3a23.61,23.61,0,0,1,9.37-.93l-.4-3a26.56,26.56,0,0,1-11.84,1.08l.35,2.74a9.6,9.6,0,0,1,6.94-1.9l-.75-2.79a11.23,11.23,0,0,1-6.89,1.1l.76,2.8c2.89-2.16,6.81-2.16,10.27-2.17l-.39-2.95a26.5,26.5,0,0,1-12.38.89l-.4,2.94a69.15,69.15,0,0,1,10.57-.45l-.4-2.94c-2.76.53-7.58,1.44-10.15-.36v2.59a10,10,0,0,1,5.78-1.31v-3A27,27,0,0,0,45.19,12a1.51,1.51,0,0,0,.4,2.95l14.82-.25L60,11.73l-2.89-.07v2.89A17.36,17.36,0,0,1,66,13.7V10.81A79.08,79.08,0,0,1,55.84,12.7c-1.87.22-2,3,0,3a144.76,144.76,0,0,1,16.12,1l.4-2.95a89.33,89.33,0,0,1-13.88,0c-2-.15-1.88,2.77,0,3l12.77,1.54v-3A122.29,122.29,0,0,1,59,15.89c-1.94,0-1.92,2.91,0,3a60,60,0,0,1,10.67,1.47L69,17.86c-1.19,1.17-5.8.87-7.4.91a34.38,34.38,0,0,1-8.16-.71V21A35.71,35.71,0,0,1,67.16,19.7l-.4-2.95a110.06,110.06,0,0,1-17,3.18l.76,2.8c4.24-2.15,10.15-2.25,14.8-3.08,1.91-.34,1.08-3.19-.8-2.89-6.49,1-14.78,3.69-21.27,2.17v2.89a71.54,71.54,0,0,1,15.35-1.95l-.4-2.95q-7.45,1.21-14.86,2.6c-1.64.31-1.29,3.1.4,2.95l21.82-1.92-.39-2.94C60,19.13,52.68,21.86,47.28,20.55v2.89a88.47,88.47,0,0,1,22.56-1.36l-.4-2.95A103.2,103.2,0,0,1,53.5,21.4c-1.91.12-2,3.05,0,3a97.62,97.62,0,0,1,12.68.48l-.4-2.94a23.62,23.62,0,0,1-10.61.22l-.39,2.95c1.59-.18,9.14-1.34,10.16.05l.9-2.2c-1.41.51-4.22,1.52-5.67.55.75.5,4.48-.67,5.46-.69,3.75,0,8.27.19,11.63,1.91L78.42,22a5.16,5.16,0,0,1-3.78-2.9l-1.3,2.25a16.34,16.34,0,0,1,5.71,1.17l.4-3a69.5,69.5,0,0,1-10.18-1.21,1.51,1.51,0,0,0-1.16,2.74,61.36,61.36,0,0,1,7.17,5l1.82-2.35c-1.82-1.32-6.46-3.88-7-6.43l-1.45,1.9c5.27.35,10,2.21,14.83,4.22,1.16.48,2-.87,1.85-1.85a3.88,3.88,0,0,0-1.6-3,1.51,1.51,0,0,0-2.5,1.46c.1.75.23,1.51.4,2.25l-1.46,2.51-4.87-2.21v2.59l2.89-.66-.4-2.95A24.35,24.35,0,0,1,66,22.67l.36,2.74a14.17,14.17,0,0,1,8.28-1.17l-.76-2.79c-4.73,2.2-10.42,2.31-15.54,2.42v3A104.77,104.77,0,0,1,73,26.66l-.4-2.95c-3.46.75-6.92,1.44-10.41,2-2.85.47-9,2.56-11.69,1v2.59a30.09,30.09,0,0,1,8.64-4.61l-.8-2.89c-2.91,1-10.16,4.89-13.19,3.73L45.8,28a28.25,28.25,0,0,1,7.55-4c1.75-.69,1.07-3.5-.8-2.89-4.49,1.47-9,3.2-13.63,4l1.84,1.84c.65-2,9.56-3.72,11.44-4.18l-.8-2.89-14,5.4L38.56,28a74.18,74.18,0,0,1,14.86-6.59L52,18.89c-3.28,3-9.18,8.77-14.05,8.65l1.44,1.9c1.23-4.89,5.38-8.08,8.19-12.07,1-1.4-1.2-3.05-2.35-1.82q-4.87,5.18-9.42,10.61l2.56,1.06c.35-4.76,6.48-9.12,10.08-11.44l-2-2A24.49,24.49,0,0,1,39,21.12l2.21,1.69c1.08-3,9.6-8.4,3.92-11.61-3.37-1.9-9.47,1.61-8.42,5.61a1.54,1.54,0,0,0,1.44,1.1c2.63.31,6.49-3.17,8.64-4.44a1.5,1.5,0,0,0-1.51-2.59,29.55,29.55,0,0,0-9.13,7.85,1.52,1.52,0,0,0,.31,2.35c3.93,2.05,9.66-6.63,11.52-9a1.5,1.5,0,0,0-2.12-2.13A65,65,0,0,0,34.23,21.62l2.5,1.46A16.44,16.44,0,0,1,40.37,16l-2.5-1.46-3.48,8.87,2.9.79A35.64,35.64,0,0,0,40,12.5a1.52,1.52,0,0,0-2.26-1.3,18.75,18.75,0,0,0-6,4.8l2.51.66.66-4.44a1.51,1.51,0,0,0-2.35-1.82,6.82,6.82,0,0,0-2.59,5.71,1.52,1.52,0,0,0,2.26,1.3l6.17-4.33-2-2.05a112.42,112.42,0,0,0-5.91,11,1.51,1.51,0,0,0,2.36,1.82,48.08,48.08,0,0,1,13.75-8.12L45,13.26A125.56,125.56,0,0,0,30.13,27.73l2.51,1.46A8.24,8.24,0,0,1,35.18,24c1.41-1.4-.64-3.27-2.12-2.12l-1.25,1c-1.52,1.19.62,3.3,2.13,2.13Z"/><path class="cls-2" d="M5.11,44.3,17.3,43.19c1.89-.17,2-3,0-3L5.05,40.12,6.5,42a24.31,24.31,0,0,1,5.56-11.73L9.55,28.83c-.49,2.89-3.2,9.7-1,12.35,1.72,2,6.44,1.54,8.46.38,1.63-.93,2.77-2.71,1.07-4.3-2.53-2.37-7.71-.63-10.3.59-1.52.72-.42,3.41,1.15,2.74A11.36,11.36,0,0,0,12,38.94a1.5,1.5,0,0,0-1.52-2.59L6,38.59l2.2.89L8,38.14c-.18-1.33-2.15-1.38-2.74-.36a2.94,2.94,0,0,0-.38,3,1.52,1.52,0,0,0,2.74.36A24.77,24.77,0,0,1,14,33.64l-2.56-1.06a36.87,36.87,0,0,1-1.05,6.13,1.51,1.51,0,0,0,2.51,1.46l4.66-4.3c1.23-1.13-.43-3.39-1.82-2.36a36.56,36.56,0,0,0-5.36,4.82,1.5,1.5,0,0,0,2.12,2.12c4.05-3.19,8.14-6.23,13.45-6.68l-.4-2.94L16.1,34.61a1.5,1.5,0,0,0,.8,2.89,171.53,171.53,0,0,1,21.62-3.31l-.4-2.94c-8.63,2.79-18,3.21-25.8,8.17l1.81,2.36c7-7.44,16.76-8.72,26.49-8.09v-3a125.07,125.07,0,0,0-13.34,2.12c-1.93.42-1.05,3.14.8,2.89a95.33,95.33,0,0,0,20.63-5.16,1.51,1.51,0,0,0-.8-2.9,33.06,33.06,0,0,0-10.7,4.7,1.52,1.52,0,0,0,.75,2.8c3.64.43,7.58-1.22,11.09-2.11l13.28-3.38c1.87-.48,1.08-3.33-.8-2.89-6,1.38-15.22,2.24-19.79,6.75a1.51,1.51,0,0,0,.67,2.5c7.51,1.57,17-2.5,24-5.13,1.44-.55,1.42-3.16-.4-2.95a44.32,44.32,0,0,0-13,3.55c-1.35.6-.67,2.9.76,2.8a93.56,93.56,0,0,0,27.56-6.17c1.47-.57,1.42-3-.4-2.94a77.36,77.36,0,0,0-20.75,3.39c-1.55.48-1.35,3.06.4,3a118.74,118.74,0,0,0,18.57-2.69,1.51,1.51,0,0,0-.4-2.95A87.4,87.4,0,0,0,60,28.8a1.51,1.51,0,0,0,.4,2.95A180.76,180.76,0,0,0,81.8,31l-.4-2.94c-4,.76-10.71,1.48-12.29,5.91a1.54,1.54,0,0,0,1,1.85,14.14,14.14,0,0,0,13.29-2,1.52,1.52,0,0,0-.36-2.74c-2.4-.68-6.28,1-4.17,4s6.74.32,8.69-1.34L85.26,32a3.27,3.27,0,0,0-.79,2.82,1.53,1.53,0,0,0,1.9,1.45,2.85,2.85,0,0,0,1.95-.82l-2.21-.9c1.48,3.6,6.47,4.73,6.84-.09l-2.56,1.06A6.86,6.86,0,0,0,94,37.4a1.52,1.52,0,0,0,1.69-2.2,2.14,2.14,0,0,0-1.92-1.45,1.51,1.51,0,0,0-1.84,1,2.54,2.54,0,0,0,.36,2.3,1.5,1.5,0,0,0,2.59-1.51,47.13,47.13,0,0,0-13-15.6c-1.48-1.15-3.55.74-2.12,2.12A70.32,70.32,0,0,1,90.5,35.35c.86,1.37,3.36.5,2.74-1.16l-3.74-10-2.74,1.15a21.66,21.66,0,0,1,3,12.06l2.56-1.06a108.58,108.58,0,0,0-8.32-7.73L82.23,31a13.61,13.61,0,0,1,3.65,2.83c1.2,1.16,3.28-.34,2.36-1.82a16.47,16.47,0,0,0-7-6.43,1.5,1.5,0,0,0-1.52,2.59A46.82,46.82,0,0,1,87.06,34a1.51,1.51,0,0,0,2.36-1.81A25.39,25.39,0,0,0,83,25L81.47,27.6c.88.61,6.11,3.9,5.51,5.51l2.2-.89a37.48,37.48,0,0,0-9.81-4.35,1.51,1.51,0,0,0-1.84,1.85c.78,2.71,3.37,3.52,4.53,6,.61,1.31,3,.72,2.79-.75L84,27.28c-.18-1.53-.61-2,.41-2.39,0,0,2.55.32,2.25.3a1.51,1.51,0,0,0,1.29-2.26,49.81,49.81,0,0,0-6.34-9c-1.28-1.45-3.38.67-2.12,2.12L88.3,26.25l2.12-2.12c-5-5.67-10.19-11.33-17-14.84A57,57,0,0,0,51.74,3c-8.25-.7-13.68.42-20.82,4.59-6.65,3.89-12.78,8.42-17.57,14.51l2.56,1.06c.62-5.47,8.45-6.95,12.11-10A1.51,1.51,0,0,0,27,10.68c-3.93.08-6.14,2.13-8.49,5.1-2.65,3.35-6.62,6-8.49,9.84l2.74,1.15,1.45-2.54-2.51-1.46-3.4,8.77c-.7,1.81,2.19,2.56,2.9.8a24.47,24.47,0,0,0,1.5-5.45,1.51,1.51,0,0,0-2.9-.8,55.8,55.8,0,0,0-2,5.48c-.56,1.86,2.26,2.6,2.89.79a11.79,11.79,0,0,1,1.94-3.86l-2.8-.76c.23,2.5.15,9.67,4.09,9.28,3.66-.36,5.23-7.67,5.91-10.3a1.51,1.51,0,0,0-2.75-1.16A31.81,31.81,0,0,0,12.64,35c-.46,1.59,2,2.75,2.74,1.16a22.9,22.9,0,0,0,2-9.67,1.51,1.51,0,0,0-2.56-1.06,12.66,12.66,0,0,0-3.33,6.35c-.28,1.33,1.48,2.71,2.51,1.46a14.15,14.15,0,0,0,3.43-8.74,1.51,1.51,0,0,0-2.26-1.29A12.64,12.64,0,0,0,9.75,31a1.51,1.51,0,0,0,1.44,1.9c4.75-.53,6.35-6.44,7.71-10.37.52-1.49-1.47-2.4-2.51-1.46-2.07,1.91-5.57,9.14-.16,9.4s10.58-10,12.28-14a1.51,1.51,0,0,0-2.05-2,14,14,0,0,0-7.75,11.65c-.14,1.42,1.67,1.81,2.56,1.06a16.1,16.1,0,0,0,5.84-10.54c.15-1.15-1-2.53-2.21-1.7-4.85,3.35-9,6.81-9.8,13a1.51,1.51,0,0,0,2.26,1.29A22.84,22.84,0,0,0,26,17.71c.48-1.38-1.12-2.17-2.2-1.7-3.81,1.66-10.35,6.56-8.43,11.64,1.75,4.65,8.9,4.17,12.49,2.58,2.31-1,7.86-5,4.74-8.11s-9.86,1.8-12.08,3.79c-2.06,1.85-6.62,7.27-1.75,8.78,4.13,1.28,10-3.33,11.78-6.64,2.29-4.17.07-6.14-4.29-5.61C21,23.08,14.08,25.52,12.44,31a1.52,1.52,0,0,0,1,1.84,17.94,17.94,0,0,0,18-3.74,1.51,1.51,0,0,0-.67-2.51,20.56,20.56,0,0,0-15.14,2.31A1.52,1.52,0,0,0,16,31.63c4.77.95,8.91-.33,13.36-2.08A1.51,1.51,0,0,0,29,26.6a8.62,8.62,0,0,0-6.54,1.55,1.51,1.51,0,0,0,1.15,2.74,138.36,138.36,0,0,0,21.55-6.64c1.75-.7,1.08-3.51-.79-2.89a150.48,150.48,0,0,0-18.26,7,1.51,1.51,0,0,0-.54,2.05c1.77,2.83,5,2.11,8,1.79A81.45,81.45,0,0,0,48.73,29a1.51,1.51,0,0,0-.4-3,65.49,65.49,0,0,0-21.71,2.33,1.51,1.51,0,0,0,.4,2.95,76.2,76.2,0,0,0,24.85-2.09c1.75-.44,1.19-2.77-.4-2.94a40.51,40.51,0,0,0-17.22,1.78,1.51,1.51,0,0,0,.4,2.95,69.78,69.78,0,0,0,24.76-1.79c1.76-.45,1.18-2.76-.4-2.95a71.81,71.81,0,0,0-19.26.38c-1.71.25-1.25,2.93.4,2.94A222.59,222.59,0,0,0,68.66,28a1.5,1.5,0,0,0,0-3,68.62,68.62,0,0,0-21.2,1.18,1.51,1.51,0,0,0-.66,2.51c2.25,2.13,5.46,1.32,8.37,1.09a95.54,95.54,0,0,0,12.58-1.92c1.39-.3,1.46-2.64,0-2.89a50.27,50.27,0,0,0-16.14-.52c-1.91.3-3.62.65-3.73,2.89a1.54,1.54,0,0,0,1.5,1.5,93.08,93.08,0,0,0,27.33-.54c1.79-.29,1.15-2.79-.4-2.94a84.4,84.4,0,0,0-18.93.25c-1.85.24-2,3.08,0,3A92.94,92.94,0,0,0,76.09,26c1.89-.46,1.09-3.27-.79-2.89a11.77,11.77,0,0,0-4.18,1.65,1.52,1.52,0,0,0,.76,2.8,21.19,21.19,0,0,0,9-1.86c1.45-.63.6-2.76-.76-2.8a6.87,6.87,0,0,0-4.56,1.31,1.51,1.51,0,0,0,1.16,2.74c1-.21,4.42-3.17,4.48-3.16a1.51,1.51,0,0,0,1.9-1.44c.08-2.79-1.18-4.41-3.75-5.35a1.52,1.52,0,0,0-1.9,1.45,4.46,4.46,0,0,0,2.91,5,1.54,1.54,0,0,0,2.21-.9c1.52-4.26-6.2-7.47-9.13-8.61a1.51,1.51,0,0,0-1.84,1.85,8.82,8.82,0,0,0,4.22,5.1A1.51,1.51,0,0,0,78,20c.7-3.82-.77-7.15-4.41-8.78-1.47-.66-3.13,1.08-1.82,2.35a18,18,0,0,0,5.6,3.8,1.53,1.53,0,0,0,2.21-1.7,3.11,3.11,0,0,0-1.21-2.16c-1.44-1.37-3.27.64-2.12,2.13A18.21,18.21,0,0,0,79,18.53l1.82-2.36A50,50,0,0,0,60,9.05c-1.58-.18-1.88,2.06-.75,2.8a24.6,24.6,0,0,0,12,4c1.62.12,1.86-2,.76-2.79a24.26,24.26,0,0,0-8.47-3.84l-.8,2.89A58.53,58.53,0,0,1,73.28,14.6c1.85.62,2.58-2.23.8-2.89A117.86,117.86,0,0,0,58.37,7.08l-.8,2.9L64,11.36A1.51,1.51,0,0,0,65.5,8.85a8.78,8.78,0,0,0-6.65-3c-1.41,0-2.14,2.18-.75,2.8a38.5,38.5,0,0,0,6.37,2.24l.8-2.9-13-3-.8,2.89,4.59.67.4-2.95-4.78.24c-1.6.07-2.15,2.62-.4,2.94l1.5.28.4-2.95-9.08-.19.4,3,6-.85c1.66-.23,1.28-3.13-.4-2.94-2.46.28-4.91.48-7.39.61v3l5-.58c1.88-.21,1.94-3.17,0-3a75.62,75.62,0,0,0-9.69,1.5l1.16,2.74,1.36-.9c1.34-.88.52-3.36-1.16-2.74C35.9,7,32.48,8.49,29.1,10.12c-1.76.86-.22,3.34,1.52,2.59a19.18,19.18,0,0,1,4.23-1.37L33.39,8.83A73.49,73.49,0,0,1,23,15.56l1.52,2.59A65.87,65.87,0,0,0,31,13.35c1.48-1.25-.65-3.36-2.12-2.13-3.26,2.73-11.34,13.29-5.83,17A1.52,1.52,0,0,0,24.88,28a90.78,90.78,0,0,0,9.46-11.07c.87-1.19-.86-2.92-2.05-2a35.37,35.37,0,0,0-9.5,10.3C21.92,26.61,24,28.3,25.14,27a43.16,43.16,0,0,0,8-13c.63-1.58-2-2.65-2.74-1.15l-6.21,12L26.88,26a32.08,32.08,0,0,1,4.95-11.08l-2.74-1.15a29.23,29.23,0,0,1-3.87,7.41L28,22.36a12.6,12.6,0,0,1,1-3.57c.4-.82,2.93-5,1.51-2.08-1.06,2.18-2.44,4.42-3.7,6.52l2.59,1.51q4.28-7.26,9.19-14.1L35.93,9.13c-2.67,5.73-8.58,9.34-9.75,15.83-.28,1.58,1.88,2.74,2.74,1.15a60.51,60.51,0,0,1,11.15-14.6L37.71,9.69c-2.6,5.14-6.13,9.56-9.81,14-1.22,1.46.77,3.55,2.12,2.13L43.61,11.41a1.5,1.5,0,0,0-2.12-2.12,34.2,34.2,0,0,1-7.17,5l1.82,2.35a92.06,92.06,0,0,1,6.58-7c1.31-1.24-.35-3-1.82-2.36A9.19,9.19,0,0,0,36.15,12a1.52,1.52,0,0,0,1.7,2.2,13.4,13.4,0,0,0,5.68-2.16,1.51,1.51,0,0,0-.76-2.79,4.31,4.31,0,0,0-3,.41c-1.49.56-1.4,3,.4,2.95,5.8-.17,11.45-.15,16.93,2l.8-2.9q-7.5-2-14.89-4.26l-.4,2.94q8.64,1.14,17.22,2.71c1.88.34,2.71-2.47.8-2.89C55.82,9.14,51,8.27,46.16,7.57l-.4,2.95a86,86,0,0,1,14.72,2.17l.4-2.94A15.5,15.5,0,0,1,55,8.91c-1.83-.62-2.62,2.27-.8,2.89a17.1,17.1,0,0,0,6.65.95c1.63-.08,2.11-2.54.4-2.95A90.52,90.52,0,0,0,45.76,7.52c-1.66-.1-2.08,2.7-.4,2.94C50.22,11.16,55,12,59.8,13.1l.8-2.89q-9-1.64-18-2.82c-1.74-.22-1.94,2.47-.4,3q7.4,2.33,14.89,4.27c1.91.49,2.56-2.21.8-2.9C52.12,9.48,46.23,9.44,40.14,9.62l.4,2.94,2.23-.3L42,9.46a12,12,0,0,1-5,1.86l1.69,2.2a7.47,7.47,0,0,1,3.68-3.59L40.6,7.57a92.06,92.06,0,0,0-6.58,7,1.51,1.51,0,0,0,1.82,2.36,37.34,37.34,0,0,0,7.77-5.48L41.49,9.29,27.9,23.64,30,25.77c3.85-4.6,7.56-9.19,10.28-14.57a1.51,1.51,0,0,0-2.36-1.82A63.32,63.32,0,0,0,26.33,24.6l2.75,1.15c1.09-6.08,6.9-9.66,9.44-15.11a1.5,1.5,0,0,0-2.59-1.51Q31,16,26.74,23.23a1.5,1.5,0,0,0,2.59,1.51c1.71-2.85,6.45-9,3.52-12.17a1.44,1.44,0,0,0-1.46-.38c-3.71,1.53-5.74,5.6-6.32,9.37a1.51,1.51,0,0,0,2.74,1.16A32.74,32.74,0,0,0,32,14.59c.6-1.7-1.83-2.48-2.74-1.16A34.19,34.19,0,0,0,24,25.22c-.38,1.6,1.93,2.72,2.74,1.16l6.21-12L30.2,13.19A38.81,38.81,0,0,1,23,24.88l2.36,1.82a31.19,31.19,0,0,1,8.42-9.23l-2-2a86.19,86.19,0,0,1-9,10.46l1.82-.23c-1.17-.8,1.77-6.79,2.14-7.43A18.38,18.38,0,0,1,31,13.35l-2.12-2.13A58,58,0,0,1,23,15.56a1.5,1.5,0,0,0,1.52,2.59,78.71,78.71,0,0,0,11-7.2c1.26-1-.13-2.82-1.46-2.5a31,31,0,0,0-4.95,1.67l1.52,2.59c3.14-1.52,6.33-2.88,9.6-4.09L39.06,5.88l-1.35.9a1.5,1.5,0,0,0,1.15,2.74,69.94,69.94,0,0,1,8.89-1.39v-3l-5,.58c-1.87.21-2,3.1,0,3,2.48-.13,4.93-.33,7.39-.61l-.4-2.95-6,.85c-1.72.24-1.23,2.91.4,2.94l9.08.19c1.65,0,2.09-2.63.4-2.94l-1.5-.28-.4,2.95,4.78-.24c1.59-.08,2.16-2.69.4-2.95L52.31,5c-1.85-.27-2.72,2.44-.8,2.89l13,3c1.88.43,2.68-2.42.8-2.9a33.15,33.15,0,0,1-5.66-1.93l-.76,2.79A5.11,5.11,0,0,1,63.38,11l1.46-2.5L58.37,7.08c-1.88-.4-2.69,2.48-.8,2.9A115.92,115.92,0,0,1,73.28,14.6l.8-2.89A57.7,57.7,0,0,0,63.54,9.22c-1.85-.26-2.73,2.42-.8,2.89a22.6,22.6,0,0,1,7.76,3.54l.75-2.8A21.66,21.66,0,0,1,60.8,9.26L60,12.05a46.64,46.64,0,0,1,19.3,6.71c1.42.87,3.14-1.24,1.82-2.36a17.79,17.79,0,0,1-2.75-2.87l-2.12,2.13.43.83,2.21-1.7a14.53,14.53,0,0,1-5-3.32l-1.82,2.36q3.51,1.15,3,5.4l2.21-.9L74.5,15l-1.84,1.85c1,.4,7.65,3.17,7,4.92l2.2-.9-1.43-2.45-1.9,1.45,1.55,2.45L82,20.89c-3.48-1-3.31,2.56-6.08,3.16l1.15,2.74,3-.9-.75-2.79a17.82,17.82,0,0,1-7.5,1.45l.75,2.79A7,7,0,0,1,76.09,26L75.3,23.1a89.5,89.5,0,0,1-17.92,2.47v3a84.4,84.4,0,0,1,18.93-.25l-.4-2.95a90.74,90.74,0,0,1-26.53.43l1.5,1.5c0-1.08,14.94.33,16.07.52V24.93a92,92,0,0,1-10,1.65c-1.94.2-6.5,1.36-8,0L48.26,29A65.92,65.92,0,0,1,68.66,28V25a222.59,222.59,0,0,1-28.51,1.66l.4,2.95A69.16,69.16,0,0,1,59,29.3l-.4-2.94a67.4,67.4,0,0,1-24,1.68L35,31a38.64,38.64,0,0,1,16.43-1.67l-.4-2.95a73.79,73.79,0,0,1-24,2l.4,2.95a62.58,62.58,0,0,1,20.91-2.23l-.39-2.95a81,81,0,0,1-9.2,2.33c-1.79.33-9.36,2.45-10.6.48l-.54,2a144.73,144.73,0,0,1,17.54-6.72l-.79-2.89A139,139,0,0,1,22.8,28L24,30.74a5.42,5.42,0,0,1,5-1.14l-.4-3c-3.83,1.52-7.55,2.92-11.76,2.08l.35,2.75a17.38,17.38,0,0,1,12.84-2L29.34,27a14.83,14.83,0,0,1-15.06,3l1.05,1.84c.94-3.12,4.79-4.62,7.51-5.49,1.37-.44,4.51-1.88,5-.38.57,1.81-3.1,4.09-4.45,4.77-1.93,1-5.07,1.73-1.86-1.6a17.49,17.49,0,0,1,4.42-3.32c4.76-2.49,1.74,1.45-.3,2.11a9.65,9.65,0,0,1-5,.3l-1.87-4.27c.18-2.37,4.59-4.46,6.49-5.29l-2.2-1.69a19.32,19.32,0,0,1-7.21,9.65l2.25,1.3c.64-5,4.53-7.75,8.32-10.35l-2.21-1.7A13.89,13.89,0,0,1,19.15,25l2.56,1.06A11.1,11.1,0,0,1,28,17l-2-2.05a34.65,34.65,0,0,1-3.64,6.62,16.94,16.94,0,0,1-2.67,3.18c-1.45,1.16-6,2.94-1.1-1.61L16,21.71c-.56,1.61-2.31,7.88-4.82,8.16l1.45,1.9a10,10,0,0,1,4.09-6l-2.25-1.3a10.59,10.59,0,0,1-2.55,6.62l2.5,1.46a9.86,9.86,0,0,1,2.56-5L14.43,26.5a19,19,0,0,1-1.64,8.15l2.74,1.16a29.22,29.22,0,0,1,4.15-8.73l-2.75-1.16c-.38,1.5-1.16,6.13-2.5,6.75-.35,1.13-.66,1-1-.4a31.27,31.27,0,0,1-.64-4.53A1.51,1.51,0,0,0,10,27,19.65,19.65,0,0,0,7.8,31.57l2.89.79a53.22,53.22,0,0,1,2-5.47l-2.9-.8a23.94,23.94,0,0,1-1.5,5.45l2.9.8,3.39-8.77c.57-1.46-1.51-2.45-2.51-1.46A7.46,7.46,0,0,0,9.83,26c-.4,1.59,2,2.74,2.74,1.16,1.22-2.53,3.39-4,5.3-5.91,2.73-2.77,4.47-7.45,9.09-7.54l-1.07-2.56c-4.92,4.06-12.14,4.62-13,12.08a1.51,1.51,0,0,0,2.56,1.06A55.56,55.56,0,0,1,30.28,11.51c3.2-2,6.68-4.26,10.35-5.24S48.09,5.73,51.74,6a52.82,52.82,0,0,1,20.88,6.23c6.26,3.37,11,8.73,15.68,14,1.29,1.45,3.38-.67,2.12-2.12L81.56,13.89,79.44,16a46.61,46.61,0,0,1,5.87,8.43l1.3-2.25c-2-.17-4.44-1.57-5.75.86s.66,9.08,1,11.88l2.8-.76c-1-2-3.62-3.14-4.23-5.25l-1.84,1.85a35.11,35.11,0,0,1,9.09,4,1.52,1.52,0,0,0,2.2-.9c1.42-3.82-4.31-7.1-6.89-8.9-1.61-1.12-3,1.44-1.51,2.59a21.3,21.3,0,0,1,5.36,6.06l2.35-1.82a49.56,49.56,0,0,0-8-6.3l-1.52,2.59a13.54,13.54,0,0,1,6,5.35L88,31.67a23.46,23.46,0,0,0-4.26-3.3c-1.41-.87-3.14,1.24-1.81,2.35a110.47,110.47,0,0,1,8.32,7.73,1.52,1.52,0,0,0,2.56-1.06,24.41,24.41,0,0,0-3.46-13.57C88.52,22.4,86,23.34,86.61,25l3.74,10,2.74-1.16A74,74,0,0,0,81.93,20L79.81,22.1a45.5,45.5,0,0,1,12.51,15l2.59-1.51h-.06l-1.85,1,.13.07,1.7-2.2-2.32-1.12A1.52,1.52,0,0,0,90,34.45L89,33.74c-.33-.78-1.35-1.55-2.21-.89l-1.23.51,1.9,1.45.38-1.3c1-1.49-1.14-2.86-2.36-1.82L82.29,34l-.35-2.74a11.38,11.38,0,0,1-11,1.65L72,34.79c.88-2.48,7.88-3.38,10.18-3.82,1.65-.32,1.29-3.08-.39-2.95a180.76,180.76,0,0,1-21.45.73l.4,2.95a83.12,83.12,0,0,1,17.94-2.83l-.4-2.94a113.27,113.27,0,0,1-17.77,2.58l.4,2.94a74.61,74.61,0,0,1,20-3.28l-.4-3a90.79,90.79,0,0,1-26.76,6.06l.76,2.79A39,39,0,0,1,66,30.93L65.57,28c-6.16,2.34-15.68,6.52-22.37,5.13l.66,2.51c2.19-2.16,6.1-2.75,9-3.57,3.14-.89,6.31-1.67,9.49-2.41l-.8-2.89L50.15,29.65c-3.67.94-8.36,2.94-12.19,2.49l.76,2.79a31,31,0,0,1,10-4.39l-.8-2.9a95.21,95.21,0,0,1-20.63,5.17l.8,2.89a117.73,117.73,0,0,1,12.54-2,1.5,1.5,0,0,0,0-3c-10.49-.67-21.13,1-28.61,9-1.13,1.2.33,3.3,1.82,2.35,7.58-4.81,16.72-5.17,25.09-7.87,1.53-.49,1.37-3.1-.4-2.95A178.73,178.73,0,0,0,16.1,34.61l.8,2.89,9.43-3.78c1.42-.57,1.44-3.1-.4-2.95-6.17.52-10.83,3.82-15.57,7.56l2.12,2.12a31.77,31.77,0,0,1,4.76-4.35l-1.82-2.35L10.76,38l2.5,1.46a41.49,41.49,0,0,0,1.16-6.92c.12-1.44-1.66-1.78-2.56-1.06A26.58,26.58,0,0,0,5,39.61L7.77,40l.08-.67-2.74-.36.19,1.34c.14,1,1.44,1.27,2.2.9L12,38.94l-1.52-2.59L8.16,37.7l1.15,2.74a10.1,10.1,0,0,1,5.29-1.18c-2.12-.31-1.69,1-2.81-1.08s.25-6.13.66-8.55c.22-1.32-1.44-2.72-2.51-1.46a27.25,27.25,0,0,0-6.33,13,1.52,1.52,0,0,0,1.44,1.9l12.25.07v-3L5.11,41.3c-1.91.18-1.93,3.18,0,3Z"/><rect class="cls-3" x="89" y="55" width="3" height="7"/><rect class="cls-3" x="29" y="69" width="4" height="5"/><rect class="cls-3" x="41" y="62" width="4" height="5"/><rect class="cls-3" x="64" y="58" width="4" height="10"/><rect class="cls-3" x="85" y="70" width="3" height="8"/><rect class="cls-3" x="77" y="67" width="3" height="9"/><rect class="cls-3" x="69" y="66" width="4" height="14"/><rect class="cls-3" x="61" y="61" width="3" height="16"/><rect class="cls-3" x="54" y="64" width="3" height="12"/><rect class="cls-3" x="44" y="63" width="4" height="13"/><rect class="cls-3" x="36" y="64" width="5" height="10"/><rect class="cls-3" x="25" y="69" width="5" height="14"/><rect class="cls-3" x="15" y="67" width="5" height="10"/><rect class="cls-3" x="9" y="65" width="3" height="11"/><rect class="cls-3" x="47" y="66.5" width="4" height="12.5"/><ellipse class="cls-4" cx="27.5" cy="48.5" rx="21.5" ry="7.5"/><ellipse class="cls-4" cx="60.5" cy="37.5" rx="22.5" ry="7.5"/><ellipse class="cls-4" cx="53" cy="50" rx="12" ry="8"/><ellipse class="cls-4" cx="64" cy="56" rx="25" ry="7"/><ellipse class="cls-4" cx="81" cy="45.5" rx="17" ry="8.5"/><ellipse class="cls-4" cx="25.5" cy="60" rx="19.5" ry="9"/><ellipse class="cls-4" cx="11" cy="49" rx="9" ry="6"/><ellipse class="cls-4" cx="9.5" cy="55.5" rx="6.5" ry="4.5"/><ellipse class="cls-4" cx="25.5" cy="39" rx="11.5" ry="5"/><ellipse class="cls-4" cx="32.5" cy="47.5" rx="9.5" ry="5.5"/><ellipse class="cls-4" cx="45" cy="38" rx="10" ry="5"/><ellipse class="cls-4" cx="55" cy="49" rx="8" ry="5"/><ellipse class="cls-4" cx="40.5" cy="56.5" rx="8.5" ry="4.5"/><ellipse class="cls-4" cx="32.5" cy="56" rx="9.5" ry="7"/><ellipse class="cls-4" cx="87.5" cy="52.5" rx="10.5" ry="3.5"/><ellipse class="cls-4" cx="79" cy="62.5" rx="12" ry="4.5"/><ellipse class="cls-4" cx="85" cy="68" rx="8" ry="4"/><ellipse class="cls-4" cx="59.5" cy="60" rx="6.5" ry="6"/><ellipse class="cls-4" cx="49" cy="61" rx="7" ry="6"/><ellipse class="cls-4" cx="24" cy="65" rx="11" ry="8"/><ellipse class="cls-4" cx="73" cy="33" rx="12" ry="5"/><ellipse class="cls-4" cx="85.5" cy="41.5" rx="10.5" ry="5.5"/></g><g id="Layer_1" data-name="Layer 1"><path d="M50,4A46,46,0,1,1,4,50,46.06,46.06,0,0,1,50,4m0-4a50,50,0,1,0,50,50A50,50,0,0,0,50,0Z"/></g></svg>