<svg xmlns="http://www.w3.org/2000/svg" viewBox="0 0 100 100"><defs><style>.cls-1{fill:#9effff;}.cls-2{fill:blue;}.cls-3{fill:#3fa9f5;}.cls-4,.cls-5,.cls-6{fill:none;stroke-miterlimit:10;}.cls-4{stroke:#9effff;}.cls-4,.cls-6{fill-rule:evenodd;}.cls-5,.cls-6{stroke:#000;}</style></defs><title>Glacier</title><g id="Layer_3" data-name="Layer 3"><path class="cls-1" d="M9,38.57a40.28,40.28,0,0,1,5-10.5c1-1.47-1.14-2.95-2.35-1.82-3.37,3.14-5.19,7.09-6.94,11.28-.59,1.39,1.56,2.54,2.5,1.46a50.07,50.07,0,0,0,8.5-13.32c.55-1.29-.65-2.89-2.06-2.06A13.31,13.31,0,0,0,8,29.69l2.8.76c.44-5,5.92-7.29,9-10.47a1.5,1.5,0,0,0-2.12-2.12L14,21.49l2.56,1.06c.62-4.72,10.18-9.49,14.08-11.38C37.07,8.05,44,7,51.12,6.8l-.4-2.95c-7.45,1.73-15.53,0-22.19,4.54-1.35.91-.55,3.24,1.16,2.74,13-3.85,25.22-8,38.24-1.77a47.89,47.89,0,0,1,22.16,22.2L92.69,30a50.44,50.44,0,0,1-3.45-7.23c-.68-1.76-3.39-1.11-2.9.8,1.48,5.64,6.17,9.28,7.2,15.27,1.11,6.52-.11,13.22.57,19.79l3-.4L90.47,38.62l-2.74,1.16a59.06,59.06,0,0,1,6,10.88c.7,1.64,3.06.41,2.74-1.16L92.8,31.13c-.34-1.65-3-1.29-3,.4.16,3.35.48,6.66.94,10l2.9-.79c-1.44-4.9-2.51-10.09-5.22-14.49-2.29-3.71-5.73-6.44-9.32-8.82-8.57-5.66-18.41-9.09-28.74-8.83l.4,2.94a17.62,17.62,0,0,1,12.31-.14c1.61.55,2.63-1.92,1.15-2.74A30.18,30.18,0,0,0,51.43,4.89C50,4.8,49.61,6.54,50.36,7.45,52.54,10.09,56,9.3,59.09,9.63a26.44,26.44,0,0,1,15.74,7.64l1.81-2.35L56.31,4.1,55.15,6.84l15.37,5.77c1.59.6,2.66-2,1.16-2.74A68.77,68.77,0,0,0,65.1,7C63.38,6.32,62.71,8.78,64,9.71a54.82,54.82,0,0,0,7.83,4.42,30.83,30.83,0,0,1,9.16,7.7A41.56,41.56,0,0,1,91.07,43.1l2.51-1.46L80.65,29.71a1.5,1.5,0,0,0-2.12,2.12,58.41,58.41,0,0,0,9.08,7.68c1.19.82,2.39-.53,2.2-1.7a36.46,36.46,0,0,0-2.4-8.33l-2.74,1.15,4.21,7.61,2.59-1.52c-4-6.73-8-13.31-13.62-18.83a1.5,1.5,0,0,0-2.35,1.82A76,76,0,0,0,82.33,31l2.36-1.82a62,62,0,0,0-20-14.25c-6.89-3-14.44-6.16-22-7-2-.24-14.14-1.83-12,3.47C32.55,16,44.42,12.92,47.81,12A1.5,1.5,0,0,0,47,9.1l-5.12,1.29,1.16,2.74,8.3-3.78c1.61-.74.42-3.09-1.16-2.75A87.8,87.8,0,0,1,37.57,8.42l.4,2.95A64.84,64.84,0,0,1,47,8.75L45.88,6c-9.52,4.85-23.63,10.59-26.7,22a1.51,1.51,0,0,0,2.5,1.46Q29.2,23.53,36.14,17c1.44-1.36-.65-3.27-2.13-2.12A129.89,129.89,0,0,0,11.72,37.1l2.36,1.82L29.65,14.31c.77-1.21-.82-3-2-2.05l-5.14,3.82c-1.51,1.13-.09,3.7,1.52,2.59a53.71,53.71,0,0,1,12.88-6.6L35.4,9.56a30.35,30.35,0,0,1-10,6.93l2.21,1.69a18.67,18.67,0,0,1,3.24-6.6c.89-1.18-.86-2.9-2.05-2.05a45.27,45.27,0,0,0-17.54,25c-.53,1.9,2.21,2.56,2.89.8a33,33,0,0,1,11.61-15l-2.05-2.06L13,33.72l2.75,1.15,4.52-13c.45-1.31-1.12-2.25-2.21-1.69-10.32,5.33-11,17.29-9.68,27.54.2,1.59,2.43,2.15,3,.4l3.92-13.35c.55-1.88-2.24-2.58-2.9-.79A59.7,59.7,0,0,0,9,48.14h3a31.69,31.69,0,0,1,2.8-16.67L12,30.32l-3.68,17,2.9.8c.63-3.8,2.14-10.67-1.51-13.25a1.5,1.5,0,0,0-1.52,0c-5.07,2.46-6.91,9.44-6.51,14.59.1,1.34,2.1,2.22,2.79.76A63.69,63.69,0,0,0,9.06,37.47l-2.89-.8A108,108,0,0,0,4.5,51.78a1.51,1.51,0,0,0,3,.4A37.93,37.93,0,0,0,8.72,39.86c-.09-1.59-2.65-2.16-3-.4a105.11,105.11,0,0,0-1.5,19c0,2,2.81,1.88,3,0a47.69,47.69,0,0,0,.1-9,1.5,1.5,0,0,0-3,0,40.53,40.53,0,0,0,1,10.76c.36,1.61,3.15,1.3,2.94-.4a47.14,47.14,0,0,0-2-9.23,1.5,1.5,0,0,0-2.94.4A54.88,54.88,0,0,0,3,58.33H6l-.3-7.26-2.94.4A172.08,172.08,0,0,0,7.85,69.73c.43,1.27,2.62,1.57,2.9,0A18.68,18.68,0,0,0,10,60l-2.9.8a181.39,181.39,0,0,0,7.57,17.76l2.36-1.82A29.54,29.54,0,0,1,12.46,69a1.51,1.51,0,0,0-2.9.8A27.76,27.76,0,0,0,12,77.15l2.59-1.51L8.41,67.12c-1.12-1.55-3.72-.06-2.59,1.51a91.55,91.55,0,0,0,8.92,10.64A1.53,1.53,0,0,0,17.1,79c.78-1.1.56-1.49.54-2.77,0-.47-.53-.93-.55-1.4-.19-4,1.88-4.7,4.63-5.7l-1.9-1.45A12.67,12.67,0,0,1,16.88,75c-1.19,1.47.81,3.59,2.12,2.12a79.8,79.8,0,0,0,6.72-8.6c.89-1.33-.81-2.69-2-2.06a59.58,59.58,0,0,0-10.38,6.82c-1.4,1.14.39,3,1.82,2.36l19.52-9.42c1.61-.77.42-3.06-1.16-2.74a111.27,111.27,0,0,0-16,4.53c-1.8.65-1,3.55.79,2.89a171.59,171.59,0,0,0,18.85-8.13c1.76-.88.22-3.33-1.51-2.59q-10,4.29-20.18,7.93l1.16,2.74A179,179,0,0,0,35,61.41c1.21-.7.78-2.94-.76-2.79A72,72,0,0,0,8.11,66.28l1.51,2.59a97.58,97.58,0,0,1,9.15-5.26l-2.05-2-3.45,8A1.52,1.52,0,0,0,15,71.79a9,9,0,0,0,5.71-3.86,1.51,1.51,0,0,0-.89-2.21A12.46,12.46,0,0,0,9.6,67.21a1.52,1.52,0,0,0,.76,2.8,21.43,21.43,0,0,0,10.52-1.17c1.24-.45,1.61-2.64,0-2.89-2.06-.32-4.07-.54-6.16-.66l.76,2.8,6.32-4.57L20,61.17,14.5,67.52c-.89,1-.07,3,1.46,2.51a21.76,21.76,0,0,0,10.86-8.2c.85-1.2-.55-2.38-1.69-2.21-3.44.53-5.32,2.88-5.7,6.25a1.52,1.52,0,0,0,1.5,1.5,17.13,17.13,0,0,0,13.39-5.62,1.52,1.52,0,0,0-1.06-2.56c-2.2-.22-23.1-2.34-23.5-.46l-2.95-.4a18.66,18.66,0,0,0,1.66,6.56c.61,1.36,2.89.68,2.8-.75C11,60.4,10.65,56.7,10.16,53l-2.79.75a51.63,51.63,0,0,0,7.51,12.43c1,1.18,2.93-.1,2.51-1.46A90,90,0,0,0,9.73,46.86a1.51,1.51,0,0,0-2.79.76,32.92,32.92,0,0,0,6.15,17.55c.78,1.09,2.93.87,2.8-.76a55.42,55.42,0,0,0-4.57-18.15c-.63-1.44-2.78-.62-2.8.75a47.64,47.64,0,0,0,4.36,20.65,1.51,1.51,0,0,0,2.79-.76,64.79,64.79,0,0,0-4.62-19,1.51,1.51,0,0,0-3,.4,24.3,24.3,0,0,0,4.11,17.1c.63.94,2.54,1,2.74-.36A86.1,86.1,0,0,0,15,40.8c-.23-1.66-3.09-1.29-2.95.39L13.65,59.8c.16,1.9,3.11,2,3,0A130.24,130.24,0,0,0,14,40.14c-.35-1.64-3.09-1.3-2.95.4A101.1,101.1,0,0,0,14.25,59a1.5,1.5,0,0,0,2.89-.8q-2.06-8.79-3.25-17.74a1.5,1.5,0,0,0-3,0,43.91,43.91,0,0,0-.06,7.07c.14,1.91,3.14,1.93,3,0a43.91,43.91,0,0,1,.06-7.07h-3Q12.12,49.79,14.25,59l2.89-.8a96.69,96.69,0,0,1-3.07-17.63l-3,.4A123.51,123.51,0,0,1,13.65,59.8h3L15,41.19l-2.94.4a81.2,81.2,0,0,1,0,22.67l2.74-.35a21.91,21.91,0,0,1-3.7-15.59l-2.94.4A62.33,62.33,0,0,1,12.67,66.9l2.8-.76a44.22,44.22,0,0,1-4-19.13l-2.79.76a51,51,0,0,1,4.16,16.64l2.79-.75a30.14,30.14,0,0,1-5.74-16l-2.8.76A86.18,86.18,0,0,1,14.5,65.51L17,64.05a49.1,49.1,0,0,1-7-11.82c-.57-1.34-3-.69-2.8.76C7.65,56.7,8,60.4,8.27,64.14l2.79-.76a11.52,11.52,0,0,1-1.25-5.05c-.11-1.59-2.57-2.15-2.94-.4-.76,3.55,2.64,3.55,5.32,3.49a172.29,172.29,0,0,1,21.07.77L32.2,59.63a14.2,14.2,0,0,1-11.27,4.74l1.5,1.5,3.5-3.36-1.7-2.2a18.27,18.27,0,0,1-9.06,6.83l1.45,2.51,5.48-6.36c1-1.2-.35-3.42-1.82-2.36L14,65.5a1.51,1.51,0,0,0,.75,2.79,37,37,0,0,1,5.36.55V66A20.12,20.12,0,0,1,10.36,67l.75,2.79A9.23,9.23,0,0,1,19,68.62l-.9-2.21L14.16,68.9l1.7,2.2,3.45-8a1.51,1.51,0,0,0-2-2,96.32,96.32,0,0,0-9.15,5.26,1.5,1.5,0,0,0,1.51,2.59,68,68,0,0,1,24.62-7.25l-.75-2.8A178.17,178.17,0,0,1,15,68.26c-1.54.69-.44,3.32,1.16,2.75q10.57-3.8,20.89-8.24l-1.51-2.59A166.83,166.83,0,0,1,17.44,68l.79,2.89a113.07,113.07,0,0,1,16-4.53l-1.16-2.74L13.6,73.05l1.81,2.35a55.41,55.41,0,0,1,9.77-6.34L23.13,67a74.41,74.41,0,0,1-6.25,8L19,77.12a16.45,16.45,0,0,0,3.82-9.47,1.5,1.5,0,0,0-1.89-1.44c-2.34.85-4.85,1.78-6.26,4a6.19,6.19,0,0,0-1,3.14c0,.65,1,3.86.86,4.13l2.35-.3a86.07,86.07,0,0,1-8.45-10L5.82,68.63,12,77.15a1.5,1.5,0,0,0,2.59-1.51A24.2,24.2,0,0,1,12.46,69l-2.9.8a35.2,35.2,0,0,0,5.37,9.07c1.13,1.39,3.06-.38,2.35-1.82A175.18,175.18,0,0,1,10,60c-.66-1.79-3.54-1-2.9.8a15.2,15.2,0,0,1,.73,8.15h2.9A169.78,169.78,0,0,1,5.66,50.67a1.51,1.51,0,0,0-2.95.4L3,58.33c.08,1.93,3,1.94,3,0A54.88,54.88,0,0,1,6.35,51l-2.95.4A42.59,42.59,0,0,1,5.33,59.8l2.95-.4a37.52,37.52,0,0,1-.91-10h-3a48.53,48.53,0,0,1-.1,9h3a99.94,99.94,0,0,1,1.4-18.2l-2.95-.4A35.82,35.82,0,0,1,4.56,51.38l2.94.4A102.66,102.66,0,0,1,9.06,37.47c.34-1.87-2.44-2.7-2.89-.8a59.92,59.92,0,0,1-4.25,12l2.8.76c-.23-2.9,0-7.83,2.61-9.79,1.45-1.09,1.24-1,1.51,1.34a23.38,23.38,0,0,1-.48,6.31c-.31,1.87,2.48,2.71,2.9.8l3.68-17c.34-1.57-2-2.79-2.74-1.16A34.45,34.45,0,0,0,9,48.14a1.5,1.5,0,0,0,3,0,56.26,56.26,0,0,1,3.24-13.4L12.33,34,8.41,47.3l2.95.39c-1.16-9.14-1.2-20.1,8.2-24.95L17.35,21l-4.52,13c-.59,1.7,1.83,2.47,2.74,1.15L26.34,19.76c.83-1.21-.85-2.93-2.06-2.06a36.59,36.59,0,0,0-13,16.83l2.89.8A42.15,42.15,0,0,1,30.35,12.12l-2.05-2a20.67,20.67,0,0,0-3.55,7.32A1.52,1.52,0,0,0,27,19.08a32.88,32.88,0,0,0,10.56-7.39c1-1,0-3-1.45-2.51a57,57,0,0,0-13.61,6.9L24,18.67l5.13-3.82-2.05-2L11.48,37.41c-.89,1.41,1.3,3.17,2.36,1.81A130,130,0,0,1,36.14,17L34,14.87q-6.94,6.54-14.45,12.44l2.51,1.46C24.86,18.44,38.71,13,47.4,8.59c1.57-.8.43-3.08-1.16-2.74a66.26,66.26,0,0,0-9.07,2.63c-1.47.54-1.41,3.07.4,2.94A93.28,93.28,0,0,0,51,9.5L49.83,6.76l-8.3,3.78c-1.58.73-.44,3.15,1.16,2.74L47.81,12,47,9.1a33.85,33.85,0,0,1-9,1.33c-4.55,0-2.07.1.52.14,6.31.1,11.38,2.13,17.16,4.29,10.38,3.87,19.12,8.24,26.88,16.43,1.14,1.2,3.38-.42,2.36-1.82a75.31,75.31,0,0,1-6.84-11.28L75.73,20C81.14,25.34,85,31.74,88.88,38.24a1.5,1.5,0,0,0,2.59-1.52l-4.21-7.6c-.8-1.44-3.41-.44-2.74,1.16a36.75,36.75,0,0,1,2.4,8.33l2.2-1.69a55,55,0,0,1-8.47-7.21l-2.12,2.12L91.45,43.76A1.51,1.51,0,0,0,94,42.3,42.52,42.52,0,0,0,84.16,21a38.45,38.45,0,0,0-8.25-8c-3.37-2.21-7.2-3.46-10.45-5.9L64.31,9.86a62.33,62.33,0,0,1,5.85,2.6l1.16-2.74L56,3.94c-1.59-.6-2.64,1.95-1.15,2.75L75.13,17.51A1.51,1.51,0,0,0,77,15.15,30.46,30.46,0,0,0,66.54,8.34,28.26,28.26,0,0,0,59.7,6.67c-2-.23-5.77.41-7.21-1.34L51.43,7.89a26.47,26.47,0,0,1,11.33,3.33l1.16-2.74A20.28,20.28,0,0,0,50,8.62c-1.51.55-1.39,3,.4,3,9.27-.23,18,2.63,25.79,7.5,4,2.47,7.71,5.27,10.08,9.39s3.23,8.67,4.51,13c.56,1.91,3.16,1.06,2.9-.79-.43-3.06-.7-6.1-.84-9.18l-2.95.4L93.63,50.3l2.74-1.15a58.42,58.42,0,0,0-6.05-10.88C89.4,37,87,37.7,87.58,39.42l6.59,19.65c.5,1.5,3.13,1.37,2.94-.4-.65-6.34.34-12.72-.46-19a23.94,23.94,0,0,0-2.21-7.78c-1.6-3.18-4.28-5.49-5.2-9l-2.9.8a57.08,57.08,0,0,0,3.75,8c1,1.69,3.45.2,2.6-1.52A50.63,50.63,0,0,0,68.07,6.13c-13.46-6-25.78-1.86-39.18,2.1L30.05,11c6.3-4.25,14.37-2.59,21.47-4.24a1.5,1.5,0,0,0-.4-2.94c-8.47.26-16.77,1.72-24.21,6-4.84,2.77-12.53,6.65-13.34,12.79-.17,1.35,1.73,1.9,2.56,1.06L19.76,20l-2.12-2.12c-4,4.14-9.29,6.32-9.84,12.59a1.51,1.51,0,0,0,2.79.75,10.66,10.66,0,0,1,4.53-5l-2.06-2.05A47.45,47.45,0,0,1,5,36.87l2.51,1.46c1.56-3.74,3.16-7.14,6.17-10l-2.36-1.82A43.14,43.14,0,0,0,6.08,37.77c-.56,1.85,2.33,2.64,2.9.8Z"/><path class="cls-1" d="M14.38,32.65A98,98,0,0,0,9.89,52.59c-.2,1.67,2.71,2.08,2.95.4A187.75,187.75,0,0,1,17,30.41L14.09,30l.61,25.11a1.5,1.5,0,0,0,3,0l2.21-24c.18-1.94-2.77-1.88-3,0-1.25,10.45-2.27,20.83-.8,31.31.23,1.64,2.42,1.18,2.9,0,4-10.12,4.29-22.58,5.19-33.33.14-1.71-2.52-2-2.95-.4-2.84,10.58-5.5,21.17-5.58,32.18,0,1.64,2.71,2.12,3,.4a349,349,0,0,0,3-34.77c.07-2-2.82-1.89-3,0-.95,10.29-1.81,20.57-1.3,30.91.08,1.61,2.59,2.14,2.94.4L27,24.48l-2.94-.4c.21,7.57-1.87,15.42-2.65,23-.66,6.44-2,13.73-.5,20.12.42,1.77,2.78,1.17,2.95-.4l4.27-38.39c.19-1.66-2.71-2.07-2.94-.4-1.6,11.63-3.08,23.26-1.92,35a1.5,1.5,0,0,0,3,0l3.83-38.79c.16-1.66-2.72-2.07-2.95-.4C25.49,35.88,23.89,48,24,60.15a1.5,1.5,0,0,0,3,0l3.19-42.58h-3c1.07,11.85-2,23.61-.51,35.45a1.5,1.5,0,0,0,3,0c1.72-13.57,3.53-27.13,6.86-40.42l-2.89-.8a64.7,64.7,0,0,1-5.57,14.93,1.5,1.5,0,0,0,2.59,1.52L40.3,14c1.08-1.61-1.51-3.1-2.59-1.52A104,104,0,0,1,28.61,24L31,25.77c3.31-4.91,6.67-9.69,11.71-13l-2-2.06A82.21,82.21,0,0,1,34.27,21c-.94,1.28.84,2.7,2,2.05l16-8.6L50.8,11.83l-13.15,8,1.51,2.59L51.56,13c1.25-1,.61-3.26-1.16-2.75a73.11,73.11,0,0,0-14.69,6.1c-1.73,1-.21,3.34,1.52,2.59,3.81-1.64,7.53-3.44,11.19-5.4,1.47-.79.46-3.33-1.16-2.74a55.79,55.79,0,0,0-12.17,6.13c-1.13.76-.84,2.93.76,2.8l14.72-1.26-1.3-2.25c-1.16,2.43-8.49,3.63-10.73,4.4a44.49,44.49,0,0,0-8.6,3.85,1.51,1.51,0,0,0,1.16,2.74Q45.44,23,59.53,18a1.5,1.5,0,0,0-.8-2.89,117.45,117.45,0,0,0-22.27,6.09,1.51,1.51,0,0,0,.8,2.9A53.65,53.65,0,0,0,55.47,17a1.52,1.52,0,0,0-.76-2.8,26.68,26.68,0,0,0-10.07,1.3,1.5,1.5,0,0,0,.4,2.94,35,35,0,0,0,14.77-2,1.52,1.52,0,0,0,.66-2.51,7.07,7.07,0,0,0-8.37-1.42c-1.24.54-.78,2.43.36,2.74L70.7,20.34a1.51,1.51,0,0,0,1.46-2.51C68.47,14,63.48,12.36,59.23,9.34c-1.41-1-3,1.18-1.82,2.35L68.7,22.84a1.52,1.52,0,0,0,2.56-1.06c-.19-5.86-4-9.46-8.53-12.62-1.45-1-2.94,1.15-1.82,2.35a100.3,100.3,0,0,0,16,13.85,1.51,1.51,0,0,0,2.21-1.69c-1.48-4.35-4.19-7.58-7.43-10.77-1.41-1.39-3.27.64-2.12,2.12q4.92,6.33,10.1,12.44c1.26,1.49,3.3-.64,2.12-2.12a48.49,48.49,0,0,0-10.09-9.47c-1.51-1.06-2.8,1.14-1.82,2.36q7.44,9.27,15.07,18.4a1.51,1.51,0,0,0,2.56-1.06c-.53-5-6-9.24-9.13-12.9-1.18-1.38-3,.38-2.35,1.82a76.89,76.89,0,0,0,8.67,14.3L87,37A61.31,61.31,0,0,0,61.67,20.21,1.51,1.51,0,0,0,60,22.41c4,6.36,13.3,10.15,19.74,13.53l1.52-2.59a79,79,0,0,0-19.83-6.28,1.51,1.51,0,0,0-.8,2.9,54.79,54.79,0,0,0,18.81,3.62,1.51,1.51,0,0,0,.76-2.8c-5.14-2.56-11-2.67-16.12-5.28l-.36,2.74L82,25.33c1.55-.25,1.29-2.49,0-2.89a18.89,18.89,0,0,0-12.78.32,1.52,1.52,0,0,0-.36,2.74,79.75,79.75,0,0,0,7.94,4.27l.75-2.8a23.49,23.49,0,0,1-6.51-.87c-1.34-.37-2.69,1.55-1.46,2.51A15.23,15.23,0,0,0,78.88,32a1.52,1.52,0,0,0,1.3-2.26c-2.08-4.15-5.49-6.89-9.16-9.59L69.5,22.77l9.26,6.52,1.52-2.59A178.19,178.19,0,0,0,59.65,19c-1.88-.58-2.56,2.2-.8,2.89a55.32,55.32,0,0,0,12.39,3.25c1.58.22,2.75-1.81,1.16-2.74a36.23,36.23,0,0,0-14.68-4.83c-1.84-.21-1.8,2.35-.4,2.94a44.93,44.93,0,0,0,13.23,3.3c1.79.17,1.9-2.41.4-2.95C65.8,19,60.48,18.33,55.07,17.75v3a57.41,57.41,0,0,0,12.08-.24,1.5,1.5,0,0,0,0-3,87.92,87.92,0,0,0-13.67.43l.76,2.8a84.66,84.66,0,0,1,7.94-3.91l-1.51-2.59c-8.48,5.91-19,8.56-26.11,16.37a1.5,1.5,0,0,0,2.12,2.12Q45.62,24.9,55.24,18a1.5,1.5,0,0,0-1.52-2.59c-9.47,4.92-18.83,10-26.94,17L28.9,34.5A122.21,122.21,0,0,1,43.12,21.14l-2.56-1.06c.22,2.37-4.81,6.79-6.25,8.45C32.19,31,30,33.32,27.8,35.65l2.36,1.82c2.94-4.65,6.07-9.15,9.45-13.49l-2.35-1.82c-3.2,5.42-9.56,15.1-6.27,21.47a1.51,1.51,0,0,0,2.05.54c8.78-5.63,13.19-15.34,20.61-22.39L51.29,20A66.69,66.69,0,0,1,28,43.79l2,2.05c3.85-7.42,11-14.16,16.28-20.63,1.2-1.47-.69-3.48-2.12-2.12A94.3,94.3,0,0,0,33.76,34.67c-2.37,3.12-5.87,6.75-5.31,10.91.16,1.18,1.58,2.11,2.56,1.06a139.07,139.07,0,0,0,17.57-23.4,1.5,1.5,0,0,0-2.35-1.82A177.39,177.39,0,0,0,33.36,34c-2.73,3.05-6.25,6.38-6.13,10.74a1.52,1.52,0,0,0,1.89,1.45c4.7-.68,9.07-6.24,12.58-9.19L57,24.16c1.29-1.08-.43-3.35-1.82-2.35-7.88,5.66-16,11.08-23.52,17.27-1.34,1.11.37,3.18,1.82,2.36a180.4,180.4,0,0,0,17-11c3.46-2.54,8-5.06,9.49-9.31a1.52,1.52,0,0,0-1.45-1.9,18.67,18.67,0,0,0-14.4,5.39,1.52,1.52,0,0,0,.66,2.51C51.16,29,59,26.4,64.93,24.07a1.51,1.51,0,0,0-.4-2.95A43.68,43.68,0,0,0,48.3,22.88c-1.54.46-1.35,3.14.4,2.94,5.43-.62,10.82-1.45,16.18-2.53,1.66-.33,1.28-3-.4-2.94a81.17,81.17,0,0,0-16.05,2.2c-2.9.71-6.47,1-7.58,4.16A1.51,1.51,0,0,0,42.3,28.6a39.37,39.37,0,0,0,22.36-5.79,1.51,1.51,0,0,0-.75-2.8c-4.68,0-19.09,1.92-18.57,8.83a1.52,1.52,0,0,0,1.1,1.45,60,60,0,0,0,22.77-1.14,1.5,1.5,0,0,0-.39-2.94,127.59,127.59,0,0,0-23.33,2.13c-1.65.31-1.29,3.1.4,2.95a124,124,0,0,0,27.67-5.68c1.54-.5,1.36-3-.4-2.95C65.55,23,58.24,24.8,50.9,26.77l.8,2.89A66.41,66.41,0,0,1,68,26.54l-.75-2.79c-6.75,4.85-15.72,7.54-23.3,10.87l1.51,2.59,15.64-8-1.52-2.59c-8.44,4.69-18.29,9.22-25.18,16.12A1.51,1.51,0,0,0,36.2,45.1c7.23-4,12.41-10.15,17.45-16.53L51.3,26.76c-5,6.75-11.88,11.8-15.82,19.32l2.59,1.52A131.05,131.05,0,0,1,51,26.5L48.43,25c-3.47,4.69-6.94,9.4-10.14,14.28-2.4,3.66-5.17,7.3-5.53,11.77-.13,1.56,2.06,1.94,2.79.76q6-9.7,11.72-19.63c.82-1.44-1.19-3.11-2.36-1.82C37.48,38.52,30.16,46.81,25.65,57c-.77,1.72,1.6,3.23,2.59,1.51L39.45,38.93a1.5,1.5,0,0,0-2.59-1.51c-4.2,7.27-8.06,14.5-9,23-.21,1.8,2.4,1.86,3,.4a105.41,105.41,0,0,0,6.11-25.56c.17-1.53-2.11-2-2.8-.75a62.33,62.33,0,0,0-8,24.86A1.5,1.5,0,0,0,28,60.77c2.95-1,3.76-3.92,4.78-6.66A60,60,0,0,0,36,39.38c.17-1.6-2-1.88-2.79-.76-3.67,5.5-11,17.55-5.94,23.85a1.54,1.54,0,0,0,1.82.24c3.26-1.42,4.55-4.85,5.91-7.94,1.78-4.05,3.2-8.24,4.61-12.43.53-1.58-2-2.71-2.75-1.15-2.68,6-7.18,13.68-6.89,20.36a1.52,1.52,0,0,0,2.56,1.06C39,56.79,42.72,46.81,46.19,39c.77-1.73-1.57-3.2-2.59-1.51C39.05,45,34.68,52.61,32.76,61.27c-.35,1.58,1.94,2.75,2.74,1.15Q42,49.36,47.64,35.88c.68-1.62-1.87-2.53-2.74-1.16-4.66,7.43-11.17,16.72-11.55,25.75-.07,1.61,2,1.87,2.79.75,5.5-7.63,9.07-17.15,13.26-25.55.86-1.72-1.68-3.24-2.59-1.52-3.84,7.27-7.52,14.54-9,22.71-.27,1.56,1.9,2.78,2.74,1.16L52.46,35.24a1.5,1.5,0,0,0-2.59-1.52c-4.44,7.52-8.71,15.07-11,23.54-.44,1.59,2,2.73,2.74,1.15a166.32,166.32,0,0,0,6.87-17A1.5,1.5,0,0,0,46,40,244.19,244.19,0,0,0,26.9,63.74l2.59,1.51,9-13.72L35.9,50,28,66.4a1.5,1.5,0,0,0,2.59,1.52,237.82,237.82,0,0,1,15.7-20.48L43.74,46l-.3,1.8c-.33,1.89,2.56,2.7,2.89.8l.3-1.8c.23-1.33-1.42-2.71-2.5-1.46A244.72,244.72,0,0,0,28,66.4l2.59,1.52,7.94-16.39A1.5,1.5,0,0,0,35.9,50l-9,13.72c-1.07,1.63,1.49,3.07,2.59,1.51A236.08,236.08,0,0,1,48.07,42.11l-2.51-1.46A160.9,160.9,0,0,1,39,56.9l2.74,1.15C44,49.83,48.15,42.53,52.46,35.24l-2.59-1.52L38,56.5l2.74,1.16c1.39-7.91,4.93-15,8.65-22l-2.59-1.52c-4.19,8.41-7.76,17.93-13.26,25.56l2.8.76c.34-8.23,6.86-17.42,11.14-24.23l-2.74-1.16Q39.28,48.21,32.91,60.91l2.74,1.16c1.87-8.43,6.12-15.73,10.54-23L43.6,37.52c-3.31,7.43-7,17.43-13.15,23L33,61.55c-.26-6,4.1-13.52,6.49-18.85l-2.75-1.15c-1,3-2,6-3.15,8.89s-2.65,8.23-6,9.68l1.81.23c-2.12-2.66.69-8.91,1.75-11.54a47.71,47.71,0,0,1,4.66-8.68L33,39.38a56.33,56.33,0,0,1-1.76,9.55c-.62,2.24-1.75,8.16-4.1,9l1.9,1.45A58.72,58.72,0,0,1,36.66,36l-2.79-.76a101.9,101.9,0,0,1-6,24.76l2.95.4c.92-7.87,4.74-14.7,8.64-21.45l-2.59-1.51L25.65,57l2.59,1.51c4.41-10,11.53-18,18.79-26l-2.35-1.81Q39,40.58,33,50.29l2.8.75c.38-4.71,4.59-9.55,7.17-13.32S48.28,30.21,51,26.5c1.15-1.56-1.45-3-2.59-1.51a131,131,0,0,0-13,21.09c-.84,1.72,1.69,3.24,2.59,1.52C42,40.11,48.94,35,53.89,28.27c1-1.36-1.3-3.15-2.36-1.82-4.88,6.18-9.83,12.22-16.85,16.06l1.82,2.35c6.67-6.68,16.38-11.1,24.58-15.65,1.69-.95.19-3.47-1.52-2.59l-15.63,8c-1.75.89-.21,3.34,1.51,2.59,7.59-3.33,16.56-6,23.3-10.87,1.1-.79.87-2.9-.76-2.8A69,69,0,0,0,50.9,26.77a1.5,1.5,0,0,0,.8,2.89c7.08-1.9,14.11-3.67,21.46-4l-.4-2.94a120.79,120.79,0,0,1-26.87,5.57l.4,2.95a122.44,122.44,0,0,1,22.53-2l-.4-2.95A56.23,56.23,0,0,1,47.23,27.4l1.11,1.44c-.18-2.29,6.32-4.32,7.71-4.75A27.82,27.82,0,0,1,63.91,23l-.76-2.8A36.38,36.38,0,0,1,42.3,25.6l1.44,1.9c.68-1.89,7.45-2.54,9.12-2.86a76.94,76.94,0,0,1,11.62-1.29l-.4-3c-5.1,1-10.21,1.83-15.38,2.42l.4,2.95a41.52,41.52,0,0,1,15.43-1.65l-.4-2.94c-5.45,2.12-12.73,4.74-18.57,3.06l.66,2.5A15.67,15.67,0,0,1,58.5,22.23l-1.44-1.9c-1.56,4.59-8.83,8.12-12.63,10.72-4.06,2.78-8.24,5.36-12.52,7.8l1.82,2.35C41,35.18,49,29.91,56.65,24.4L54.83,22,42.63,32.29l-6.1,5.13c-2.14,1.8-5.39,5.45-8.2,5.86l1.9,1.44c-.12-4.47,5.85-9.39,8.77-12.35s6.18-5.94,9.35-8.83L46,21.72a135.75,135.75,0,0,1-17.1,22.8l2.56,1.06c-.53-4,5-9.65,7.22-12.29a96.22,96.22,0,0,1,7.69-8.08l-2.12-2.12L34.8,34.69c-2.52,3.09-5.46,6.08-7.31,9.64a1.51,1.51,0,0,0,2.05,2.05,70,70,0,0,0,24.34-24.9,1.5,1.5,0,0,0-2.35-1.82c-7.2,6.84-11.5,16.46-20,21.92l2,.54c-2.49-4.84,3.8-14.26,6.27-18.45.84-1.41-1.29-3.19-2.36-1.81Q32.2,28.67,27.57,36a1.51,1.51,0,0,0,2.35,1.82c3.22-3.4,6.35-6.87,9.36-10.46C41,25.24,43.83,23,43.56,20.08A1.52,1.52,0,0,0,41,19,121.33,121.33,0,0,0,26.78,32.37,1.5,1.5,0,0,0,28.9,34.5C36.81,27.64,46,22.76,55.24,18l-1.52-2.59q-9.94,7.17-19.16,15.24l2.12,2.12c6.92-7.59,17.26-10.15,25.5-15.9a1.5,1.5,0,0,0-1.51-2.59,82.31,82.31,0,0,0-7.94,3.91c-1.23.68-.77,3,.75,2.79a87.92,87.92,0,0,1,13.67-.43v-3a57.41,57.41,0,0,1-12.08.24c-1.94-.16-1.89,2.8,0,3a64.09,64.09,0,0,1,15.09,3l.39-2.95a42.39,42.39,0,0,1-12.43-3.19l-.4,2.95A32.56,32.56,0,0,1,70.89,25L72,22.24A55.86,55.86,0,0,1,59.65,19l-.8,2.89a171.1,171.1,0,0,1,19.91,7.41,1.5,1.5,0,0,0,1.52-2.59L71,20.18c-1.59-1.12-3,1.46-1.52,2.59,3.3,2.42,6.22,4.78,8.09,8.52L78.88,29a11.53,11.53,0,0,1-7.14-2.54L70.28,29a25.87,25.87,0,0,0,7.31,1c1.41,0,2.15-2.13.76-2.79a78.5,78.5,0,0,1-7.93-4.27l-.36,2.75a16.22,16.22,0,0,1,11.18-.33V22.44L62.9,25.36a1.51,1.51,0,0,0-.36,2.74c5.12,2.62,11,2.72,16.13,5.28l.75-2.79a52.34,52.34,0,0,1-18-3.52l-.8,2.9a75.24,75.24,0,0,1,19.11,6c1.73.8,3.25-1.68,1.52-2.59-5.77-3-15.1-6.82-18.67-12.45l-1.7,2.2a58.15,58.15,0,0,1,24,16c1.12,1.23,3.4-.45,2.36-1.82A77.3,77.3,0,0,1,78.59,23l-2.36,1.82c2.16,2.53,7.89,7.37,8.25,10.78L87,34.51Q79.41,25.39,72,16.1l-1.82,2.36a45.54,45.54,0,0,1,9.49,9l2.12-2.12q-5.17-6.12-10.1-12.44L69.54,15c2.83,2.79,5.35,5.61,6.66,9.44l2.2-1.69A96.51,96.51,0,0,1,63,9.39l-1.82,2.36c3.59,2.48,6.9,5.31,7.05,10l2.56-1.06L59.53,9.57l-1.81,2.36c4,2.86,8.83,4.43,12.32,8l1.46-2.5L53.25,12.34l.36,2.74,4.74,1,.66-2.5a32.88,32.88,0,0,1-14,1.88l.4,2.95a24.93,24.93,0,0,1,9.27-1.19L54,14.38a51.27,51.27,0,0,1-17.49,6.79l.8,2.9A116.74,116.74,0,0,1,59.53,18l-.8-2.89q-14.08,5-28.43,9.24l1.15,2.74c4.22-2.51,8.8-3.78,13.41-5.34,2.52-.86,5.77-1.41,7-4,.45-.93-.06-2.36-1.29-2.26L35.85,16.73l.75,2.79a52.41,52.41,0,0,1,11.46-5.83L46.91,11c-3.66,2-7.38,3.76-11.2,5.4l1.52,2.59a68.51,68.51,0,0,1,14-5.79L50,10.41,37.65,19.88c-1.49,1.14-.19,3.63,1.51,2.59l13.16-8a1.5,1.5,0,0,0-1.52-2.59l-16,8.6,2,2.05a82.84,82.84,0,0,0,6.36-10.21c.66-1.26-.73-2.91-2-2-5.49,3.57-9.18,8.67-12.79,14-.95,1.41,1.21,3.07,2.36,1.82A110.23,110.23,0,0,0,40.3,14l-2.59-1.52L28.08,26.73l2.59,1.52A68.38,68.38,0,0,0,36.54,12.6c.45-1.87-2.42-2.67-2.89-.8-3.4,13.55-5.22,27.38-7,41.22h3c-1.46-11.83,1.58-23.6.51-35.45a1.5,1.5,0,0,0-3,0L24,60.15h3c-.11-11.94,1.42-23.74,3.05-35.54l-2.94-.4L23.28,63h3c-1.14-11.48.25-22.84,1.81-34.21l-2.95-.4L20.87,66.78l2.95-.4c-1.56-6.6.08-14.57.8-21.23.76-6.94,2.64-14.07,2.45-21.07-.05-1.63-2.6-2.12-2.95-.4L17.39,57l2.95.39c-.51-10.34.35-20.62,1.3-30.91h-3a338.82,338.82,0,0,1-2.92,34l3,.4c.07-10.75,2.7-21.06,5.47-31.38l-2.94-.4c-.89,10.61-1.11,22.55-5.09,32.53H19c-1.44-10.19-.31-20.36.9-30.51h-3l-2.21,24h3L17.09,30a1.51,1.51,0,0,0-2.95-.4,190,190,0,0,0-4.2,22.57l3,.4a93.84,93.84,0,0,1,4.38-19.14c.62-1.83-2.28-2.62-2.89-.8Z"/><path class="cls-2" d="M64.21,90.36l3.23-1c1.31-.38,1.55-2.66,0-2.89a107.41,107.41,0,0,0-17.28-1.2,1.5,1.5,0,0,0,0,3L60,89V86a83.5,83.5,0,0,0-10.84.46,1.5,1.5,0,0,0,0,3l14.16,1v-3L58.84,88a1.5,1.5,0,0,0,0,3c2.4.19,4.77.49,7.15.91V89a29.65,29.65,0,0,0-6.12,2.42,1.51,1.51,0,0,0,0,2.59c2.85,1.69,5.55.49,8.45-.77,4.61-2,9-4.7,13.34-7.13,1.44-.8.44-3.41-1.16-2.74l-8,3.34,1.15,2.74A83.18,83.18,0,0,0,86,80.88l-2.12-2.12c-3.68,3.31-9.8,2.64-14.4,2.92l-13.78.83a1.5,1.5,0,0,0,0,3l13.81.33-.4-2.94-3.21.93a1.5,1.5,0,0,0,.4,2.94c2.72.08,5.42,0,8.14-.1l-.4-3-4.36,1a1.5,1.5,0,0,0,.4,2.94l5.41-.26-.4-3-8.56,2.3a1.51,1.51,0,0,0,.4,3,17.8,17.8,0,0,0,7.83-1.67c1.47-.65.59-2.72-.76-2.79-3.92-.22-7.94.71-8.17,5.27a1.51,1.51,0,0,0,2.25,1.29c4.35-1.93,6.9-7,11.66-7.89L78.6,81.19a63.81,63.81,0,0,1-24.22,5.38l.76,2.8a19.28,19.28,0,0,1,8.38-3l-.75-2.8A11.87,11.87,0,0,0,57.87,92c-.33,2.2,2.87,1.36-1.67,1.19-3.23-.12-6.51.56-9.78.44-7.16-.27-13.84-3-20-6.4a25.77,25.77,0,0,1-7-5.31c-1.36-1.54-2-2.87-4.07-3.42a1.5,1.5,0,0,0-.79,2.89,128.78,128.78,0,0,0,12.53,3.26c4,.8,8.24.93,12.14,1.94,2.25.58,3.35,1.91,5.28,2.85A25.73,25.73,0,0,0,49,90.74c1.37.38,2.72,1.21,4.09,1.52.52.12,2.9.12,3.34.4l-.53-2a3.18,3.18,0,0,1-4.44,1l.35,2.74a16,16,0,0,1,6.57-3L56.7,89.2c-1,1.86-.8,3,.46,4.67l.67-2.51c-3.33,1-7.47-.77-10.77-1.21a67.32,67.32,0,0,0-11.53-.5c-1.6.06-2.15,2.68-.4,2.95a88.78,88.78,0,0,1,14.46,3.48l.79-2.89L35.91,88.52v2.89a16.13,16.13,0,0,1,10.14,0l.4-2.94a87.32,87.32,0,0,1-18.64-2.39,1.51,1.51,0,0,0-1.16,2.74,36.83,36.83,0,0,0,10.69,4.56,1.51,1.51,0,0,0,1.15-2.75C32.91,87.31,27,86.21,22.35,81.26c-1.33-1.41-3.41.7-2.12,2.12,3,3.28,8.36,3.26,12.45,4.05,5.38,1,10.8,2.45,16.28,2.64,1.67.06,2.08-2.62.4-2.94a52.42,52.42,0,0,1-8.09-2.25l-.4,2.94,13.58.87c1.66.11,2.08-2.68.39-2.94l-9.77-1.51-.39,3,11.8,0a1.5,1.5,0,0,0,0-3c-3.71-.13-7.38-.42-11.06-.89v3a106.36,106.36,0,0,1,12.5.23v-3a29.67,29.67,0,0,1-7.34-.57l-.4,2.94c11.27-.88,22.79.41,33.6-3.59a1.53,1.53,0,0,0,.35-2.75c-2-1.34-4.29-.9-6.61-.88L67,78.74c-7.38.07-14.76.18-22.14.41a1.5,1.5,0,0,0,0,3,22.79,22.79,0,0,0,3.6-.08c1.57-.11,2.17-2.66.4-2.95A108.5,108.5,0,0,0,33.5,77.65c-1.93-.05-1.93,2.95,0,3A104.69,104.69,0,0,1,48.07,82l.4-2.94a22.79,22.79,0,0,1-3.6.08v3c6.42-.2,12.83-.31,19.25-.38l8.65-.08c2.4,0,7.82-.94,9.85.43L83,79.38c-10.55,3.91-21.8,2.63-32.8,3.49-1.58.13-2.16,2.58-.4,2.95a32.71,32.71,0,0,0,8.14.68,1.5,1.5,0,0,0,0-3,106.36,106.36,0,0,0-12.5-.23,1.5,1.5,0,0,0,0,3c3.68.47,7.35.76,11.06.89v-3l-11.8,0c-1.63,0-2.12,2.68-.4,2.94l9.77,1.51.4-3-13.58-.87c-1.79-.11-1.9,2.4-.4,3A50.38,50.38,0,0,0,48.57,90l.39-3c-4.59-.16-9.15-1.32-13.66-2.18-3.76-.73-10.26-.67-12.95-3.63l-2.12,2.12c4.92,5.23,10.82,6.31,16.75,9.84l1.16-2.74a34.53,34.53,0,0,1-10-4.25L27,89a90.35,90.35,0,0,0,19.44,2.5,1.51,1.51,0,0,0,.4-3,19,19,0,0,0-11.74,0,1.51,1.51,0,0,0,0,2.89l14.48,4.67c1.84.6,2.62-2.29.79-2.89a88.67,88.67,0,0,0-14.45-3.48l-.4,2.94a62.26,62.26,0,0,1,14.92,1.1c2.86.58,5.31,1.41,8.17.5a1.52,1.52,0,0,0,.67-2.5v-1a1.53,1.53,0,0,0-1.7-2.21,17.84,17.84,0,0,0-7.28,3.27,1.52,1.52,0,0,0,.36,2.74c3.12,1.26,5.88.2,7.83-2.4A1.51,1.51,0,0,0,58,90.07a5.66,5.66,0,0,0-2.31-.86,4.47,4.47,0,0,1-4.09-.81l-.36-.16c-2.45-.8-4.32-1-6.64-2.31a17.76,17.76,0,0,0-3.84-2c-3.84-1.14-8-1.2-12-2a127.4,127.4,0,0,1-13.45-3.43l-.79,2.89c2.15.58,4.3,4.34,6.12,5.72a41.48,41.48,0,0,0,7,4.13c5.71,2.8,11.51,5,17.92,5.34a71.66,71.66,0,0,0,10.66-.39c1.43-.14,4.1,0,5.19-1.27s.48-1.51.37-2.74c0-.44-.67-.53-.72-.91-.19-1.65,2-4.21,3.24-5.1,1.08-.76.87-3-.76-2.8a22.88,22.88,0,0,0-9.9,3.38,1.51,1.51,0,0,0,.76,2.79,67.76,67.76,0,0,0,25.73-5.79c1.66-.73.4-3-1.15-2.74-5.27,1-7.7,6.11-12.38,8.19l2.26,1.3Q71,87.65,74,88.26l-.75-2.8a14.27,14.27,0,0,1-6.32,1.26l.4,3,8.55-2.31c1.6-.43,1.33-3-.39-2.94l-5.41.26.39,2.95,4.37-1a1.5,1.5,0,0,0-.4-2.94c-2.72.15-5.42.18-8.14.1l.4,3,3.21-.93a1.51,1.51,0,0,0-.4-3l-13.81-.33v3c6.43-.39,12.86-.76,19.29-1.17,4.1-.26,7.86-.63,11-3.46,1.45-1.31-.66-3.34-2.12-2.12a79.25,79.25,0,0,1-11.8,8.09c-1.44.81-.45,3.41,1.15,2.74l8.06-3.34-1.16-2.74c-3.62,2-14.67,10.33-18.76,7.9V94a26.89,26.89,0,0,1,5.4-2.11c1.35-.37,1.51-2.63,0-2.9-2.64-.47-5.26-.8-7.94-1v3l4.46-.51a1.5,1.5,0,0,0,0-3l-14.16-1v3A83.5,83.5,0,0,1,60,89c2,0,1.91-2.87,0-3l-9.82-.66v3a102.22,102.22,0,0,1,16.49,1.09V86.52l-3.24,1c-1.85.54-1.06,3.44.8,2.89Z"/><path class="cls-2" d="M41.87,85.8c8.09-1.44,16-1.24,24.14-1.46a73.49,73.49,0,0,0,9.6-.87c2.5-.39,6.63-.63,8.8-2.11a1.51,1.51,0,0,0-1.16-2.74,102.82,102.82,0,0,1-16.78,1.94c-1.55,0-14.7-1-14.91,0a1.52,1.52,0,0,0-1.45-1.89c-3-.31-6.64-.49-9.4,1.07a1.47,1.47,0,0,0-.74,1.3c.28,2.23,1.3,1.75,2.54,3.39l.9-2.21-2.19.44.4,2.95,4.57-1.44a1.5,1.5,0,0,0-.4-2.94l-6.17-.13L40,84.07l1.7-.35c1.63-.33,1.29-3.16-.4-3l-4.44.58.4,2.94,1.94-.69c1.22-.45,1.61-2.67,0-2.9a22.37,22.37,0,0,0-2.82-.25l.75,2.79,1.41-.77a1.51,1.51,0,0,0,0-2.59c-7.07-3.41-14.42-2-22-1.89-1.65,0-2.1,2.57-.4,2.94,6.6,1.46,13.24,2.58,20,3.4,1.69.21,2-2.54.4-2.94l-7.76-1.93-.4,3c11,1,21.76,4,32.88,2.37,1.91-.27,1.1-3.16-.8-2.89C49.66,83.42,39,80.35,28.35,79.41c-1.69-.15-2,2.55-.39,3l7.75,1.92.4-3C29.67,80.55,23.29,79.44,17,78L16.56,81c6.87-.11,14-1.63,20.47,1.48V79.88l-1.4.77a1.51,1.51,0,0,0,.76,2.8l2,.15V80.7l-1.94.7c-1.46.53-1.39,3.18.4,2.95l4.44-.58-.4-2.94-1.69.34c-1.7.35-1.25,2.92.4,3l6.17.13-.4-3-4.57,1.44c-1.56.48-1.36,3,.4,2.94a7.12,7.12,0,0,0,3-.54,1.52,1.52,0,0,0,.89-2.21c-.91-1.2-1.11-.81-.37-1.31,1-.71,4.2-.05,5.38.07l-1.44-1.9c-1.51,7.34,31,2.59,35.38,1.72l-1.16-2.74c-2.92,2-8.88,2-12.26,2.32s-6.82.28-10.23.27a107,107,0,0,0-19.33,1.55c-1.89.34-1.09,3.23.8,2.89Z"/><path class="cls-3" d="M38,69.54A87.75,87.75,0,0,1,61.77,57.91L61,55c-5.74,1.92-11.37,4.06-16.93,6.42-1.71.72-.36,3,1.15,2.74A87.11,87.11,0,0,1,60.4,63L59,61.08c-.34,1.79-13.23,3.56-15.32,4-1.92.45-1.06,3.17.8,2.89a132.93,132.93,0,0,1,21.38-1.46L64.75,64c-2,1.87-8.72,1.49-11.33,1.72-3.49.29-7,.49-10.49.63l.4,3a103.57,103.57,0,0,1,19.36-1l-.4-2.94C56.85,67.6,49.63,67.33,43.81,68a1.5,1.5,0,0,0,0,3l12.51.86v-3L45,69.61c-1.9.14-2,3,0,3a66,66,0,0,1,11.14.84l.4-3A74.18,74.18,0,0,1,46,70.65v3a37.87,37.87,0,0,1,7,.88l.4-3a90.83,90.83,0,0,1-13.8-.23v3l2.75.58.76-2.79c-3.06.19-6.1.26-9.16.2-1.64,0-2.1,2.67-.4,3l7.26,1.2.4-2.95a80.84,80.84,0,0,1-8.67.28c-1.93,0-1.93,3,0,3l9,.18c1.94,0,1.92-2.89,0-3l-6.15-.34c-1.73-.1-2,2.46-.4,2.94l1.58.48.4-2.94-5.3-.39v3c2-.21,4.12-.55,5.83,1.09l.66-2.51c-5.9.83-12.28-.11-18.2-.37v3a11.88,11.88,0,0,1,3.75.42l.4-2.95-6.39.22,1.06,2.56,5.9-7.09c1.05-1.25-.26-3.26-1.81-2.36-2.18,1.27-3.42,3.79-1.62,6,2.33,3,6.17,1.61,9,.26,1.67-.81.38-3-1.15-2.74a7.36,7.36,0,0,0-2.88.71,1.51,1.51,0,0,0,.4,2.95q14.66-.09,29.28.75v-3c-5.83.31-12.44-.19-18.07,1.51-1.58.48-1.34,3,.4,3l10.29-.38L48,74.87a10.86,10.86,0,0,1-4,.63c-1.92.07-1.94,3,0,3q10-.16,19.91-1v-3l-5.73.74c-1.85.25-2,3,0,3H75.81c3.94,0,9.62,1.14,13-1.42C93.91,73,96.61,64.18,92.45,59l-1.82,2.36,1.26,1.77.69-1.7a149.25,149.25,0,0,1-23.67,7.94c-1.61.39-1.31,3.08.4,2.94a52.48,52.48,0,0,1,9.79.16l-.76-2.8a30.62,30.62,0,0,1-4.52,2.75c-1.08.55-.92,2.56.36,2.75,4,.59,8,1,12,1.33v-3l-5.09.25v3c2-.26,5.72,0,7.15-1.78a4,4,0,0,0,.63-2.22c.2-2.91-.75-5.31.08-8.33l-2.74.36a8.67,8.67,0,0,1,1.8,4.34c.15,1.07,1.44,1.23,2.21.9a4.86,4.86,0,0,0,3.15-4.76c0-1.22-1.75-2.1-2.57-1.06q-2.7,3.45-5.23,7l2.59,1.51a10,10,0,0,1,2.73-3.61l-2.36-1.82A6.33,6.33,0,0,1,85,70.21c-1.68.74-.37,3,1.16,2.74L88,72.67,86.8,69.93l-2.55,1.8c-1.29.91-.56,3.37,1.15,2.75l4-1.45-1.7-2.21-.84.65,1.52,2.59,2.46-1.39a1.51,1.51,0,0,0-.76-2.8,96,96,0,0,0-12.79,1c-1.43.22-1.43,2.69,0,2.9l2.56.37.4-3a102.27,102.27,0,0,1-16.69.4c-1.93-.11-1.92,2.88,0,3l8.85.59v-3L59,72.88a1.5,1.5,0,0,0,0,3L72.56,76a1.5,1.5,0,0,0,0-3l-10.68-.17v3l20.85,0c2,0,1.86-2.77,0-3l-12.06-1.5v3a99.44,99.44,0,0,0,14.6-1.63c1.73-.32,1.21-2.86-.4-2.94l-8.67-.46v3a38.83,38.83,0,0,0,8.3-2c1.53-.55,1.38-3-.4-3a67.2,67.2,0,0,0-10,.88L75.25,71a56.85,56.85,0,0,0,6.87-3.81A1.51,1.51,0,0,0,81,64.46a52.08,52.08,0,0,0-10.64,2.71,1.5,1.5,0,0,0,.79,2.89,10.62,10.62,0,0,0,6.15-3,1.51,1.51,0,0,0-1.46-2.51,83.46,83.46,0,0,0-16.33,6.2c-1.62.82-.41,3,1.16,2.74a10.55,10.55,0,0,0,6.22-3.31,1.51,1.51,0,0,0-1.46-2.5,28.24,28.24,0,0,0-8,2.72c-1.41.71-.63,2.71.75,2.79A20.4,20.4,0,0,0,66.61,72a1.51,1.51,0,0,0-.39-3,33.85,33.85,0,0,0-11.14,1.41,1.51,1.51,0,0,0,.4,3,53.58,53.58,0,0,0,10.05.29l-.4-3a37.52,37.52,0,0,1-7.44,1.3,1.5,1.5,0,0,0,0,3,48.06,48.06,0,0,0,5.5,0l-.4-3-9.54,1.32c-1.69.24-1.26,3,.4,3a58.32,58.32,0,0,0,12.13-1.48c1.7-.39,1.24-2.87-.4-2.95a22,22,0,0,0-5.95.53c-1.63.36-1.3,3.1.4,3A59.89,59.89,0,0,0,74,72.49c1.27-.43,1.58-2.63,0-2.89a43.44,43.44,0,0,0-8.9-.58,1.5,1.5,0,0,0,0,3l6.62.2v-3a36.17,36.17,0,0,1-12.3-1v2.89a9,9,0,0,1,3.86-.67v-3a56.07,56.07,0,0,0-9.48,1.16,1.5,1.5,0,0,0,.4,2.94c4.69-.29,9.34-.78,14-1.45,1.72-.25,1.23-2.91-.4-2.95l-3.41-.07.4,2.94a58.06,58.06,0,0,0,11-5.85,1.51,1.51,0,0,0-1.16-2.74C66.7,63.18,59.45,66.87,51.44,68l1.7,2.2,2.17-4A1.52,1.52,0,0,0,54,63.93c-3-.3-6.1,1.49-8.89,2.49L33.58,70.55l1.16,2.74a32.62,32.62,0,0,1,10.8-3.64l-1.46-2.5a23.45,23.45,0,0,1-4.8,4,1.5,1.5,0,0,0,1.15,2.74,43,43,0,0,0,7.48-2.68c1.56-.72.45-3.18-1.16-2.74-3.45,1-6.91,1.73-10.43,2.35l1.15,2.74c1.49-.85,3-1.64,4.53-2.41s.45-3.31-1.16-2.74a106.63,106.63,0,0,1-10.91,3.24l1.46,2.51L34,71.53c1.15-1.17-.39-3.39-1.81-2.36A26.93,26.93,0,0,1,27.27,72l1.82,2.36,2.51-1.55c1.52-.75.46-3.28-1.15-2.74a23.74,23.74,0,0,1-8.12,1.25l.76,2.8,5.07-3c1.7-1,.21-3.33-1.52-2.59l-2.42,1L26,71.88c.65-.74,5.15-.72,6.24-1.09A14.84,14.84,0,0,0,36.85,68l-2.12-2.13A30,30,0,0,1,27,70.75l1.81,2.36c1.64-1.6,3.32-3.11,5.11-4.55,1.35-1.09-.38-3.15-1.82-2.35l-5.6,3.12,2.05,2,1.77-1.72c1.69-.94.19-3.47-1.52-2.59a4.12,4.12,0,0,0-1.66,1.29,1.51,1.51,0,0,0,1.82,2.36,35.83,35.83,0,0,0,5.61-3.06L32.71,65.3a18.64,18.64,0,0,1-3.33,2.81l2.05,2a39.34,39.34,0,0,1,2.24-3.82c.93-1.4-1.24-3.12-2.36-1.82l-3.55,4.15,2.12,2.12,1.76-2.21a1.5,1.5,0,0,0-2.12-2.12l.78-.28,1.1,1.44-.37.73L29,67.81l.05.09a1.52,1.52,0,0,0,2.2,1.7c1.62-.86,3.33-3.55,5.19-3.6L35,64.1l-2.19,6.15A1.51,1.51,0,0,0,35,72l8.08-5.15-1.82-2.35a24,24,0,0,1-5.8,4.1l1.82,2.35c4.81-3.84,10.63-6,14.91-10.58,1.11-1.19-.36-3.36-1.82-2.35Q44,62.36,37.93,67.22c-1.32,1,.44,3.36,1.82,2.35q7.76-5.67,16-10.65L54.2,56.33c-3.74,2.5-9.05,4.79-11.53,8.65a1.51,1.51,0,0,0,1.69,2.2,63.07,63.07,0,0,0,10.93-4.83c1.68-1,.17-3.53-1.52-2.59l-6.13,3.41c-1.54.85-.46,3.08,1.15,2.74l20.32-4.3-.79-2.89A51.34,51.34,0,0,0,57,63.88a1.52,1.52,0,0,0,.76,2.8,23.19,23.19,0,0,0,15.14-4.92c1.06-.82.9-2.88-.76-2.8a33.54,33.54,0,0,0-14,3.77c-1.39.72-.65,2.74.76,2.8A23.4,23.4,0,0,0,72.51,62a1.52,1.52,0,0,0-.36-2.74,21.65,21.65,0,0,0-14-1,1.51,1.51,0,0,0,.4,3c4.39.12,14.09.39,15.74-4.81a1.51,1.51,0,0,0-1-1.84,26.93,26.93,0,0,0-16.36,1,1.51,1.51,0,0,0,.4,3c4.11.13,10-1.55,11.75-5.81,1.32-3.19-1.52-4.95-4.4-4.83-3.6.15-9.61,3-10.85,6.73s2.79,5.12,5.76,4.74A11.81,11.81,0,0,0,69,51.87c1.16-3.39-.25-6.61-4.06-6.74-3.38-.11-8.43,2.31-8.22,6.32.16,3.22,3.52,4,5.9,2.43s4.28-6.94.26-7.67c-2.3-.42-5.29,1.72-7.07,2.79a41.31,41.31,0,0,0-9.2,7.68c-1.34,1.46.63,3.27,2.12,2.12a49.87,49.87,0,0,0,9-9.13c1.05-1.37-1.19-3-2.36-1.82A105.85,105.85,0,0,0,43.46,62.19l2.74,1.15A46,46,0,0,1,51.65,51.7c.92-1.41-1.22-3.11-2.35-1.81A111.65,111.65,0,0,0,38.7,64.15l2.74,1.16c1.32-3.8,2.78-7.52,4.42-11.2.76-1.73-1.58-3.22-2.59-1.52L35,66.4l2.74,1.16a62.78,62.78,0,0,1,5.43-10.92c.88-1.41-1.25-3.15-2.36-1.81a48.12,48.12,0,0,0-7.4,12.1c-.73,1.72,1.62,3.25,2.59,1.51q3.33-6,6.31-12.11C43,54.9,41.16,53.14,40,54.51a45.1,45.1,0,0,0-6.41,9.59,1.5,1.5,0,0,0,2.59,1.52q6.38-9.2,13.17-18.08L46.73,46a95.75,95.75,0,0,0-7,11.18c-.91,1.7,1.65,3.21,2.59,1.52a118.17,118.17,0,0,0,6.12-12.86c.63-1.57-2-2.69-2.74-1.16L39.49,57.66l2.74,1.15A79.07,79.07,0,0,1,48.65,46.5L46.06,45q-2.25,5.31-4.82,10.46L44,56.59a112.48,112.48,0,0,1,7-17l-2.74-.35a17.11,17.11,0,0,1-.81,10.9l2.89.79c.95-3.58,2-7.1,3.28-10.59.56-1.57-1.46-2.29-2.51-1.46a29.39,29.39,0,0,0-3.72,3.51l2.35,1.82a43.52,43.52,0,0,1,6-6.76l-2.12-2.12L51,38.58l2.36,1.82A16.63,16.63,0,0,1,57.11,36c1.48-1.26-.64-3.32-2.12-2.12l-4.45,3.62,2.13,2.13a26.83,26.83,0,0,1,6-4.34c1.54-.82.47-3.15-1.15-2.74l-2.3.56,1.16,2.75a7.05,7.05,0,0,1,4.84-.75L60,32.81l-.42.56,1.69-.69-.66-.22-.8,2.89c4.1.95,8.13,2.07,12.13,3.36,1.84.59,2.63-2.3.8-2.89-4-1.29-8-2.41-12.13-3.36a1.5,1.5,0,0,0-.8,2.89l.67.22a1.53,1.53,0,0,0,1.69-.69l.42-.56c.76-1-.3-2.16-1.29-2.26a11.05,11.05,0,0,0-6.35,1.16c-1.59.73-.45,3.13,1.15,2.74l2.3-.57L57.2,32.65a29.69,29.69,0,0,0-6.66,4.8c-1.42,1.36.66,3.32,2.13,2.13L57.11,36,55,33.83a18.56,18.56,0,0,0-4.2,5.05c-.83,1.42,1.27,3.19,2.35,1.82l2.56-3.25C56.86,36,55,34,53.58,35.33a46.81,46.81,0,0,0-6.42,7.36c-1,1.39,1.23,3.08,2.36,1.82A29.39,29.39,0,0,1,53.24,41l-2.5-1.46c-1.24,3.49-2.33,7-3.28,10.6-.51,1.91,2.19,2.55,2.89.79a19.67,19.67,0,0,0,.81-12.49,1.51,1.51,0,0,0-2.74-.36A115.59,115.59,0,0,0,41.09,55.8c-.51,1.59,2,2.69,2.74,1.15q2.56-5.16,4.82-10.45A1.5,1.5,0,0,0,46.06,45a84.14,84.14,0,0,0-6.72,13c-.65,1.56,2,2.68,2.74,1.15l6.19-12.94-2.74-1.16a112.7,112.7,0,0,1-5.82,12.14l2.59,1.52a96.72,96.72,0,0,1,7-11.19c1.15-1.58-1.44-3-2.59-1.51Q39.94,54.91,33.56,64.1l2.59,1.52a42.33,42.33,0,0,1,5.94-9l-2.35-1.81q-3,6.15-6.31,12.11L36,68.44A45.32,45.32,0,0,1,43,57L40.6,55.13a66.44,66.44,0,0,0-5.73,11.63c-.62,1.62,1.89,2.58,2.74,1.16l8.25-13.81-2.59-1.52c-1.74,3.92-3.32,7.88-4.72,11.92-.58,1.66,1.86,2.56,2.74,1.16A106.34,106.34,0,0,1,51.42,52l-2.36-1.82a49.25,49.25,0,0,0-5.75,12.35c-.53,1.71,1.81,2.5,2.74,1.16A102.63,102.63,0,0,1,57.46,50L55.1,48.16a46.81,46.81,0,0,1-8.53,8.52l2.12,2.12a38.77,38.77,0,0,1,8.59-7.21c1.33-.8,2.93-1.93,4.29-2.61,3.15-1.56,4.93,2.41,2.81,4.67-1,1.06-4.74,3.81-6.16,2.8-2.55-1.8,2.77-4.77,3.94-5l1.43-.42q2.86,1.57.57,2.52c-1.19,1.88-4.94,2-6.85,1.92l.4,3a24.05,24.05,0,0,1,14.76-1l-1-1.85c-1,3-10.75,2.67-12.85,2.61L59,61.15a19.18,19.18,0,0,1,12.39,1L71,59.38a20.62,20.62,0,0,1-12.11,3.15l.76,2.79A29.65,29.65,0,0,1,72.15,62l-.75-2.79a20.7,20.7,0,0,1-13.63,4.51l.76,2.79a48,48,0,0,1,10.58-4.86,1.5,1.5,0,0,0-.79-2.89L48,63l1.15,2.74,6.14-3.41-1.52-2.59a60,60,0,0,1-10.2,4.53l1.69,2.2c2-3.11,7.42-5.54,10.45-7.57,1.6-1.06.16-3.6-1.51-2.59q-8.22,5-16,10.65l1.82,2.36c3.84-3.08,7.77-6,11.81-8.78L50,58.2C45.81,62.69,39.92,65,35.14,68.78c-1.39,1.11.38,3.1,1.82,2.36a26.77,26.77,0,0,0,6.4-4.57,1.51,1.51,0,0,0-1.82-2.36l-8.07,5.15,2.2,1.69,2.19-6.15A1.51,1.51,0,0,0,36.42,63c-3.26.1-4,2.59-6.71,4l2.21,1.69a3,3,0,0,0-.35-2.4,1.52,1.52,0,0,0-2.05-.54,1.88,1.88,0,0,0-1.12,1.86,1.54,1.54,0,0,0,1.1,1.45,1.89,1.89,0,0,0,2.14-.49l-2.12-2.12-1.76,2.21c-1.18,1.48.84,3.61,2.12,2.12l3.55-4.15-2.35-1.81a39.34,39.34,0,0,0-2.24,3.82c-.63,1.22.74,3,2.05,2a31.58,31.58,0,0,0,3.94-3.28C36,66.25,34.45,64.1,33,65.07a35.83,35.83,0,0,1-5.61,3.06l1.81,2.35,1.06-.82-1.52-2.59a6.84,6.84,0,0,0-2.84,2.8,1.51,1.51,0,0,0,2.05,2l5.6-3.12-1.82-2.36C30,67.88,28.28,69.38,26.64,71c-1.3,1.27.35,3,1.82,2.35A32.69,32.69,0,0,0,36.85,68c1.48-1.28-.64-3.33-2.12-2.13-2.9,2.37-5.27,1.77-8.54,2.63a3.34,3.34,0,0,0-2.27,1.24,1.51,1.51,0,0,0,1.82,2.35l2.42-1L26.64,68.5l-5.06,3a1.51,1.51,0,0,0,.75,2.79A26,26,0,0,0,31.24,73l-1.15-2.74a11.85,11.85,0,0,0-3.12,2c-1.45,1.13.4,3,1.81,2.35a26.27,26.27,0,0,0,4.9-2.84l-1.82-2.35-2.59,2.66a1.51,1.51,0,0,0,1.46,2.51,109.27,109.27,0,0,0,10.91-3.25l-1.16-2.74c-1.54.77-3,1.56-4.52,2.41s-.45,3,1.16,2.75c3.52-.62,7-1.41,10.43-2.36l-1.16-2.74A38.47,38.47,0,0,1,39.63,71l1.16,2.74a25.7,25.7,0,0,0,5.41-4.5,1.51,1.51,0,0,0-1.46-2.51A34.61,34.61,0,0,0,33.22,70.7c-1.46.8-.47,3.32,1.16,2.74L44.15,70c2.83-1,6.83-3.32,9.86-3l-1.29-2.26-2.17,4a1.52,1.52,0,0,0,1.69,2.2c8-1.12,15.26-4.81,23.1-6.59l-1.16-2.74A54.56,54.56,0,0,1,63.93,67.1a1.51,1.51,0,0,0,.4,3l3.41.07-.4-2.94c-4.38.63-8.76,1.07-13.18,1.34l.4,3a51.71,51.71,0,0,1,8.68-1c1.92-.07,1.93-3.06,0-3a16.08,16.08,0,0,0-4.66.78,1.51,1.51,0,0,0,0,2.89,38.31,38.31,0,0,0,13.1,1.13,1.5,1.5,0,0,0,0-3L65.06,69v3a39.37,39.37,0,0,1,8.11.47V69.6a56.92,56.92,0,0,1-13.34,2.81l.4,3a13,13,0,0,1,5.15-.43L65,72a54.67,54.67,0,0,1-11.33,1.37l.4,2.94L63.59,75c1.67-.23,1.28-3-.4-2.94a48.06,48.06,0,0,1-5.5,0v3a41.18,41.18,0,0,0,8.24-1.41c1.59-.44,1.33-3.06-.4-2.94a53.6,53.6,0,0,1-10.05-.29l.4,2.94a32,32,0,0,1,10.34-1.3l-.4-2.94a18.71,18.71,0,0,1-7.68,1.12L58.9,73a24.93,24.93,0,0,1,7.29-2.42L64.73,68.1a8.1,8.1,0,0,1-4.9,2.54L61,73.38A78.73,78.73,0,0,1,76.6,67.49L75.14,65a7,7,0,0,1-4.82,2.19l.79,2.89a51.51,51.51,0,0,1,10.65-2.7L80.6,64.61a55.37,55.37,0,0,1-6.87,3.81c-1.66.77-.38,3,1.16,2.74a61.86,61.86,0,0,1,9.21-.77l-.4-3a35,35,0,0,1-7.5,1.85,1.5,1.5,0,0,0,0,3l8.67.46-.4-3a94.12,94.12,0,0,1-13.8,1.52,1.5,1.5,0,0,0,0,3l12.06,1.5v-3l-20.85,0a1.5,1.5,0,0,0,0,3L72.56,76V73L59,72.88v3l13.4-.65a1.5,1.5,0,0,0,0-3l-8.85-.59v3a102.24,102.24,0,0,0,16.69-.4c1.52-.16,2.21-2.68.4-2.94l-2.56-.38v2.9a87.55,87.55,0,0,1,12-.95l-.75-2.8-2.47,1.4c-1.71,1-.21,3.37,1.52,2.59a3.27,3.27,0,0,0,1.91-1.72,1.52,1.52,0,0,0-1.69-2.21l-4,1.45,1.15,2.74,2.55-1.8a1.51,1.51,0,0,0-1.15-2.74l-1.79.27,1.16,2.75a10.05,10.05,0,0,0,4.64-4c1-1.44-1.16-3-2.35-1.82a17,17,0,0,0-3.2,4.23,1.5,1.5,0,0,0,2.59,1.51c1.54-2.19,3.12-4.34,4.77-6.44l-2.56-1.06-1.67,2.17,2.21.9a9.88,9.88,0,0,0-2.11-5.06,1.52,1.52,0,0,0-2.74.35,29.67,29.67,0,0,0-.67,6.55c0,.54.55,1.49.34,1.93-.75,1.56-3.25,1.47-4.64,1.65-1.85.24-2,3.1,0,3l5.09-.25a1.5,1.5,0,0,0,0-3c-3.77-.27-7.51-.67-11.25-1.23L75.34,75a32.12,32.12,0,0,0,4.52-2.76,1.51,1.51,0,0,0-.76-2.79,52.5,52.5,0,0,0-9.79-.16l.4,2.95A153.14,153.14,0,0,0,94.1,64a1.5,1.5,0,0,0,.69-1.69,6.4,6.4,0,0,0-2.64-3.56c-1.49-1.1-2.79,1.14-1.82,2.35,2.62,3.28.57,8.51-1.83,11.43-2.89,3.52-7.73,2.7-11.71,2.71H58.22v3L64,77.5c1.87-.25,2-3.17,0-3Q54,75.34,44,75.5v3a20,20,0,0,0,4.8-.73,1.51,1.51,0,0,0-.4-3l-10.29.38.4,3c5.32-1.61,11.72-1.11,17.27-1.41a1.5,1.5,0,0,0,0-3Q41.2,72.9,26.54,73l.4,2.94a7.53,7.53,0,0,1,2.87-.71l-1.15-2.74Q25.81,75,24.35,71.35L22.53,69l-5.9,7.09a1.52,1.52,0,0,0,1.06,2.56l6.39-.22c1.63-.06,2.12-2.57.4-3A22.43,22.43,0,0,0,19.93,75c-1.94,0-1.93,2.92,0,3,6.25.27,12.78,1.14,19,.26a1.51,1.51,0,0,0,.66-2.5c-2.28-2.2-4.91-2.3-8-2a1.5,1.5,0,0,0,0,3l5.3.39c1.74.12,2-2.47.4-3l-1.58-.48-.4,3,6.15.34V74l-9-.18v3a80.84,80.84,0,0,0,8.67-.28c1.55-.13,2.19-2.65.4-2.94l-7.26-1.2-.4,2.94c3.06.06,6.1,0,9.16-.2,1.36-.09,2.2-2.11.75-2.8a8.87,8.87,0,0,0-4.26-1c-2,0-1.89,2.82,0,3a90.83,90.83,0,0,0,13.8.23c1.61-.09,2.14-2.56.4-2.94a41.42,41.42,0,0,0-7.76-1c-1.94-.06-1.92,2.89,0,3a74.18,74.18,0,0,0,10.54-.15c1.55-.13,2.19-2.65.4-2.94a70.27,70.27,0,0,0-11.94-1v3l11.29-.8a1.5,1.5,0,0,0,0-3L43.81,68v3c6.12-.65,13.53-.33,19.28-2.67a1.51,1.51,0,0,0-.4-3A108.75,108.75,0,0,0,42.53,66.4c-1.68.25-1.27,3,.4,2.95,5.09-.21,10.18-.55,15.25-1.09,2.92-.31,6.44,0,8.69-2.14a1.52,1.52,0,0,0-1.06-2.56,138.32,138.32,0,0,0-22.18,1.57l.8,2.89c4.55-1.07,9.2-2,13.7-3.22,1.8-.51,3.33-.91,3.71-2.92A1.52,1.52,0,0,0,60.4,60a91.31,91.31,0,0,0-16,1.3L45.56,64q8-3.39,16.21-6.11c1.82-.61,1.06-3.48-.79-2.9A91.09,91.09,0,0,0,36.51,67C34.93,68,36.43,70.64,38,69.54Z"/><path class="cls-3" d="M61.4,33.49a94.21,94.21,0,0,1,11.51,6.06c1.67,1,3.06-1.49,1.52-2.59a32.42,32.42,0,0,0-8.49-4.33l-.8,2.89A80,80,0,0,1,80.3,40.41c1.75.77,3.28-1.8,1.51-2.59a89.6,89.6,0,0,0-8.37-3.28c-1.86-.62-2.58,2.22-.8,2.89,5.35,2,10.51,4.68,12.57,10.41a1.51,1.51,0,0,0,2.9-.8,20.14,20.14,0,0,0-1.44-4.82l-2.59,1.51a83.39,83.39,0,0,1,6.3,22l2.89-.8a19.86,19.86,0,0,0-3.72-7.36c-.88-1.14-2.46-.07-2.56,1.06l-.93,10.31,3-.39A32.55,32.55,0,0,0,87.7,64a1.51,1.51,0,0,0-2.5-.66,17.37,17.37,0,0,0-3.3,5.41c-.67,1.69,1.82,2.44,2.74,1.16L86,68l-2.79-.76L83.41,70a1.5,1.5,0,0,0,2.94.4l1.05-2.52c.68-1.63-1.86-2.52-2.74-1.16l-1.72,2.7,2.74,1.15A51.56,51.56,0,0,0,86.41,51L83.9,52.45a26.58,26.58,0,0,1,5.72,8.41l2.6-1.52A74.48,74.48,0,0,0,87,50c-.63-1-2.54-1-2.74.36A21.79,21.79,0,0,0,85.53,62a1.51,1.51,0,0,0,3-.39A29.27,29.27,0,0,0,88,53.11c-.35-1.81-2.75-1.13-3,.4a21.66,21.66,0,0,0,.61,8.7c.35,1.34,2.65,1.51,2.89,0a9.28,9.28,0,0,0-.28-4.68c-.3-1-1.77-1.6-2.51-.66a37.53,37.53,0,0,0-5.09,8.55l2.79.76a13.39,13.39,0,0,1,.37-4.41c.31-1.56-2-2.81-2.74-1.16A41.7,41.7,0,0,1,77.55,67l2.8.76c.33-3,.14-6.76-3.2-8-3.77-1.38-7.38,2.44-11,2.33C62.27,62,65,57.92,61.91,56.82c-2.84-1-8.07,2.82-10.54,3.94l2.05,2.05c1-1.78,1.82-3.58,2.61-5.44a1.51,1.51,0,0,0-2.05-2,52.73,52.73,0,0,1-9.13,3.16l1.84,1.85a36.85,36.85,0,0,1,3.36-7.06l-2.74-1.15a34.42,34.42,0,0,1-2.12,6.07l2.74,1.16a74.59,74.59,0,0,0,1-8.15c.1-1.56-2-1.93-2.8-.76L43.85,54l2.59,1.52a25.93,25.93,0,0,0,2-6.28c.3-1.64.23-7.43,1.94-8.19l-2.26-1.3A29.29,29.29,0,0,1,47,47.6c-.52,1.89,2.22,2.57,2.9.79,1-2.61,1.92-5.78,3.51-8.11,2-2.9,4.57-3.4,7.74-4.22L60,33.32A21.82,21.82,0,0,0,51.5,45.26C51,46.85,53.56,48,54.25,46.42A51.88,51.88,0,0,1,59,37.8l-2.59-1.52c-2.91,6.19-5.67,12.35-7,19.11a1.51,1.51,0,0,0,2.9.8,48.1,48.1,0,0,0,3.1-11.35,1.5,1.5,0,0,0-2.89-.8,112.57,112.57,0,0,0-3.85,11.83l2.9.8L54,42.12l-2.94-.4L50.6,57.34c-.06,1.75,2.42,2,2.94.4l5.62-16.8H56.27c1,2.76.41,5.35-.41,8.05l3,.4a116.26,116.26,0,0,1,2.66-13.6c.41-1.6-2-2.73-2.74-1.16A58.28,58.28,0,0,0,55,44.08a1.51,1.51,0,0,0,2.75,1.16,48.88,48.88,0,0,1,4.48-6.82L59.86,36.6l-3.58,6.66a1.5,1.5,0,0,0,2.59,1.51,49,49,0,0,0,3.5-6.65c.55-1.27-.65-2.9-2.06-2A53.15,53.15,0,0,0,53,41.46l2.5,1.46.44-3c.13-.86-.36-2-1.44-1.9a4.66,4.66,0,0,0-4.14,2.53,1.51,1.51,0,0,0,2,2c2.21-1.2,4.43-2.35,6.72-3.36q2.41-1.05,4.87-2a13.57,13.57,0,0,0-3.35,3.16l1.7.69c-.36-.54.88-3.35,1.07-3.88.54-1.51-1.48-2.37-2.51-1.46-1.68,1.49-2.89,3.34-2.33,5.66A1.56,1.56,0,0,0,60,42.53c2.26.23,4-1.24,5.3-3a1.51,1.51,0,0,0-1.82-2.35,11.85,11.85,0,0,0-2.81,1.84c-1.31,1,.47,3.4,1.82,2.36a19,19,0,0,0,3.76-3.78c.92-1.21-.85-2.82-2-2-2.3,1.48-9.52,7.25-7,10.78s9.88-2.53,11.69-4.4c1-1,0-3-1.46-2.5-3.6,1.3-14.34,6.08-11.87,11.88,2.31,5.4,10.86.17,13.65-1.82,1.27-.9.54-3.43-1.15-2.74C65.09,48,54.1,51.2,55.23,55.73s11.88,1.11,14.66.25c1.53-.48,1.35-3.18-.4-2.95-3.94.53-10.91.39-12.3,4.93a1.52,1.52,0,0,0,1.05,1.84,36.51,36.51,0,0,0,15.13,1.14c1.85-.24,2-3,0-3-3.45,0-9-.13-10.39,3.75a1.49,1.49,0,0,0,.69,1.69c5.25,2.65,10.74,2.85,16.52,2.76a1.5,1.5,0,0,0,0-3A59.55,59.55,0,0,0,70.56,63a1.5,1.5,0,0,0,0,3,14.92,14.92,0,0,0,5.12-.4c1.37-.32,1.49-2.65,0-2.89l-1.55-.25.36,2.74c2.75-1.95,6-5.15,1.67-7.29-3.77-1.84-12.43-2.93-15.48.53A1.52,1.52,0,0,0,61,60.79c3.41,2,13.11,2.18,10.8-4.41-1.47-4.19-11.52-6.66-13.32-1.66C56.94,59,64.84,62,67,58.42c3.3-5.49-7.9-7-10.93-5.37a1.52,1.52,0,0,0-.69,1.69c.58,3,4.79,3.27,7.22,3.78a51,51,0,0,0,14.49.8c1.56-.13,2.18-2.64.39-3a15.72,15.72,0,0,0-9.14.88,1.51,1.51,0,0,0,0,2.89,23.36,23.36,0,0,0,13.5.58c1.37-.33,1.49-2.64,0-2.89-2.8-.47-8.28.08-8,4A1.57,1.57,0,0,0,75,63.3c2.59,1,5.06-.45,6.76-2.37L79.6,58.81c-1.67,2-2.74,5-.19,6.72a1.49,1.49,0,0,0,1.51,0c2.61-1.35,3.44-4.16,3.65-6.9a1.51,1.51,0,0,0-2.26-1.3c-1.65,1.16-4.25,5.86-.53,6.25,4.57.47,4.61-8.17,3.91-10.71A1.51,1.51,0,0,0,83,52.51a19.29,19.29,0,0,0-2.36,6.11c-.39,1.88,2.49,2.69,2.89.79a28.22,28.22,0,0,0-.08-12.57c-.39-1.68-2.91-1.26-3,.4a25.89,25.89,0,0,0,1.16,8.38c.41,1.32,2.62,1.54,2.89,0a60.9,60.9,0,0,0,1-9.72l-3,.4A37.08,37.08,0,0,0,85,52.11l2.35-1.82a32.5,32.5,0,0,1-4.29-4.84,1.51,1.51,0,0,0-2.74,1.15,12.28,12.28,0,0,0,4,6.89c1.05.95,3,0,2.51-1.46A34.28,34.28,0,0,0,82,42.4c-1-1.32-3.22-.59-2.74,1.15a36.41,36.41,0,0,0,2,5.58l2.59-1.51a79.87,79.87,0,0,0-5.55-7.41c-1.16-1.37-3.06.38-2.35,1.82a21.46,21.46,0,0,0,3.37,5c1,1.16,2.87-.07,2.51-1.46l-1-3.79L78.1,42.93a13.38,13.38,0,0,0,2.35,3.49A1.51,1.51,0,0,0,83,45L81.7,41.09,79,42.24l2.93,4,2.36-1.82a31.38,31.38,0,0,0-12.59-6.69,1.51,1.51,0,0,0-1.46,2.5,11.17,11.17,0,0,0,8.11,4,1.51,1.51,0,0,0,1.06-2.56,12,12,0,0,0-7.43-3.56c-1.71-.23-2,2.49-.39,2.95a19.79,19.79,0,0,0,6.71.81,1.52,1.52,0,0,0,.76-2.8A11.49,11.49,0,0,0,73.77,37c-1.27-.2-2.78,1.46-1.46,2.5l1.38,1.08L75.15,38a57.28,57.28,0,0,0-12-.89,1.5,1.5,0,0,0-.4,2.94,44.19,44.19,0,0,0,16.62,1.41,1.51,1.51,0,0,0,.4-3,30.39,30.39,0,0,0-15.27-1.42c-1.52.23-1.35,2.55,0,2.9q5.17,1.33,10.42,2.39V39.52L65,43.37c-1.27.49-1.58,2.54,0,2.89,3.36.76,6.23.33,9.56-.44a1.5,1.5,0,0,0-.4-2.94,34.53,34.53,0,0,0-10,1.65,1.51,1.51,0,0,0,.4,2.94c3.63.44,7.93-1.47,8.17-5.52a1.53,1.53,0,0,0-1.1-1.45c-2.51-.93-5.09,2-6.46,3.76l2.5,1.46,1.72-3.29-2.56-1.06.16,12.73a1.51,1.51,0,0,0,2.95.4L73.6,39.83l-2.94-.4C70.24,44.23,70,49,70,53.84c0,1.64,2.61,2.1,2.94.4a28.52,28.52,0,0,0,.25-9.71c-.21-1.48-2.59-1.37-2.89,0a25.64,25.64,0,0,0,.27,12.61,1.51,1.51,0,0,0,2.89,0c.93-4.23,1.69-8.47,2.29-12.75H72.9l3.27,12c.47,1.74,2.77,1.21,3-.4a19,19,0,0,0-3.85-14,1.53,1.53,0,0,0-2.75.36,22.19,22.19,0,0,0,1.66,16.3c.7,1.4,2.74.64,2.8-.75a85.29,85.29,0,0,0-.51-13.08c-.22-1.87-3-2-3,0A29,29,0,0,0,76.6,58.5a1.52,1.52,0,0,0,2.75-.36c1.08-6.13.42-12.1-.45-18.21-.26-1.79-2.8-1.15-3,.4a48.45,48.45,0,0,0,1.2,16.23c.41,1.69,2.87,1.25,2.94-.4a50,50,0,0,0-.5-9.31c-.24-1.67-3-1.28-3,.4A91.68,91.68,0,0,0,78,58.34c.31,1.69,3,1.26,3-.4,0-3.75-.19-7.48-.51-11.22-.17-1.89-3.1-1.95-3,0a42.61,42.61,0,0,0,2.33,12,1.51,1.51,0,0,0,3-.4l.55-10.59h-3a100.91,100.91,0,0,0,1,11.25c.24,1.67,3.07,1.29,2.94-.39a96.33,96.33,0,0,0-1.47-11c-.34-1.72-2.88-1.23-3,.4a37.11,37.11,0,0,0,.62,8.28c.32,1.74,2.85,1.2,2.95-.4a14.86,14.86,0,0,0-.4-4.51c-.43-1.88-3.33-1.08-2.89.8a8.49,8.49,0,0,1,.29,3.71l2.94-.4a33,33,0,0,1-.51-7.48l-3,.4A86.87,86.87,0,0,1,81.2,58.63l3-.4a94,94,0,0,1-.92-10.46,1.5,1.5,0,0,0-3,0l-.55,10.59,2.95-.4A39.43,39.43,0,0,1,80.4,46.72h-3c.32,3.74.49,7.47.51,11.22l3-.4a84.7,84.7,0,0,1-1.22-10.29l-3,.4a44.91,44.91,0,0,1,.4,8.51l3-.4A46.07,46.07,0,0,1,79,40.33l-3,.4c.8,5.56,1.44,11,.45,16.61L79.19,57a25.76,25.76,0,0,1-2.72-12.2h-3A85.29,85.29,0,0,1,74,57.86l2.79-.76a18.83,18.83,0,0,1-1.35-14l-2.74.36A16.55,16.55,0,0,1,76.12,56l2.94-.4-3.27-12c-.36-1.32-2.68-1.53-2.89,0-.61,4.29-1.37,8.52-2.29,12.75H73.5a22.2,22.2,0,0,1-.27-11H70.34a22.79,22.79,0,0,1-.25,8.11l3,.4c0-4.82.2-9.61.62-14.41.15-1.7-2.54-2-3-.4L67,53.7l2.94.4-.16-12.73a1.52,1.52,0,0,0-2.56-1.06,9.74,9.74,0,0,0-2.49,4.61c-.33,1.34,1.52,2.7,2.51,1.46.51-.64,2.59-3.34,3.54-3L69.67,42c-1.38,2.22-3.1,3.07-5.17,2.52l.4,3a32.16,32.16,0,0,1,9.23-1.54l-.4-3a17,17,0,0,1-8,.44v2.89l10-3.85c1.24-.48,1.59-2.57,0-2.89-3.5-.71-7-1.5-10.43-2.4V40A27.27,27.27,0,0,1,79,41.44l.39-2.95a41.84,41.84,0,0,1-15.82-1.3l-.4,3a53.71,53.71,0,0,1,11.18.78c1.29.23,2.77-1.48,1.46-2.51l-1.38-1.08L73,39.84a10.17,10.17,0,0,1,4.54,1.81l.75-2.79a17.72,17.72,0,0,1-5.92-.71l-.4,3a7.63,7.63,0,0,1,5.31,2.68l1.06-2.56a8.55,8.55,0,0,1-6-3.15l-1.46,2.51a27.74,27.74,0,0,1,11.26,5.93c1.19,1,3.43-.36,2.35-1.82l-2.93-4c-.94-1.26-3.32-.6-2.75,1.15l1.27,3.88,2.51-1.46a7.84,7.84,0,0,1-1.89-2.88C80,39.84,77.54,41,78,42.57l1,3.79,2.5-1.46a17.92,17.92,0,0,1-2.9-4.38l-2.36,1.81a74.64,74.64,0,0,1,5.08,6.8,1.5,1.5,0,0,0,2.59-1.51,22.86,22.86,0,0,1-1.72-4.86l-2.74,1.15A32.08,32.08,0,0,1,84,52.83l2.51-1.46a10.65,10.65,0,0,1-3.26-5.56L80.48,47a37.42,37.42,0,0,0,4.76,5.45A1.51,1.51,0,0,0,87.6,50.6a32.05,32.05,0,0,1-2.15-5.1,1.51,1.51,0,0,0-3,.4,56.88,56.88,0,0,1-.89,8.92H84.5a23.4,23.4,0,0,1-1-7.58l-2.94.4a24.67,24.67,0,0,1,.08,11l2.89.79A17.49,17.49,0,0,1,85.54,54l-2.75-.36a4.83,4.83,0,0,1,0,4.29q-1.62,2.4,1.07,2l-2.26-1.29.15,2.3c1.2-1.47-.82-3.58-2.12-2.12L75.76,60.4l1.1,1.45L81,60.72V57.83a20.58,20.58,0,0,1-11.91-.58v2.89a13,13,0,0,1,7.55-.87l.4-3a51.17,51.17,0,0,1-8.84,0c-1.3-.12-9.66-.79-10-2.41l-.69,1.7c2.2-1.26,3.79-1.11,4.79.45.93,1.16.84.93-.27-.72H66q.06,5.77-3.52,2.82l.3,2.36c1.25-1.41,3.76-1.09,5.45-1,1.31,0,8.29.54,4.73,3.07-.93.66-1,2.52.35,2.75l1.55.24V62.7a8.94,8.94,0,0,1-4.32.29v3a59.55,59.55,0,0,1,9.63.15v-3c-5.19.08-10.27,0-15-2.35l.69,1.7c.69-1.93,6-1.54,7.5-1.55v-3a34.38,34.38,0,0,1-14.33-1l1.05,1.85c.63-2.07,7.85-2.52,9.4-2.73l-.4-3c-1.33.42-11,2.17-11,1.65.06-.85,9.8-4.68,10.69-5L67.67,47c-.89.66-1.82,1.29-2.77,1.87q-3.45,3.3-4.82-1.77c.56-2,6.57-4.12,8.12-4.68l-1.46-2.51c-.85.87-5.09,5.06-6.39,4-.9-.76,4.82-5.29,5.35-5.63l-2.05-2L61,38.84l1.81,2.35L65,39.82l-1.82-2.36A3.87,3.87,0,0,1,60,39.53l1.45,1.1L63,37.89l-2.51-1.46c-.68,1.91-2,4.31-.76,6.19a1.56,1.56,0,0,0,1.69.69c2.78-.41,7.13-5.51,4.72-8.34-2.68-3.16-12.95,3.75-15.27,5l2,2.05,1.55-1L53,39.09l-.44,3a1.52,1.52,0,0,0,2.51,1.46,48,48,0,0,1,6.75-4.92l-2-2a50.15,50.15,0,0,1-3.5,6.65l2.59,1.51,3.58-6.66c.76-1.42-1.26-3.21-2.36-1.82a54.21,54.21,0,0,0-5,7.43l2.74,1.16a54.14,54.14,0,0,1,3.44-8.74L58.58,35a121.53,121.53,0,0,0-2.77,14.4c-.23,1.72,2.47,2,2.94.39,1-3.33,1.66-6.3.41-9.64a1.51,1.51,0,0,0-2.89,0l-5.62,16.8,3,.4.46-15.62c0-1.65-2.67-2.09-3-.39L48.69,55.87c-.31,1.87,2.39,2.71,2.9.8a111.76,111.76,0,0,1,3.84-11.83L52.54,44a47.52,47.52,0,0,1-3.11,11.35l2.9.8C53.56,49.68,56.18,43.76,59,37.8a1.5,1.5,0,0,0-2.59-1.52,52.69,52.69,0,0,0-4.73,8.62l2.74,1.16a18.49,18.49,0,0,1,7.11-10.15,1.51,1.51,0,0,0-1.16-2.74c-3,.77-6.4,1-8.41,3.58C49.61,39.69,48.32,44.1,47,47.6l2.9.79a32.75,32.75,0,0,0,1.2-8.64,1.51,1.51,0,0,0-2.25-1.29c-1.93.85-2.11,2.54-2.48,4.53-.71,3.76-.89,7.47-2.52,11a1.5,1.5,0,0,0,2.59,1.52L48.72,52l-2.8-.76A67.29,67.29,0,0,1,45,58.55c-.27,1.53,2,2.82,2.74,1.16a38.73,38.73,0,0,0,2.42-6.8,1.51,1.51,0,0,0-2.74-1.15,39.94,39.94,0,0,0-3.66,7.77,1.51,1.51,0,0,0,1.84,1.85,57.11,57.11,0,0,0,9.86-3.47l-2.06-2c-.79,1.86-1.66,3.66-2.61,5.44a1.51,1.51,0,0,0,2.05,2.05c1.53-.69,4.08-2.51,5.74-2.59,1.85-.1,1.09.22,1.61,1.56s.29,2.14,1.76,2.89c4.4,2.25,16.45-7.28,15.36,2.52-.18,1.61,2.05,1.86,2.79.76a42.19,42.19,0,0,0,3.56-6.36L81,61a22.77,22.77,0,0,0-.48,5.21c0,1.36,2.18,2.21,2.8.76A34.89,34.89,0,0,1,87.9,59l-2.5-.66.28,3.08h2.89a19.7,19.7,0,0,1-.5-7.9l-2.94.4a26.26,26.26,0,0,1,.35,7.71l2.94-.4a18.89,18.89,0,0,1-1.29-10.07l-2.74.36a72.51,72.51,0,0,1,5.23,9.35c.83,1.76,3.36.22,2.6-1.52a28.88,28.88,0,0,0-6.2-9,1.52,1.52,0,0,0-2.51,1.46,47.18,47.18,0,0,1-.72,18,1.5,1.5,0,0,0,2.74,1.15l1.72-2.69L84.51,67l-1.05,2.52,3,.4-.19-2.72a1.52,1.52,0,0,0-2.8-.76L82.05,68.4l2.74,1.16a10.66,10.66,0,0,1,2.53-4.09l-2.51-.66a33.84,33.84,0,0,1,1.31,4.52c.37,1.76,2.8,1.19,2.94-.4L90,58.62l-2.56,1.06a16.28,16.28,0,0,1,2.95,6c.52,1.91,3.16,1.06,2.89-.8a86.08,86.08,0,0,0-6.6-22.7c-.78-1.77-3.33-.23-2.59,1.51a12.1,12.1,0,0,1,1.13,4.11l2.9-.8c-2.46-6.8-8.23-10-14.67-12.5l-.8,2.89c2.61.88,5.14,1.85,7.66,3l1.51-2.59a84.17,84.17,0,0,0-15.87-5.19,1.5,1.5,0,0,0-.8,2.89,29.89,29.89,0,0,1,7.77,4L74.43,37A94.33,94.33,0,0,0,62.91,30.9c-1.75-.78-3.27,1.81-1.51,2.59Z"/><path class="cls-3" d="M33.26,67A3.89,3.89,0,0,0,35,65c.66-1.46-1.09-3.14-2.36-1.82l-.67.7,2.35,1.82,9.86-14.33-2.74-1.16-1.16,1.59,2,2,5.36-9.94L45,42.71l-1.42,2.65,2.74,1.15a10.79,10.79,0,0,1,4.94-7.67l-2.05-2.05-.41.26,2,.54-.33-.46L50.24,39l.31-.3c1.38-1.36-.74-3.47-2.12-2.12l-1.29,1.24A1.51,1.51,0,0,0,49,40.13a11.86,11.86,0,0,0,3.81-3.51L50.18,35.1,49,35.66,50,38.22a36.64,36.64,0,0,1,8.27-5c1.5-.67.55-2.68-.75-2.8l-.86-.07.75,2.79C63,30.32,68.13,33,73.58,34.8l.4-2.95-3.31.41a1.5,1.5,0,0,0-.39,2.94,2.92,2.92,0,0,0,.9.27V33.34l-.26.23H73l-.18-.19-1.46,2.5c7.12,1,14.52,5,15.29,13.19l3-.4a17.06,17.06,0,0,0-5-9.8,16.87,16.87,0,0,0-4.25-3c-1.42-.7-4.77-.94-5.18-2.69L73.41,35a16,16,0,0,1,5.89,2.35l1.51-2.59-1.64-1.06-1.51,2.6A26,26,0,0,1,83,39.47c1.35,1,3.08-1.22,1.82-2.35A8.08,8.08,0,0,1,83,35.22l-1.07,2.56,2.3,1.47c1,1.64,3.59.14,2.59-1.52a5.55,5.55,0,0,0-4.89-2.95c-1.43-.11-1.79,1.66-1.06,2.57a8.28,8.28,0,0,0,1.8,1.89l1.82-2.36a26.84,26.84,0,0,0-5.32-3.2,1.5,1.5,0,0,0-1.51,2.6l1.64,1c1.63,1,3.13-1.55,1.51-2.59a17.41,17.41,0,0,0-6.6-2.65,1.52,1.52,0,0,0-1.85,1.84c.7,3,2.85,3.1,5.44,4.08a14.15,14.15,0,0,1,9,11.46c.25,1.66,3.1,1.29,2.94-.4C88.8,39.65,80.84,34.26,72.2,33a1.52,1.52,0,0,0-1.46,2.51l.18.19a1.54,1.54,0,0,0,2.12,0l.26-.22a1.53,1.53,0,0,0,0-2.13,4,4,0,0,0-2.23-1l-.4,2.95L74,34.85a1.5,1.5,0,0,0,.4-2.94c-6.73-2.22-11.75-4.75-18.47-1.33-1.44.73-.6,2.68.76,2.8l.86.07-.76-2.79a39.75,39.75,0,0,0-8.88,5.43c-1.08.87-.12,2.52,1.06,2.57a3.79,3.79,0,0,0,3.82-2c1.08-1.64-1.47-3-2.59-1.52l-2.73,2.44,1.81,2.35,1.29-1.24-2.12-2.12-.31.3a1.51,1.51,0,0,0-.24,1.82l.33.45a1.56,1.56,0,0,0,2,.54,3,3,0,0,0,1.49-1.34c.86-1.23-.83-2.85-2-2a13.73,13.73,0,0,0-6.32,9.47,1.51,1.51,0,0,0,2.74,1.15,12.28,12.28,0,0,0,1.72-3.36c.63-1.59-1.94-2.64-2.74-1.16l-5.36,9.94c-.68,1.26.74,2.88,2.06,2.05A5.11,5.11,0,0,0,44.33,51a1.51,1.51,0,0,0-2.74-1.16L31.73,64.13c-1,1.42,1.19,3,2.36,1.82l.67-.7-2.35-1.82-.67.94c-1.54,1.13,0,3.73,1.52,2.59Z"/><path class="cls-3" d="M60.7,31.69c2-.66,5.56,3.35,7.75,4,3.25,1,6.66,1.3,9.93,2.47,4.6,1.65,8.65,3.3,9,8.8.23,3.37-.16,6.41.88,9.69.58,1.84,3.48,1.06,2.89-.79-1.38-4.37.09-9.15-1.62-13.44-1.32-3.32-4.1-4.71-7.24-6C77.61,34.61,70.87,34.26,67,31.08c-2.4-2-3.71-3.4-7.12-2.29-1.83.6-1,3.5.79,2.9Z"/><path class="cls-3" d="M88.15,51a7.9,7.9,0,0,0,.63,5.76c.77,1.56,3.15.46,2.74-1.15a11.36,11.36,0,0,1-.38-1.93l-2.56,1.06.53.77,3-.4-1.27-4.42a1.51,1.51,0,0,0-3,.39,16.29,16.29,0,0,0,2.29,8.33c.84,1.43,3.3.5,2.74-1.15L92,55.69l-1.45,1.9.5.06-1.3-.74c1.51,2,1.84,5,1.91,7.43.06,1.92,3.06,1.93,3,0-.09-2.93-.44-9.28-4.11-9.75a1.5,1.5,0,0,0-1.44,1.9L90,59l2.74-1.15a13.1,13.1,0,0,1-1.88-6.82l-3,.4,1.28,4.42c.45,1.57,3.08,1.35,2.94-.39a3.53,3.53,0,0,0-1.41-2.89c-.87-.68-2.74-.38-2.56,1.06a23,23,0,0,0,.49,2.73l2.74-1.16A4.58,4.58,0,0,1,91,51.76c.47-1.87-2.42-2.67-2.89-.79Z"/><path class="cls-4" d="M39.14,71.86c8.36-5.36,4.32-19,12.84-26.67"/><path class="cls-4" d="M75.83,74.67C87.5,68.5,74.5,51.5,75.5,40.5"/></g><g id="Layer_2" data-name="Layer 2"><line class="cls-5" x1="11.5" y1="78.5" x2="87.5" y2="78.5"/><path class="cls-6" d="M15.5,78.5c10-16,6-7,12-11s15-20,17-26,15-15,19-13,26,4,27,17,4,9,5,20"/></g><g id="Layer_1" data-name="Layer 1"><path d="M50,4A46,46,0,1,1,4,50,46.06,46.06,0,0,1,50,4m0-4a50,50,0,1,0,50,50A50,50,0,0,0,50,0Z"/></g></svg>