<svg xmlns="http://www.w3.org/2000/svg" viewBox="0 0 100 100"><defs><style>.cls-1{fill:#3fa9f5;}.cls-2{fill:#8cc63f;}.cls-3,.cls-6{fill:none;fill-rule:evenodd;}.cls-3{stroke:#006837;}.cls-3,.cls-4,.cls-5,.cls-6{stroke-linecap:round;stroke-miterlimit:10;}.cls-4{fill:#ff0;}.cls-4,.cls-5,.cls-6{stroke:#000;}.cls-4,.cls-5{stroke-width:0.5px;}.cls-5{fill:#8c6239;}.cls-6{stroke-width:2px;}</style></defs><title>Grasslands</title><g id="Layer_3" data-name="Layer 3"><path class="cls-1" d="M30.73,37.08c1.05-2.56,4.72-4.82,7.25-6.29s5.07-2.71,7.67-3.93c-1.56.73-2,.19,0,.42,1.34.16,2.73.13,4.08.19C58,27.83,64.86,31,69.52,37.75c3.69,5.31,10.51,7.76,16.42,4.3C91.2,39,94,31,90.24,25.63A52.61,52.61,0,0,0,72.79,9.21C64.9,4.82,57,3.79,48.12,3.39c-17-.75-34.23,12-40.54,27.31-2.46,6,2.67,13.19,8.38,14.76,6.89,1.89,12.29-2.36,14.77-8.38Z"/><path class="cls-2" d="M18.5,52.56c14-.44,27.9-.89,41.85-2.23a40.84,40.84,0,0,1,9.18,0c2.55.33,5.45,2.53,1.59-1.6s-1.54-2.41-1.76-.42c-.31,2.74-.12,5.1-.83,7.81a50.48,50.48,0,0,1-2.72,7.78c-.46,1-1.58,2.43-1.72,3.5-.17,1.31-.25,0,.87-.33-3,.9-6.06,2-9.14,2.8a22,22,0,0,1-13.56-.75,21.47,21.47,0,0,1-9.84-7.7,22.21,22.21,0,0,1-2.78-5.38,20.69,20.69,0,0,1-1.14-4.44c.07.69.5-2.06.13-1l-3.08,5.29Q19,60,16.41,56l.78,1.12c.7,1.83,2.63,3.63,4,5a22.38,22.38,0,0,0,10.24,5.54c3.13.79,6.31.94,9.39,1.95,3.72,1.22,6.94,2.77,11,2.92A22.77,22.77,0,0,0,71.68,61.25c5.82-10.33-1.86-22-13.51-21.43-6.47.31-12,5.29-12,12,0,6.26,5.5,12.31,12,12l-.61-.24-5.3-3.09.89.78L50.07,56l.18,1.2V50.8c1.43-3.46.81-1.85-.24-1,.14-.1,3.63-2.06,3.45-1.09,0,0-4.78-1.68-5.43-1.92-2.83-1-9-1.27-10.58-2.24,1.26.77-.25-.54-.71-1.19a32.67,32.67,0,0,0-4.13-5,17.48,17.48,0,0,0-18.16-3.66c-11.26,4.43-11.19,18-8,27.72A47.31,47.31,0,0,0,23.2,85.72a46.15,46.15,0,0,0,26.16,8.86A46.83,46.83,0,0,0,63,92.8c4.62-1.28,10.24-2.59,14.31-5.18,8.17-5.2,12.37-17,14.54-25.95s3.18-22.24-4-29.32C79.51,24.07,64.18,26,53.58,27.12,42,28.33,30.16,28.2,18.5,28.56,3.09,29,3,53.05,18.5,52.56Z"/><path class="cls-2" d="M9.51,31.51,34.41,30a1.5,1.5,0,0,0,0-3c-7.2-.07-14.39-.08-21.58.5v3Q32,28.43,51.26,28a1.5,1.5,0,0,0,0-3,110.5,110.5,0,0,0-17.16.53c-1.88.2-2,3.1,0,3a280,280,0,0,1,43.24,1c1.59.17,3.18.34,4.78.54s5.88,0,7.22,1c2.18,1.53,2.46,6.24,2.91,8.78a69,69,0,0,1-.09,23.68c-.32,1.87,2.35,2.69,2.89.8a41.94,41.94,0,0,0,.73-20.19c-.33-1.65-3-1.29-2.94.4.43,9.09-.34,19.55-4.68,27.75-3.61,6.81-12.1,13.59-18.76,17.14-15,8-39.15,5.2-48.63-9.9-.88-1.4-3.27-.52-2.74,1.15a22.29,22.29,0,0,0,4.06,7.61c1.08,1.36,3.17-.38,2.36-1.82-1.13-2-2.85-3.17-4.48-4.73a37.36,37.36,0,0,1-6.43-8.11c-3.37-5.75-5-12.29-6.59-18.7-.4-1.6-3.08-1.31-2.94.4.35,4.42.82,8.71,2.52,12.84.72,1.74,3.58,1,2.9-.8a47.28,47.28,0,0,1-3-19.7A45.6,45.6,0,0,1,8.1,38c.48-1.66.87-3.29,2.14-4.56C11.88,31.82,13,32,15.19,31.87c13.94-.9,27.9-1.72,41.88-1.58,6.8.07,13.63.33,20.4,1,2.73.26,7,.27,9.44,1.75,4.18,2.48,3.71,8.85,3.87,13a107.29,107.29,0,0,1-1.14,20.88c-.49,3.19-.9,6.88-3.85,8.82s-7.21,2.87-10.48,4.13c-1.79.68-1,3.58.8,2.89,5.44-2.08,12.74-3.26,15.14-9.26,2.91-7.29,2.73-16.94,2.61-24.68-.07-5.09,1.22-15-4.24-17.86-6.73-3.5-16.49-3.09-23.8-3.4-9.73-.4-19.48-.25-29.21.16-4.54.19-9.09.44-13.63.71-3.84.23-9.35-.43-12.95.89-4.9,1.8-5.72,10.65-6.3,15a49.64,49.64,0,0,0,2.8,23.9l2.9-.8A38.79,38.79,0,0,1,7,55.34l-2.95.4c1.54,6.14,3.12,12.34,6.09,18A40.39,40.39,0,0,0,15,80.86c2.06,2.44,5.28,4.39,6.84,7.14l2.36-1.82a18.54,18.54,0,0,1-3.29-6.28l-2.74,1.15C28.21,97,52,100.25,68.5,93.2a52.89,52.89,0,0,0,21-17.29c5.85-8.73,6.85-21.17,6.36-31.36l-3,.4a38.62,38.62,0,0,1-.73,18.59l2.89.8a73,73,0,0,0,.52-22.57c-.48-3.46-.82-8.44-2.64-11.49-1.3-2.2-3.15-2.16-5.64-2.51A279.08,279.08,0,0,0,34.1,25.53v3A110.5,110.5,0,0,1,51.26,28V25Q32,25.44,12.83,27.5c-1.89.2-1.95,3.16,0,3,7.19-.58,14.38-.57,21.58-.5V27L9.51,28.51c-1.92.11-1.93,3.11,0,3Z"/></g><g id="Layer_2" data-name="Layer 2"><path class="cls-3" d="M75,70c-1,3,2,2,1,5"/><ellipse class="cls-4" cx="74.2" cy="71.16" rx="1.12" ry="0.56" transform="translate(-24.87 43.7) rotate(-28.31)"/><ellipse class="cls-4" cx="76.98" cy="69.66" rx="1.12" ry="0.56" transform="translate(-23.83 44.84) rotate(-28.31)"/><ellipse class="cls-4" cx="74.84" cy="69.02" rx="0.56" ry="1.12" transform="translate(-23.78 43.75) rotate(-28.31)"/><ellipse class="cls-4" cx="76.34" cy="71.8" rx="0.56" ry="1.12" transform="translate(-24.92 44.79) rotate(-28.31)"/><ellipse class="cls-4" cx="75.27" cy="71.48" rx="1.12" ry="0.56" transform="translate(-14.81 123.05) rotate(-73.31)"/><ellipse class="cls-4" cx="75.91" cy="69.34" rx="1.12" ry="0.56" transform="translate(-12.3 122.14) rotate(-73.31)"/><ellipse class="cls-4" cx="74.52" cy="70.09" rx="0.56" ry="1.12" transform="translate(-14.01 121.34) rotate(-73.31)"/><ellipse class="cls-4" cx="76.66" cy="70.73" rx="0.56" ry="1.12" transform="translate(-13.1 123.85) rotate(-73.31)"/><circle class="cls-5" cx="75.59" cy="70.41" r="0.56"/><path class="cls-3" d="M78,68c-1,3,2,2,1,5"/><ellipse class="cls-4" cx="77.2" cy="69.16" rx="1.12" ry="0.56" transform="translate(-23.56 44.89) rotate(-28.31)"/><ellipse class="cls-4" cx="79.98" cy="67.66" rx="1.12" ry="0.56" transform="translate(-22.52 46.03) rotate(-28.31)"/><ellipse class="cls-4" cx="77.84" cy="67.02" rx="0.56" ry="1.12" transform="translate(-22.47 44.94) rotate(-28.31)"/><ellipse class="cls-4" cx="79.34" cy="69.8" rx="0.56" ry="1.12" transform="translate(-23.61 45.98) rotate(-28.31)"/><ellipse class="cls-4" cx="78.27" cy="69.48" rx="1.12" ry="0.56" transform="translate(-10.75 124.5) rotate(-73.31)"/><ellipse class="cls-4" cx="78.91" cy="67.34" rx="1.12" ry="0.56" transform="translate(-8.25 123.59) rotate(-73.31)"/><ellipse class="cls-4" cx="77.52" cy="68.09" rx="0.56" ry="1.12" transform="translate(-9.96 122.79) rotate(-73.31)"/><ellipse class="cls-4" cx="79.66" cy="68.73" rx="0.56" ry="1.12" transform="translate(-9.05 125.3) rotate(-73.31)"/><circle class="cls-5" cx="78.59" cy="68.41" r="0.56"/><path class="cls-3" d="M81,68c-1,3,2,2,1,5"/><ellipse class="cls-4" cx="80.2" cy="69.16" rx="1.12" ry="0.56" transform="translate(-23.2 46.31) rotate(-28.31)"/><ellipse class="cls-4" cx="82.98" cy="67.66" rx="1.12" ry="0.56" transform="translate(-22.16 47.45) rotate(-28.31)"/><ellipse class="cls-4" cx="80.84" cy="67.02" rx="0.56" ry="1.12" transform="translate(-22.11 46.36) rotate(-28.31)"/><ellipse class="cls-4" cx="82.34" cy="69.8" rx="0.56" ry="1.12" transform="translate(-23.25 47.4) rotate(-28.31)"/><ellipse class="cls-4" cx="81.27" cy="69.48" rx="1.12" ry="0.56" transform="translate(-8.62 127.37) rotate(-73.31)"/><ellipse class="cls-4" cx="81.91" cy="67.34" rx="1.12" ry="0.56" transform="translate(-6.11 126.46) rotate(-73.31)"/><ellipse class="cls-4" cx="80.52" cy="68.09" rx="0.56" ry="1.12" transform="translate(-7.82 125.67) rotate(-73.31)"/><ellipse class="cls-4" cx="82.66" cy="68.73" rx="0.56" ry="1.12" transform="translate(-6.91 128.17) rotate(-73.31)"/><circle class="cls-5" cx="81.59" cy="68.41" r="0.56"/><path class="cls-3" d="M92,67c-1,3,2,2,1,5"/><ellipse class="cls-4" cx="91.2" cy="68.16" rx="1.12" ry="0.56" transform="translate(-21.41 51.41) rotate(-28.31)"/><ellipse class="cls-4" cx="93.98" cy="66.66" rx="1.12" ry="0.56" transform="translate(-20.37 52.55) rotate(-28.31)"/><ellipse class="cls-4" cx="91.84" cy="66.02" rx="0.56" ry="1.12" transform="translate(-20.32 51.46) rotate(-28.31)"/><ellipse class="cls-4" cx="93.34" cy="68.8" rx="0.56" ry="1.12" transform="translate(-21.46 52.5) rotate(-28.31)"/><ellipse class="cls-4" cx="92.27" cy="68.48" rx="1.12" ry="0.56" transform="translate(0.18 137.2) rotate(-73.31)"/><ellipse class="cls-4" cx="92.91" cy="66.34" rx="1.12" ry="0.56" transform="translate(2.69 136.29) rotate(-73.31)"/><ellipse class="cls-4" cx="91.52" cy="67.09" rx="0.56" ry="1.12" transform="translate(0.98 135.49) rotate(-73.31)"/><ellipse class="cls-4" cx="93.66" cy="67.73" rx="0.56" ry="1.12" transform="translate(1.89 137.99) rotate(-73.31)"/><circle class="cls-5" cx="92.59" cy="67.41" r="0.56"/><path class="cls-3" d="M84,67c-1,3,2,2,1,5"/><ellipse class="cls-4" cx="83.2" cy="68.16" rx="1.12" ry="0.56" transform="translate(-22.37 47.61) rotate(-28.31)"/><ellipse class="cls-4" cx="85.98" cy="66.66" rx="1.12" ry="0.56" transform="translate(-21.33 48.75) rotate(-28.31)"/><ellipse class="cls-4" cx="83.84" cy="66.02" rx="0.56" ry="1.12" transform="translate(-21.28 47.66) rotate(-28.31)"/><ellipse class="cls-4" cx="85.34" cy="68.8" rx="0.56" ry="1.12" transform="translate(-22.42 48.7) rotate(-28.31)"/><ellipse class="cls-4" cx="84.27" cy="68.48" rx="1.12" ry="0.56" transform="translate(-5.52 129.53) rotate(-73.31)"/><ellipse class="cls-4" cx="84.91" cy="66.34" rx="1.12" ry="0.56" transform="translate(-3.02 128.62) rotate(-73.31)"/><ellipse class="cls-4" cx="83.52" cy="67.09" rx="0.56" ry="1.12" transform="translate(-4.72 127.83) rotate(-73.31)"/><ellipse class="cls-4" cx="85.66" cy="67.73" rx="0.56" ry="1.12" transform="translate(-3.81 130.33) rotate(-73.31)"/><circle class="cls-5" cx="84.59" cy="67.41" r="0.56"/><path class="cls-3" d="M90,65c-1,3,2,2,1,5"/><ellipse class="cls-4" cx="89.2" cy="66.16" rx="1.12" ry="0.56" transform="translate(-20.7 50.22) rotate(-28.31)"/><ellipse class="cls-4" cx="91.98" cy="64.66" rx="1.12" ry="0.56" transform="translate(-19.66 51.36) rotate(-28.31)"/><ellipse class="cls-4" cx="89.84" cy="64.02" rx="0.56" ry="1.12" transform="translate(-19.61 50.27) rotate(-28.31)"/><ellipse class="cls-4" cx="91.34" cy="66.8" rx="0.56" ry="1.12" transform="translate(-20.75 51.31) rotate(-28.31)"/><ellipse class="cls-4" cx="90.27" cy="66.48" rx="1.12" ry="0.56" transform="translate(0.67 133.86) rotate(-73.31)"/><ellipse class="cls-4" cx="90.91" cy="64.34" rx="1.12" ry="0.56" transform="translate(3.18 132.95) rotate(-73.31)"/><ellipse class="cls-4" cx="89.52" cy="65.09" rx="0.56" ry="1.12" transform="translate(1.47 132.15) rotate(-73.31)"/><ellipse class="cls-4" cx="91.66" cy="65.73" rx="0.56" ry="1.12" transform="translate(2.38 134.65) rotate(-73.31)"/><circle class="cls-5" cx="90.59" cy="65.41" r="0.56"/><path class="cls-3" d="M83,71c-1,3,2,2,1,5"/><ellipse class="cls-4" cx="82.2" cy="72.16" rx="1.12" ry="0.56" transform="translate(-24.39 47.62) rotate(-28.31)"/><ellipse class="cls-4" cx="84.98" cy="70.66" rx="1.12" ry="0.56" transform="translate(-23.35 48.76) rotate(-28.31)"/><ellipse class="cls-4" cx="82.84" cy="70.02" rx="0.56" ry="1.12" transform="translate(-23.3 47.67) rotate(-28.31)"/><ellipse class="cls-4" cx="84.34" cy="72.8" rx="0.56" ry="1.12" transform="translate(-24.44 48.71) rotate(-28.31)"/><ellipse class="cls-4" cx="83.27" cy="72.48" rx="1.12" ry="0.56" transform="translate(-10.06 131.43) rotate(-73.31)"/><ellipse class="cls-4" cx="83.91" cy="70.34" rx="1.12" ry="0.56" transform="translate(-7.56 130.52) rotate(-73.31)"/><ellipse class="cls-4" cx="82.52" cy="71.09" rx="0.56" ry="1.12" transform="translate(-9.27 129.72) rotate(-73.31)"/><ellipse class="cls-4" cx="84.66" cy="71.73" rx="0.56" ry="1.12" transform="translate(-8.36 132.23) rotate(-73.31)"/><circle class="cls-5" cx="83.59" cy="71.41" r="0.56"/><path class="cls-3" d="M78,71c-1,3,2,2,1,5"/><ellipse class="cls-4" cx="77.2" cy="72.16" rx="1.12" ry="0.56" transform="translate(-24.99 45.25) rotate(-28.31)"/><ellipse class="cls-4" cx="79.98" cy="70.66" rx="1.12" ry="0.56" transform="translate(-23.94 46.38) rotate(-28.31)"/><ellipse class="cls-4" cx="77.84" cy="70.02" rx="0.56" ry="1.12" transform="translate(-23.9 45.29) rotate(-28.31)"/><ellipse class="cls-4" cx="79.34" cy="72.8" rx="0.56" ry="1.12" transform="translate(-25.03 46.34) rotate(-28.31)"/><ellipse class="cls-4" cx="78.27" cy="72.48" rx="1.12" ry="0.56" transform="translate(-13.63 126.64) rotate(-73.31)"/><ellipse class="cls-4" cx="78.91" cy="70.34" rx="1.12" ry="0.56" transform="translate(-11.12 125.73) rotate(-73.31)"/><ellipse class="cls-4" cx="77.52" cy="71.09" rx="0.56" ry="1.12" transform="translate(-12.83 124.93) rotate(-73.31)"/><ellipse class="cls-4" cx="79.66" cy="71.73" rx="0.56" ry="1.12" transform="translate(-11.92 127.44) rotate(-73.31)"/><circle class="cls-5" cx="78.59" cy="71.41" r="0.56"/><path class="cls-3" d="M81,73c-1,3,2,2,1,5"/><ellipse class="cls-4" cx="80.2" cy="74.16" rx="1.12" ry="0.56" transform="translate(-25.58 46.91) rotate(-28.31)"/><ellipse class="cls-4" cx="82.98" cy="72.66" rx="1.12" ry="0.56" transform="translate(-24.53 48.05) rotate(-28.31)"/><ellipse class="cls-4" cx="80.84" cy="72.02" rx="0.56" ry="1.12" transform="translate(-24.48 46.96) rotate(-28.31)"/><ellipse class="cls-4" cx="82.34" cy="74.8" rx="0.56" ry="1.12" transform="translate(-25.62 48) rotate(-28.31)"/><ellipse class="cls-4" cx="81.27" cy="74.48" rx="1.12" ry="0.56" transform="translate(-13.41 130.94) rotate(-73.31)"/><ellipse class="cls-4" cx="81.91" cy="72.34" rx="1.12" ry="0.56" transform="translate(-10.9 130.03) rotate(-73.31)"/><ellipse class="cls-4" cx="80.52" cy="73.09" rx="0.56" ry="1.12" transform="translate(-12.61 129.23) rotate(-73.31)"/><ellipse class="cls-4" cx="82.66" cy="73.73" rx="0.56" ry="1.12" transform="translate(-11.7 131.74) rotate(-73.31)"/><circle class="cls-5" cx="81.59" cy="73.41" r="0.56"/><path class="cls-3" d="M88,68c-1,3,2,2,1,5"/><ellipse class="cls-4" cx="87.2" cy="69.16" rx="1.12" ry="0.56" transform="translate(-22.37 49.63) rotate(-28.31)"/><ellipse class="cls-4" cx="89.98" cy="67.66" rx="1.12" ry="0.56" transform="translate(-21.32 50.77) rotate(-28.31)"/><ellipse class="cls-4" cx="87.84" cy="67.02" rx="0.56" ry="1.12" transform="translate(-21.28 49.68) rotate(-28.31)"/><ellipse class="cls-4" cx="89.34" cy="69.8" rx="0.56" ry="1.12" transform="translate(-22.42 50.72) rotate(-28.31)"/><ellipse class="cls-4" cx="88.27" cy="69.48" rx="1.12" ry="0.56" transform="translate(-3.63 134.08) rotate(-73.31)"/><ellipse class="cls-4" cx="88.91" cy="67.34" rx="1.12" ry="0.56" transform="translate(-1.12 133.17) rotate(-73.31)"/><ellipse class="cls-4" cx="87.52" cy="68.09" rx="0.56" ry="1.12" transform="translate(-2.83 132.37) rotate(-73.31)"/><ellipse class="cls-4" cx="89.66" cy="68.73" rx="0.56" ry="1.12" transform="translate(-1.92 134.88) rotate(-73.31)"/><circle class="cls-5" cx="88.59" cy="68.41" r="0.56"/><path class="cls-3" d="M86,72c-1,3,2,2,1,5"/><ellipse class="cls-4" cx="85.2" cy="73.16" rx="1.12" ry="0.56" transform="translate(-24.5 49.16) rotate(-28.31)"/><ellipse class="cls-4" cx="87.98" cy="71.66" rx="1.12" ry="0.56" transform="translate(-23.46 50.3) rotate(-28.31)"/><ellipse class="cls-4" cx="85.84" cy="71.02" rx="0.56" ry="1.12" transform="translate(-23.41 49.21) rotate(-28.31)"/><ellipse class="cls-4" cx="87.34" cy="73.8" rx="0.56" ry="1.12" transform="translate(-24.55 50.25) rotate(-28.31)"/><ellipse class="cls-4" cx="86.27" cy="73.48" rx="1.12" ry="0.56" transform="translate(-8.88 135.01) rotate(-73.31)"/><ellipse class="cls-4" cx="86.91" cy="71.34" rx="1.12" ry="0.56" transform="translate(-6.38 134.1) rotate(-73.31)"/><ellipse class="cls-4" cx="85.52" cy="72.09" rx="0.56" ry="1.12" transform="translate(-8.09 133.31) rotate(-73.31)"/><ellipse class="cls-4" cx="87.66" cy="72.73" rx="0.56" ry="1.12" transform="translate(-7.18 135.81) rotate(-73.31)"/><circle class="cls-5" cx="86.59" cy="72.41" r="0.56"/><path class="cls-3" d="M92,69c-1,3,2,2,1,5"/><ellipse class="cls-4" cx="91.2" cy="70.16" rx="1.12" ry="0.56" transform="translate(-22.36 51.65) rotate(-28.31)"/><ellipse class="cls-4" cx="93.98" cy="68.66" rx="1.12" ry="0.56" transform="translate(-21.32 52.78) rotate(-28.31)"/><ellipse class="cls-4" cx="91.84" cy="68.02" rx="0.56" ry="1.12" transform="translate(-21.27 51.69) rotate(-28.31)"/><ellipse class="cls-4" cx="93.34" cy="70.8" rx="0.56" ry="1.12" transform="translate(-22.41 52.74) rotate(-28.31)"/><ellipse class="cls-4" cx="92.27" cy="70.48" rx="1.12" ry="0.56" transform="translate(-1.73 138.62) rotate(-73.31)"/><ellipse class="cls-4" cx="92.91" cy="68.34" rx="1.12" ry="0.56" transform="translate(0.77 137.71) rotate(-73.31)"/><ellipse class="cls-4" cx="91.52" cy="69.09" rx="0.56" ry="1.12" transform="translate(-0.94 136.92) rotate(-73.31)"/><ellipse class="cls-4" cx="93.66" cy="69.73" rx="0.56" ry="1.12" transform="translate(-0.03 139.42) rotate(-73.31)"/><circle class="cls-5" cx="92.59" cy="69.41" r="0.56"/><path class="cls-3" d="M89,71c-1,3,2,2,1,5"/><ellipse class="cls-4" cx="88.2" cy="72.16" rx="1.12" ry="0.56" transform="translate(-23.67 50.46) rotate(-28.31)"/><ellipse class="cls-4" cx="90.98" cy="70.66" rx="1.12" ry="0.56" transform="translate(-22.63 51.6) rotate(-28.31)"/><ellipse class="cls-4" cx="88.84" cy="70.02" rx="0.56" ry="1.12" transform="translate(-22.58 50.51) rotate(-28.31)"/><ellipse class="cls-4" cx="90.34" cy="72.8" rx="0.56" ry="1.12" transform="translate(-23.72 51.55) rotate(-28.31)"/><ellipse class="cls-4" cx="89.27" cy="72.48" rx="1.12" ry="0.56" transform="translate(-5.79 137.18) rotate(-73.31)"/><ellipse class="cls-4" cx="89.91" cy="70.34" rx="1.12" ry="0.56" transform="translate(-3.28 136.27) rotate(-73.31)"/><ellipse class="cls-4" cx="88.52" cy="71.09" rx="0.56" ry="1.12" transform="translate(-4.99 135.47) rotate(-73.31)"/><ellipse class="cls-4" cx="90.66" cy="71.73" rx="0.56" ry="1.12" transform="translate(-4.08 137.97) rotate(-73.31)"/><circle class="cls-5" cx="89.59" cy="71.41" r="0.56"/><path class="cls-3" d="M11,55c-1,3,2,2,1,5"/><ellipse class="cls-4" cx="10.2" cy="56.16" rx="1.12" ry="0.56" transform="translate(-25.41 11.56) rotate(-28.31)"/><ellipse class="cls-4" cx="12.98" cy="54.66" rx="1.12" ry="0.56" transform="translate(-24.37 12.7) rotate(-28.31)"/><ellipse class="cls-4" cx="10.84" cy="54.02" rx="0.56" ry="1.12" transform="translate(-24.32 11.6) rotate(-28.31)"/><ellipse class="cls-4" cx="12.34" cy="56.8" rx="0.56" ry="1.12" transform="translate(-25.46 12.65) rotate(-28.31)"/><ellipse class="cls-4" cx="11.27" cy="56.48" rx="1.12" ry="0.56" transform="translate(-46.06 51.06) rotate(-73.31)"/><ellipse class="cls-4" cx="11.91" cy="54.34" rx="1.12" ry="0.56" transform="translate(-43.56 50.15) rotate(-73.31)"/><ellipse class="cls-4" cx="10.52" cy="55.09" rx="0.56" ry="1.12" transform="translate(-45.26 49.35) rotate(-73.31)"/><ellipse class="cls-4" cx="12.66" cy="55.73" rx="0.56" ry="1.12" transform="translate(-44.35 51.85) rotate(-73.31)"/><circle class="cls-5" cx="11.59" cy="55.41" r="0.56"/><path class="cls-3" d="M11,52c-1,3,2,2,1,5"/><ellipse class="cls-4" cx="10.2" cy="53.16" rx="1.12" ry="0.56" transform="translate(-23.99 11.2) rotate(-28.31)"/><ellipse class="cls-4" cx="12.98" cy="51.66" rx="1.12" ry="0.56" transform="translate(-22.95 12.34) rotate(-28.31)"/><ellipse class="cls-4" cx="10.84" cy="51.02" rx="0.56" ry="1.12" transform="translate(-22.9 11.25) rotate(-28.31)"/><ellipse class="cls-4" cx="12.34" cy="53.8" rx="0.56" ry="1.12" transform="translate(-24.04 12.29) rotate(-28.31)"/><ellipse class="cls-4" cx="11.27" cy="53.48" rx="1.12" ry="0.56" transform="translate(-43.19 48.92) rotate(-73.31)"/><ellipse class="cls-4" cx="11.91" cy="51.34" rx="1.12" ry="0.56" transform="translate(-40.68 48.01) rotate(-73.31)"/><ellipse class="cls-4" cx="10.52" cy="52.09" rx="0.56" ry="1.12" transform="translate(-42.39 47.21) rotate(-73.31)"/><ellipse class="cls-4" cx="12.66" cy="52.73" rx="0.56" ry="1.12" transform="translate(-41.48 49.71) rotate(-73.31)"/><circle class="cls-5" cx="11.59" cy="52.41" r="0.56"/><path class="cls-3" d="M14,51c-1,3,2,2,1,5"/><ellipse class="cls-4" cx="13.2" cy="52.16" rx="1.12" ry="0.56" transform="translate(-23.16 12.5) rotate(-28.31)"/><ellipse class="cls-4" cx="15.98" cy="50.66" rx="1.12" ry="0.56" transform="translate(-22.11 13.64) rotate(-28.31)"/><ellipse class="cls-4" cx="13.84" cy="50.02" rx="0.56" ry="1.12" transform="translate(-22.07 12.55) rotate(-28.31)"/><ellipse class="cls-4" cx="15.34" cy="52.8" rx="0.56" ry="1.12" transform="translate(-23.2 13.59) rotate(-28.31)"/><ellipse class="cls-4" cx="14.27" cy="52.48" rx="1.12" ry="0.56" transform="translate(-40.09 51.08) rotate(-73.31)"/><ellipse class="cls-4" cx="14.91" cy="50.34" rx="1.12" ry="0.56" transform="translate(-37.59 50.17) rotate(-73.31)"/><ellipse class="cls-4" cx="13.52" cy="51.09" rx="0.56" ry="1.12" transform="translate(-39.29 49.37) rotate(-73.31)"/><ellipse class="cls-4" cx="15.66" cy="51.73" rx="0.56" ry="1.12" transform="translate(-38.38 51.87) rotate(-73.31)"/><circle class="cls-5" cx="14.59" cy="51.41" r="0.56"/><path class="cls-3" d="M21,50c-1,3,2,2,1,5"/><ellipse class="cls-4" cx="20.2" cy="51.16" rx="1.12" ry="0.56" transform="translate(-21.84 15.7) rotate(-28.31)"/><ellipse class="cls-4" cx="22.98" cy="49.66" rx="1.12" ry="0.56" transform="translate(-20.8 16.84) rotate(-28.31)"/><ellipse class="cls-4" cx="20.84" cy="49.02" rx="0.56" ry="1.12" transform="translate(-20.75 15.75) rotate(-28.31)"/><ellipse class="cls-4" cx="22.34" cy="51.8" rx="0.56" ry="1.12" transform="translate(-21.89 16.79) rotate(-28.31)"/><ellipse class="cls-4" cx="21.27" cy="51.48" rx="1.12" ry="0.56" transform="translate(-34.14 57.07) rotate(-73.31)"/><ellipse class="cls-4" cx="21.91" cy="49.34" rx="1.12" ry="0.56" transform="translate(-31.64 56.16) rotate(-73.31)"/><ellipse class="cls-4" cx="20.52" cy="50.09" rx="0.56" ry="1.12" transform="translate(-33.35 55.36) rotate(-73.31)"/><ellipse class="cls-4" cx="22.66" cy="50.73" rx="0.56" ry="1.12" transform="translate(-32.44 57.87) rotate(-73.31)"/><circle class="cls-5" cx="21.59" cy="50.41" r="0.56"/><path class="cls-3" d="M17,48c-1,3,2,2,1,5"/><ellipse class="cls-4" cx="16.2" cy="49.16" rx="1.12" ry="0.56" transform="translate(-21.37 13.56) rotate(-28.31)"/><ellipse class="cls-4" cx="18.98" cy="47.66" rx="1.12" ry="0.56" transform="translate(-20.33 14.7) rotate(-28.31)"/><ellipse class="cls-4" cx="16.84" cy="47.02" rx="0.56" ry="1.12" transform="translate(-20.28 13.61) rotate(-28.31)"/><ellipse class="cls-4" cx="18.34" cy="49.8" rx="0.56" ry="1.12" transform="translate(-21.42 14.66) rotate(-28.31)"/><ellipse class="cls-4" cx="17.27" cy="49.48" rx="1.12" ry="0.56" transform="translate(-35.08 51.81) rotate(-73.31)"/><ellipse class="cls-4" cx="17.91" cy="47.34" rx="1.12" ry="0.56" transform="translate(-32.58 50.9) rotate(-73.31)"/><ellipse class="cls-4" cx="16.52" cy="48.09" rx="0.56" ry="1.12" transform="translate(-34.28 50.11) rotate(-73.31)"/><ellipse class="cls-4" cx="18.66" cy="48.73" rx="0.56" ry="1.12" transform="translate(-33.37 52.61) rotate(-73.31)"/><circle class="cls-5" cx="17.59" cy="48.41" r="0.56"/><path class="cls-3" d="M24,51c-1,3,2,2,1,5"/><ellipse class="cls-4" cx="23.2" cy="52.16" rx="1.12" ry="0.56" transform="translate(-21.96 17.24) rotate(-28.31)"/><ellipse class="cls-4" cx="25.98" cy="50.66" rx="1.12" ry="0.56" transform="translate(-20.92 18.38) rotate(-28.31)"/><ellipse class="cls-4" cx="23.84" cy="50.02" rx="0.56" ry="1.12" transform="translate(-20.87 17.29) rotate(-28.31)"/><ellipse class="cls-4" cx="25.34" cy="52.8" rx="0.56" ry="1.12" transform="translate(-22.01 18.33) rotate(-28.31)"/><ellipse class="cls-4" cx="24.27" cy="52.48" rx="1.12" ry="0.56" transform="translate(-32.96 60.66) rotate(-73.31)"/><ellipse class="cls-4" cx="24.91" cy="50.34" rx="1.12" ry="0.56" transform="translate(-30.46 59.75) rotate(-73.31)"/><ellipse class="cls-4" cx="23.52" cy="51.09" rx="0.56" ry="1.12" transform="translate(-32.17 58.95) rotate(-73.31)"/><ellipse class="cls-4" cx="25.66" cy="51.73" rx="0.56" ry="1.12" transform="translate(-31.26 61.45) rotate(-73.31)"/><circle class="cls-5" cx="24.59" cy="51.41" r="0.56"/><path class="cls-6" d="M8,28c43-8,69,0,84-1"/><path class="cls-3" d="M18,53c-1,3,2,2,1,5"/><ellipse class="cls-4" cx="17.2" cy="54.16" rx="1.12" ry="0.56" transform="translate(-23.63 14.64) rotate(-28.31)"/><ellipse class="cls-4" cx="19.98" cy="52.66" rx="1.12" ry="0.56" transform="translate(-22.58 15.78) rotate(-28.31)"/><ellipse class="cls-4" cx="17.84" cy="52.02" rx="0.56" ry="1.12" transform="translate(-22.54 14.69) rotate(-28.31)"/><ellipse class="cls-4" cx="19.34" cy="54.8" rx="0.56" ry="1.12" transform="translate(-23.67 15.73) rotate(-28.31)"/><ellipse class="cls-4" cx="18.27" cy="54.48" rx="1.12" ry="0.56" transform="translate(-39.16 56.33) rotate(-73.31)"/><ellipse class="cls-4" cx="18.91" cy="52.34" rx="1.12" ry="0.56" transform="translate(-36.65 55.42) rotate(-73.31)"/><ellipse class="cls-4" cx="17.52" cy="53.09" rx="0.56" ry="1.12" transform="translate(-38.36 54.63) rotate(-73.31)"/><ellipse class="cls-4" cx="19.66" cy="53.73" rx="0.56" ry="1.12" transform="translate(-37.45 57.13) rotate(-73.31)"/><circle class="cls-5" cx="18.59" cy="53.41" r="0.56"/><path class="cls-3" d="M13,56c-1,3,2,2,1,5"/><ellipse class="cls-4" cx="12.2" cy="57.16" rx="1.12" ry="0.56" transform="translate(-25.65 12.62) rotate(-28.31)"/><ellipse class="cls-4" cx="14.98" cy="55.66" rx="1.12" ry="0.56" transform="translate(-24.6 13.76) rotate(-28.31)"/><ellipse class="cls-4" cx="12.84" cy="55.02" rx="0.56" ry="1.12" transform="translate(-24.56 12.67) rotate(-28.31)"/><ellipse class="cls-4" cx="14.34" cy="57.8" rx="0.56" ry="1.12" transform="translate(-25.7 13.71) rotate(-28.31)"/><ellipse class="cls-4" cx="13.27" cy="57.48" rx="1.12" ry="0.56" transform="translate(-45.59 53.68) rotate(-73.31)"/><ellipse class="cls-4" cx="13.91" cy="55.34" rx="1.12" ry="0.56" transform="translate(-43.09 52.77) rotate(-73.31)"/><ellipse class="cls-4" cx="12.52" cy="56.09" rx="0.56" ry="1.12" transform="translate(-44.8 51.98) rotate(-73.31)"/><ellipse class="cls-4" cx="14.66" cy="56.73" rx="0.56" ry="1.12" transform="translate(-43.89 54.48) rotate(-73.31)"/><circle class="cls-5" cx="13.59" cy="56.41" r="0.56"/><path class="cls-3" d="M16,57c-1,3,2,2,1,5"/><ellipse class="cls-4" cx="15.2" cy="58.16" rx="1.12" ry="0.56" transform="translate(-25.76 14.17) rotate(-28.31)"/><ellipse class="cls-4" cx="17.98" cy="56.66" rx="1.12" ry="0.56" transform="translate(-24.72 15.31) rotate(-28.31)"/><ellipse class="cls-4" cx="15.84" cy="56.02" rx="0.56" ry="1.12" transform="translate(-24.67 14.22) rotate(-28.31)"/><ellipse class="cls-4" cx="17.34" cy="58.8" rx="0.56" ry="1.12" transform="translate(-25.81 15.26) rotate(-28.31)"/><ellipse class="cls-4" cx="16.27" cy="58.48" rx="1.12" ry="0.56" transform="translate(-44.41 57.27) rotate(-73.31)"/><ellipse class="cls-4" cx="16.91" cy="56.34" rx="1.12" ry="0.56" transform="translate(-41.91 56.36) rotate(-73.31)"/><ellipse class="cls-4" cx="15.52" cy="57.09" rx="0.56" ry="1.12" transform="translate(-43.62 55.56) rotate(-73.31)"/><ellipse class="cls-4" cx="17.66" cy="57.73" rx="0.56" ry="1.12" transform="translate(-42.71 58.07) rotate(-73.31)"/><circle class="cls-5" cx="16.59" cy="57.41" r="0.56"/><path class="cls-3" d="M22,54c-1,3,2,2,1,5"/><ellipse class="cls-4" cx="21.2" cy="55.16" rx="1.12" ry="0.56" transform="translate(-23.62 16.65) rotate(-28.31)"/><ellipse class="cls-4" cx="23.98" cy="53.66" rx="1.12" ry="0.56" transform="translate(-22.58 17.79) rotate(-28.31)"/><ellipse class="cls-4" cx="21.84" cy="53.02" rx="0.56" ry="1.12" transform="translate(-22.53 16.7) rotate(-28.31)"/><ellipse class="cls-4" cx="23.34" cy="55.8" rx="0.56" ry="1.12" transform="translate(-23.67 17.74) rotate(-28.31)"/><ellipse class="cls-4" cx="22.27" cy="55.48" rx="1.12" ry="0.56" transform="translate(-37.26 60.88) rotate(-73.31)"/><ellipse class="cls-4" cx="22.91" cy="53.34" rx="1.12" ry="0.56" transform="translate(-34.76 59.97) rotate(-73.31)"/><ellipse class="cls-4" cx="21.52" cy="54.09" rx="0.56" ry="1.12" transform="translate(-36.47 59.17) rotate(-73.31)"/><ellipse class="cls-4" cx="23.66" cy="54.73" rx="0.56" ry="1.12" transform="translate(-35.56 61.68) rotate(-73.31)"/><circle class="cls-5" cx="22.59" cy="54.41" r="0.56"/><path class="cls-3" d="M20,58c-1,3,2,2,1,5"/><ellipse class="cls-4" cx="19.2" cy="59.16" rx="1.12" ry="0.56" transform="translate(-25.76 16.18) rotate(-28.31)"/><ellipse class="cls-4" cx="21.98" cy="57.66" rx="1.12" ry="0.56" transform="translate(-24.72 17.32) rotate(-28.31)"/><ellipse class="cls-4" cx="19.84" cy="57.02" rx="0.56" ry="1.12" transform="translate(-24.67 16.23) rotate(-28.31)"/><ellipse class="cls-4" cx="21.34" cy="59.8" rx="0.56" ry="1.12" transform="translate(-25.81 17.27) rotate(-28.31)"/><ellipse class="cls-4" cx="20.27" cy="59.48" rx="1.12" ry="0.56" transform="translate(-42.52 61.81) rotate(-73.31)"/><ellipse class="cls-4" cx="20.91" cy="57.34" rx="1.12" ry="0.56" transform="translate(-40.02 60.9) rotate(-73.31)"/><ellipse class="cls-4" cx="19.52" cy="58.09" rx="0.56" ry="1.12" transform="translate(-41.72 60.11) rotate(-73.31)"/><ellipse class="cls-4" cx="21.66" cy="58.73" rx="0.56" ry="1.12" transform="translate(-40.81 62.61) rotate(-73.31)"/><circle class="cls-5" cx="20.59" cy="58.41" r="0.56"/><path class="cls-3" d="M26,55c-1,3,2,2,1,5"/><ellipse class="cls-4" cx="25.2" cy="56.16" rx="1.12" ry="0.56" transform="translate(-23.62 18.67) rotate(-28.31)"/><ellipse class="cls-4" cx="27.98" cy="54.66" rx="1.12" ry="0.56" transform="translate(-22.58 19.81) rotate(-28.31)"/><ellipse class="cls-4" cx="25.84" cy="54.02" rx="0.56" ry="1.12" transform="translate(-22.53 18.72) rotate(-28.31)"/><ellipse class="cls-4" cx="27.34" cy="56.8" rx="0.56" ry="1.12" transform="translate(-23.67 19.76) rotate(-28.31)"/><ellipse class="cls-4" cx="26.27" cy="56.48" rx="1.12" ry="0.56" transform="translate(-35.37 65.42) rotate(-73.31)"/><ellipse class="cls-4" cx="26.91" cy="54.34" rx="1.12" ry="0.56" transform="translate(-32.86 64.51) rotate(-73.31)"/><ellipse class="cls-4" cx="25.52" cy="55.09" rx="0.56" ry="1.12" transform="translate(-34.57 63.72) rotate(-73.31)"/><ellipse class="cls-4" cx="27.66" cy="55.73" rx="0.56" ry="1.12" transform="translate(-33.66 66.22) rotate(-73.31)"/><circle class="cls-5" cx="26.59" cy="55.41" r="0.56"/><path class="cls-3" d="M23,57c-1,3,2,2,1,5"/><ellipse class="cls-4" cx="22.2" cy="58.16" rx="1.12" ry="0.56" transform="translate(-24.92 17.49) rotate(-28.31)"/><ellipse class="cls-4" cx="24.98" cy="56.66" rx="1.12" ry="0.56" transform="translate(-23.88 18.63) rotate(-28.31)"/><ellipse class="cls-4" cx="22.84" cy="56.02" rx="0.56" ry="1.12" transform="translate(-23.83 17.53) rotate(-28.31)"/><ellipse class="cls-4" cx="24.34" cy="58.8" rx="0.56" ry="1.12" transform="translate(-24.97 18.58) rotate(-28.31)"/><ellipse class="cls-4" cx="23.27" cy="58.48" rx="1.12" ry="0.56" transform="translate(-39.42 63.98) rotate(-73.31)"/><ellipse class="cls-4" cx="23.91" cy="56.34" rx="1.12" ry="0.56" transform="translate(-36.92 63.07) rotate(-73.31)"/><ellipse class="cls-4" cx="22.52" cy="57.09" rx="0.56" ry="1.12" transform="translate(-38.63 62.27) rotate(-73.31)"/><ellipse class="cls-4" cx="24.66" cy="57.73" rx="0.56" ry="1.12" transform="translate(-37.72 64.77) rotate(-73.31)"/><circle class="cls-5" cx="23.59" cy="57.41" r="0.56"/></g><g id="Layer_1" data-name="Layer 1"><path d="M50,4A46,46,0,1,1,4,50,46.06,46.06,0,0,1,50,4m0-4a50,50,0,1,0,50,50A50,50,0,0,0,50,0Z"/></g></svg>