<svg xmlns="http://www.w3.org/2000/svg" viewBox="0 0 100 100"><defs><style>.cls-1{fill:blue;}.cls-2{fill:#c69c6d;}.cls-3{fill:#3fa9f5;}.cls-4,.cls-7,.cls-8{fill:none;}.cls-4,.cls-5{stroke:#3fa9f5;stroke-width:2px;}.cls-4,.cls-5,.cls-6,.cls-7,.cls-8{stroke-linecap:round;stroke-miterlimit:10;}.cls-5{fill:#fff;}.cls-6{fill:#ff0;stroke-width:0.5px;}.cls-6,.cls-7{stroke:#000;}.cls-7,.cls-8{fill-rule:evenodd;}.cls-8{stroke:#009245;stroke-width:3px;}</style></defs><title>Ocean</title><g id="Layer_3" data-name="Layer 3"><path class="cls-1" d="M5.47,34.48C3.87,45.72.53,60.88,7.2,71.11c3.67,5.62,10.15,7.21,16.34,8.43A125,125,0,0,0,43.4,81.79,151.67,151.67,0,0,0,62,81.18c6.18-.57,12.38-2,18.59-2.14,3.32-.1,6.46.16,9.28-2a10.63,10.63,0,0,0,4.09-7.63c.72-6.28.88-12.56,1.93-18.82H78.52a31.76,31.76,0,0,1,1,7.25h18c-.69-9.51.25-18.72-4.45-27.42-3.11-5.75-12.49-6-15.54,0A81.92,81.92,0,0,0,72.47,43.8c-.89,2.88-1.73,6-3.61,8.44-2.11,2.75-4.25,2.56-7.51,2.31-4.49-.35-8.91-1.06-13.43-1.08-4.17,0-15.51,3.52-14.08-3.56.88-4.41,3.54-8.2,3.9-12.76a11.08,11.08,0,0,0-1.52-7.1,31.5,31.5,0,0,0-2.8-2.91L23.26,40.36C38,46.45,54,43.51,69.28,46.67L67.13,30.22c-5.34,3.92-12.77,3.8-19.08,5-7.16,1.3-14.32,2.71-20.85,6-5.5,2.78-5.39,10-1.82,14.13,5.28,6.06,15.9,2.87,22.81,2.14,8.08-.84,16.12-1.42,24.23-.64L67.88,40.06c-3.13,1.41-7.55,1.27-10.88,2.07a80.48,80.48,0,0,0-11.59,3.79c-9.66,3.91-7.83,16.34,2.4,17.68a134.86,134.86,0,0,0,16.07,1.11c11.58.09,11.59-17.91,0-18A134.86,134.86,0,0,1,47.81,45.6L50.2,63.27a81.57,81.57,0,0,1,13.42-4.2c4.68-1,8.93-1.48,13.34-3.46C80.54,54,82.07,49,81.1,45.44c-1.12-4.06-4.7-6.22-8.68-6.61a108,108,0,0,0-20.34.25c-6.29.59-13.38,2.4-19.67,1.66l6.36,2.63-.67-.77L36.28,56.74c12.37-6.27,28.46-2.55,39.94-11,5.65-4.15,6.16-14.73-2.15-16.45C58.88,26.18,42.57,29,28,23c-7.51-3.11-13.89,7-10.16,13.22A38.89,38.89,0,0,0,21.11,40l-1.23-4.54c-.19,2.28-1.82,4.85-2.57,7a29.52,29.52,0,0,0-1.75,8.62,20.11,20.11,0,0,0,5.62,14.76c8.31,8.24,19.09,5.17,29.44,5.65,10.73.5,20.76,3.09,29.49-5.05,7.92-7.38,8.33-17.9,13-27H77.54c2.88,5.34,1.57,12.46,2,18.33.82,11.42,18.3,11.7,18,0a53.65,53.65,0,0,0-1.66-12c-2.07-8.16-15.84-9-17.35,0-.64,3.8-1.19,7.62-1.62,11.45-.2,1.82-.37,3.64-.5,5.47-.08,1.13-1.29,4.66.22,2.7L84.39,61c-14.74,1.55-29.82,3.6-44.69,2.65a87.31,87.31,0,0,1-10.46-1.26c-1.82-.34-3.64-.72-5.43-1.17q-1.27-.3-2.52-.69c.63.48.83.45.61-.1-1-2.44-.42-6.25-.27-8.8.24-4.12.61-8.24,1.19-12.32.69-4.81-1.17-9.67-6.28-11.07C12.32,27,6.16,29.64,5.47,34.48Z"/><path class="cls-2" d="M11.38,78.37a10,10,0,0,0,5.89,3.33,1.52,1.52,0,0,0,1.46-2.51,6.51,6.51,0,0,0-3.93-2.38,1.51,1.51,0,0,0-1.46,2.51C23.71,90.26,38.61,92.61,52.9,94.48c1.66.22,2.07-2.7.4-2.94L36.74,89.16c-4.53-.65-12.39-.38-15.14-4.73l-2.35,1.82c3.64,3.56,8.64,5.38,13.3,7.24,5.56,2.22,11.16,3.6,17.17,3.08,1.54-.13,2.19-2.68.39-2.94l-13.51-2-.4,2.95,23,1.88c1.92.15,1.91-2.84,0-3a68.64,68.64,0,0,0-10.34-.09,1.5,1.5,0,0,0,0,3c8.36.67,15.89-3.13,23.94-4.7L72,88.8l-7.22,1.43.8,2.89A70.67,70.67,0,0,0,82.1,85.48a1.5,1.5,0,0,0-1.52-2.59l-5.45,2.88,1.81,2.36c3.49-2.78,7.28-5.29,9.87-9a1.52,1.52,0,0,0-1.3-2.26c-4-.21-7.14-1.24-11.26-1-4.65.3-9.29.62-13.93.93v3c3.24-.24,6.43-.69,9.64-1.19l-.8-2.9a116,116,0,0,1-14.91,2.72l.39,3,4.19-1.28c1.84-.56,1.06-3.46-.8-2.9l-1.14.35,1.46,2.51.71-.77a1.51,1.51,0,0,0-1.46-2.5,91.56,91.56,0,0,1-21.06,2.33c-6.73.11-13.58,1.74-19.79-1.75L15.6,80.17c2.69.94,6.08.87,8.56,2.24l.36-2.75a30.41,30.41,0,0,0-4.82,1.91,1.51,1.51,0,0,0,.36,2.74,102.12,102.12,0,0,0,14.33,2.12c1.67.12,2.08-2.67.4-3l-6.37-1.07L28,85.35c5.71,0,11.66.4,17.29-.62,1.82-.33,1.12-2.75-.4-3a64.63,64.63,0,0,0-12.36-.4,1.5,1.5,0,0,0,0,3l10.3.27c1.93,0,1.92-2.94,0-3a60.34,60.34,0,0,0-15,1,1.51,1.51,0,0,0,0,2.89,76.78,76.78,0,0,0,9.91,1.42c1.93.15,1.89-2.81,0-3a32.64,32.64,0,0,0-7.26.09c-1.52.18-2.22,2.59-.4,2.94a76.75,76.75,0,0,0,14.34,1.47c1.95,0,1.9-2.85,0-3-4.66-.37-11.91-1.83-16.3.1a1.53,1.53,0,0,0-.54,2.06l.14.27a1.53,1.53,0,0,0,1.7.69l.22-.08a1.52,1.52,0,0,0,.36-2.74l-1.51-.81L27.4,87.65a165.43,165.43,0,0,0,34,4.61c2,.07,1.87-2.79,0-3a51.69,51.69,0,0,0-12.43.09c-1.5.18-2.24,2.65-.4,2.94,3,.48,6,.83,9,1l-.4-2.95a21.75,21.75,0,0,0-4.11,1.2,1.5,1.5,0,0,0,.8,2.89A58.57,58.57,0,0,0,72.5,88.31c1.52-.8.46-3.19-1.16-2.74a48.37,48.37,0,0,0-8.07,3c-1.52.72-.44,3.37,1.15,2.74,6.82-2.67,13.46-5.47,18.81-10.62a1.52,1.52,0,0,0-.3-2.35c-4-2.78-11.93-.43-16.45.21-8,1.13-16,2.67-24.09,3v3q7.17-.69,14.32-1.53a1.5,1.5,0,0,0,0-3,18.89,18.89,0,0,0-16.36,6.39A1.52,1.52,0,0,0,41.41,89C51.89,88.72,61,82.52,71.59,82l-.4-3c-7.36,1.29-18,.45-24.27,5.17-1.1.83-.87,2.83.76,2.79a15.94,15.94,0,0,0,6.37-1.42c1.43-.62.62-2.79-.76-2.8a29.47,29.47,0,0,0-11.9,2.32A1.5,1.5,0,0,0,41.78,88c5.22.24,10.42.14,15.63,0a1.5,1.5,0,0,0,0-3,31.83,31.83,0,0,0-10.11.74c-1.74.41-1.2,2.82.4,3a90,90,0,0,0,13,.14,1.5,1.5,0,0,0,0-3,67.19,67.19,0,0,0-13.89.4c-1.53.21-2.2,2.52-.4,3a30.82,30.82,0,0,0,15.81-.24l-.8-2.9-2.3.79a1.51,1.51,0,0,0,.4,3A22.39,22.39,0,0,0,68,89a1.51,1.51,0,0,0,0-2.89,18,18,0,0,0-11.4.52,1.52,1.52,0,0,0-.36,2.74c2.36,1.39,9.22,2.54,9.27-2.08S57.64,83.21,55,84.11c-1.32.45-1.53,2.54,0,2.9a29.5,29.5,0,0,0,12.09.33c1.48-.25,1.38-2.56,0-2.89A26,26,0,0,0,56,84.17c-1.49.27-1.38,2.55,0,2.89a23.17,23.17,0,0,0,13-.34A1.52,1.52,0,0,0,69.39,84c-2.61-1.43-5-.79-7.55.36a1.51,1.51,0,0,0,.35,2.74,10.86,10.86,0,0,0,8.35-1.77,1.52,1.52,0,0,0-.36-2.74c-3.15-1-12.4-3.09-13.89,1.44a1.46,1.46,0,0,0,.38,1.46c3.25,2.77,12.47,2.8,13.42-2.4a1.59,1.59,0,0,0-.69-1.69c-1.68-1.23-6.11-1.1-5.62,2,.64,4,9.18,2.08,11.37,1.4,1.34-.42,1.51-2.56,0-2.89a8.83,8.83,0,0,0-8,1.87c-1.2.92.1,3,1.46,2.5,1.82-.62,3.35-1.72,5.17-2.32,1.62-.54,3.24-.66,4.86-1.36,1.41-.61.64-2.82-.76-2.8a37.77,37.77,0,0,0-5,.45c-1.83.27-1.1,2.75.4,2.94a7,7,0,0,0,5.53-1.42c.93-.67,1-2.49-.36-2.74a9.19,9.19,0,0,0-6.54.94,1.51,1.51,0,0,0,.35,2.74,19.77,19.77,0,0,0,8.42-.3c1.58-.4,1.25-2.37,0-2.9a6.84,6.84,0,0,0-3.52-.79c-1.93-.12-1.92,2.88,0,3l2.72.69v-2.9a16.16,16.16,0,0,1-6.82.31l.36,2.74,4.23-.64-.36-2.74a4.09,4.09,0,0,1-4,1l.4,3a21.77,21.77,0,0,1,4.18-.34L77.09,80c-2,.85-3.26.53-5.17,1-1.36.35-3.45,2.12-4.14,2.36l1.46,2.51,5.11-1.1V81.86c-.34.1-7,1.7-6.46,2.1l-.69-1.7a6.87,6.87,0,0,1-7.08,1.67,4.15,4.15,0,0,0,2.52.48,38.26,38.26,0,0,1,6.74,1L69,82.71a7,7,0,0,1-6,1.46l.36,2.75a3.88,3.88,0,0,1,4.52-.36l.36-2.74a19.93,19.93,0,0,1-11.42.35v2.89a22,22,0,0,1,9.48.28V84.45a25.41,25.41,0,0,1-10.49-.34V87A4.79,4.79,0,0,1,59,86.55q4.22,0-1.26.24l-.36,2.75A15.48,15.48,0,0,1,67.17,89V86.12a20.45,20.45,0,0,1-7.62.65l.4,2.94,2.3-.78a1.51,1.51,0,0,0-.8-2.9,27.4,27.4,0,0,1-14.21.25l-.4,2.94a67.19,67.19,0,0,1,13.89-.4v-3a90,90,0,0,1-13-.14l.4,2.95A29.2,29.2,0,0,1,57.41,88V85c-5.21.15-10.41.25-15.63,0l.4,3a27.86,27.86,0,0,1,11.11-2.21L52.53,83a9.58,9.58,0,0,1-4.85,1l.76,2.8c6.1-4.6,16.21-3.58,23.55-4.86,1.66-.29,1.28-3-.4-3a51.43,51.43,0,0,0-14.33,2.74C52,83.51,47.07,85.86,41.41,86l1.06,2.56a16.28,16.28,0,0,1,14.24-5.51v-3q-7.16.84-14.32,1.53c-1.88.19-2,3.09,0,3A165.85,165.85,0,0,0,60.7,82.47c3.62-.58,7.23-1.16,10.88-1.55,2.41-.25,7.74-1.43,9.83,0l-.3-2.36C76.14,83.38,70,86,63.62,88.44l1.16,2.74a43.92,43.92,0,0,1,7.36-2.72L71,85.72a56.19,56.19,0,0,1-17.93,5.85l.8,2.89A21.72,21.72,0,0,1,58,93.27c1.75-.34,1.2-2.85-.4-3-2.76-.18-5.5-.48-8.24-.92l-.4,2.95a51.69,51.69,0,0,1,12.43-.09v-3a161.09,161.09,0,0,1-33.15-4.5c-1.6-.39-2.7,1.91-1.16,2.74l1.52.81.36-2.74-.23.07,1.69.69-.14-.27-.54,2.06c1.81-.8,5.38-.16,7.34-.11,2.49.06,5,.22,7.45.41v-3A73.31,73.31,0,0,1,31,84.06l-.4,3a32.64,32.64,0,0,1,7.26-.09v-3a71.79,71.79,0,0,1-9.12-1.31V85.5a57.42,57.42,0,0,1,14.16-.85v-3l-10.3-.27v3a64.63,64.63,0,0,1,12.36.4l-.4-3c-5.33,1-11.09.48-16.49.52-1.63,0-2.12,2.66-.4,3L34,86.37l.39-2.94a96.76,96.76,0,0,1-13.54-2l.36,2.74a17,17,0,0,1,4.11-1.6,1.52,1.52,0,0,0,.36-2.74c-2.84-1.56-6.24-1.49-9.28-2.54-1.62-.56-2.63,1.92-1.16,2.74,6.22,3.5,12.65,2.5,19.48,2.21,8.26-.36,15.59-.5,23.68-2.49l-1.46-2.51-.71.77a1.51,1.51,0,0,0,1.46,2.51l1.14-.35-.8-2.9-4.18,1.28c-1.54.47-1.35,3.15.4,2.95A125.21,125.21,0,0,0,70,78.67c1.91-.48,1.06-3.19-.8-2.9-2.94.46-5.87.87-8.84,1.09-1.91.15-1.94,3.13,0,3,4.64-.31,9.28-.63,13.93-.93,4-.26,7.37.77,11.26,1l-1.29-2.25C81.84,81,78,83.46,74.82,86c-1.38,1.1.38,3.12,1.82,2.36l5.46-2.88-1.52-2.59a67.26,67.26,0,0,1-15.81,7.34,1.5,1.5,0,0,0,.8,2.89l7.21-1.43c1.9-.37,1.09-3.26-.79-2.89C64.21,90.31,56.92,94,48.84,93.39v3a68.64,68.64,0,0,1,10.34.09v-3l-23-1.88c-1.66-.14-2.08,2.7-.4,2.94l13.52,2,.4-3a33.23,33.23,0,0,1-14.65-2.31c-4.62-1.7-10.11-3.62-13.7-7.13-1.19-1.17-3.29.34-2.36,1.81,2.56,4.06,7,4.67,11.41,5.32,7.36,1.07,14.72,2.11,22.08,3.17l.4-3c-13.47-1.76-27.64-4-37.44-14.28L14,79.7l2.59,1.61,1.46-2.5a6,6,0,0,1-4.56-2.57c-1.3-1.43-3.42.7-2.12,2.13Z"/><path class="cls-3" d="M16,22c2.36-2.61,5.55-3.85,8.47-5.69a50.39,50.39,0,0,0,7.42-5.83,1.51,1.51,0,0,0-1.06-2.56c-5.09.5-7.35,5.05-11.93,6.66L20,17.34A223.67,223.67,0,0,1,43.91,6.24L42.75,3.5C39,5.94,34.12,5,30.21,7.28A1.51,1.51,0,0,0,31.37,10,142.25,142.25,0,0,1,55.58,6.55v-3l-10.09.58c-1.92.11-1.94,3.1,0,3,7.37-.38,15.33-.42,22.45,1.75,6.76,2,12,7,16.52,12.23,2.59,3.05,5.59,6,.48,7.6a65.39,65.39,0,0,1-9.38,2.16A66.41,66.41,0,0,1,52,30.09,1.5,1.5,0,0,0,51.2,33a42.23,42.23,0,0,0,24.86.6,1.51,1.51,0,0,0-.4-2.95L61,30.3c-2,0-1.89,2.81,0,3l13.87,1.4v-3c-8.29.51-16.45-.48-24.66-1.62A1.5,1.5,0,0,0,49.4,33l4.82,1.59.8-2.89c-8.49-1.69-17-3.43-25.47-5.08-7.22-1.4-13.67-1.48-20.74.76-1.9.6-1.06,3.14.8,2.89a76.79,76.79,0,0,1,18.86-.18v-3a7.73,7.73,0,0,1-4-.17l-.79,2.89Q36,31.66,48.37,33.1c1.58.19,1.88-2.06.75-2.79-5.22-3.37-12-3.72-18-4.3-7-.66-14.5-1.7-21.45-.55L11.11,28l8.83-7.17-2.12-2.12-4.06,5.18a1.52,1.52,0,0,0,1.06,2.56,11.07,11.07,0,0,0,7.25-2.7c.94-.76.29-2.17-.66-2.51-2.06-.71-11.55-2.69-9.51,2.65,1.6,4.19,8.65,1.3,10.63-.91a1.52,1.52,0,0,0-1.06-2.56,2.81,2.81,0,0,0-2.42,4.66c2.28,3,7.88,2.06,10.83,1.05a1.51,1.51,0,0,0,0-2.89,13.12,13.12,0,0,0-8.59.31,1.52,1.52,0,0,0,0,2.9,14.43,14.43,0,0,0,11.63-.77,1.51,1.51,0,0,0-.36-2.74,45.52,45.52,0,0,0-11.36-.79l.4,2.95c2.64-.85,8.63-3.46,5.63-7a1.54,1.54,0,0,0-1.82-.24c-1.94.95-2.42,4.09-3.14,5.89L25,23.39q-1.94-2.64-3.7-5.39a1.51,1.51,0,0,0-2.8.75c0,2.18.34,5.79,3.32,5.3,2.73-.45,4.32-4.76,5.18-7,.64-1.62-1.88-2.55-2.74-1.15l-2.8,4.55c-1,1.66,1.53,3.11,2.59,1.51A37.53,37.53,0,0,0,28,14.31c.65-1.72-1.81-2.4-2.74-1.16a45,45,0,0,0-4.07,6.58l2.79.76-.43-5.17a1.51,1.51,0,0,0-2.95-.4,10.26,10.26,0,0,0-.37,4.48,1.53,1.53,0,0,0,2.26,1.3c3.67-1.75,6.74-5,9.85-7.59L30,11.29a19.23,19.23,0,0,1-4.93,6l2.35,1.82a13.81,13.81,0,0,1,6.25-6.58L31.8,10.17c-3,3.83-5.74,7.62-7.32,12.26a1.52,1.52,0,0,0,1.85,1.85,61.74,61.74,0,0,0,12.93-6.2c1.69-1,.21-3.4-1.51-2.59a111.88,111.88,0,0,0-12.63,6.9,1.52,1.52,0,0,0-.53,2.05c.73,1.22,1.28,1.37,2.67,1.65,3.51.72,7.87.17,11.47.25,1.93,0,1.93-3,0-3-4.49-.11-8.95-.15-13.43.16-1.59.11-2.14,2.56-.4,2.95A114.65,114.65,0,0,0,49.6,29.2c2,0,1.86-2.76,0-3a116.26,116.26,0,0,0-15.82-.87c-1.62,0-2.13,2.69-.4,3a133.4,133.4,0,0,0,22,1.41c1.62,0,2.14-2.72.4-3a67.77,67.77,0,0,0-16.35-.29,1.5,1.5,0,0,0,0,3A73.67,73.67,0,0,0,58,29.32c1.49-.2,2.24-2.64.39-2.95a31,31,0,0,0-12.17.31c-1.7.38-1.24,2.88.4,2.95l11.61.44c1.95.07,1.91-2.86,0-3a36.16,36.16,0,0,0-10.93.81,1.51,1.51,0,0,0,0,2.89,57.67,57.67,0,0,0,14.36,1.09c1.58-.08,2.15-2.68.39-2.95a55.44,55.44,0,0,0-10.14-.63,1.5,1.5,0,0,0,0,3c4.33.18,8.64.22,13,.1a1.5,1.5,0,0,0,0-3H59.41v3Q67.9,31,76.34,30a1.5,1.5,0,0,0,0-3,61,61,0,0,0-14.09.91c-1.72.31-1.23,2.89.4,2.94A83.46,83.46,0,0,0,77,30.06c1.65-.23,1.28-3.14-.4-2.95A41.73,41.73,0,0,0,68.09,29a1.51,1.51,0,0,0,.39,3,28.66,28.66,0,0,0,10.94-2A1.51,1.51,0,0,0,79,27,14.12,14.12,0,0,0,71.33,29a1.51,1.51,0,0,0,.36,2.74,10.82,10.82,0,0,0,7.17-.16A1.52,1.52,0,0,0,79.52,29,3.47,3.47,0,0,0,77.08,28l.4,3,9.64-1.71-.79-2.89a15.57,15.57,0,0,0-3.18,1.11L84.66,30a8.21,8.21,0,0,0,2.91-1.79A1.5,1.5,0,0,0,88,26.77a17,17,0,0,0-3-4.4l-1.81,2.36c2.18,1.36,4.4,2.62,6.69,3.79L91,25.78c-3.88-.69-6-.7-8.65-4.05-1.79-2.23-3.35-4.7-5-7l-1.7,2.2c1.1.4,8.79,2.55,8.53,4.79l2.26-1.29-6.9-4.2c-1.49-.91-2.93,1.12-1.81,2.36a43.21,43.21,0,0,0,5.69,5.21c1.17.89,2.95-.89,2.06-2.05a10.31,10.31,0,0,0-5.77-4.08,1.51,1.51,0,0,0-1.46,2.51,9.67,9.67,0,0,1,2.55,6.48L83,25.34a15.73,15.73,0,0,0-7.84-1.53,1.5,1.5,0,0,0-.4,2.94,17.86,17.86,0,0,0,8.09,1.11,1.5,1.5,0,0,0,0-3,83.43,83.43,0,0,0-13.77.93c-1.72.25-1.24,2.92.4,2.94a51.48,51.48,0,0,0,11.53-1.37c1.67-.34,1.28-3-.39-2.95a97.4,97.4,0,0,0-21,2.64A1.5,1.5,0,0,0,60.1,30a26.62,26.62,0,0,0,14.29-4c1-.6,1-2.55-.36-2.74a24.77,24.77,0,0,0-15.11,2.38c-1.41.69-.63,2.74.76,2.79a33.68,33.68,0,0,0,17.66-4.1A1.51,1.51,0,0,0,77,21.57a16.26,16.26,0,0,0-11.9,1.88,1.52,1.52,0,0,0-.68,1.7c2.17,5.8,12.86,2.66,16.23-.35a1.5,1.5,0,0,0-.31-2.35,10.11,10.11,0,0,0-7.65-1.15c-1.5.31-1.35,2.49,0,2.89a12.18,12.18,0,0,0,5.44.47,1.52,1.52,0,0,0,1.29-2.26c-.7-1.09.17-4.75.06-5.94a10.69,10.69,0,0,0-.58-3.12c-1-2.29-3.21-2.95-5.46-3.88A56,56,0,0,0,54.12,5.22a32.5,32.5,0,0,0-8.31,1.07C42.36,7.06,38.72,7,35.32,8c-5.39,1.58-8.51,6-8.72,11.48a1.5,1.5,0,0,0,2.25,1.29c4.86-3,8.68-7.81,14.42-9.11L42.12,8.89c-3.35,1.5-6.72,2.92-10.14,4.25l1.46,2.5a25.88,25.88,0,0,1,4.38-2.92L36,10.37a13.45,13.45,0,0,1-4,2.29l1.15,2.75A20.19,20.19,0,0,1,37.54,13l-1.9-1.45a7.3,7.3,0,0,1-2.07,6.21,1.51,1.51,0,0,0,1.82,2.36,33.86,33.86,0,0,1,9-3.4l-.79-2.89c-2.86.8-5.67,1.69-8.46,2.68a1.5,1.5,0,0,0,.79,2.89l3.74.23a1.51,1.51,0,0,0,1.84-1l.29-1a1.51,1.51,0,0,0-1.45-1.9A62,62,0,0,0,33,16.4l1.46,2.51,1-.64-1.46-2.51c-1.87,2-5.61,5.42-4.77,8.44a1.5,1.5,0,0,0,1,1.05,9.06,9.06,0,0,0,5.3-.64c1.52-.53,1.39-3-.4-2.95l-3.71.18L33,23.74c.27-1.21,5.42-2.39,6.48-2.77l-1.16-2.75a30,30,0,0,0-7,5.69c-1.11,1.21.32,3.31,1.82,2.35a50.06,50.06,0,0,0,8.22-6.51L39.2,17.63c-1.76,1.82-5.86,5.43-2.66,7.81C40,28,46.65,24.56,49.35,22.52c.91-.69,1-2.48-.36-2.75-2.42-.45-12-1.93-11.72,2.68.11,1.92,3.11,1.93,3,0,0-.76,8.07.24,7.92.22l-.36-2.74a13.57,13.57,0,0,1-6.5,2.9c-4.18.6-2.09-.93,0-3.08a1.5,1.5,0,0,0-2.12-2.12,46.73,46.73,0,0,1-7.62,6L33.4,26a27.28,27.28,0,0,1,6.41-5.21c1.41-.84.48-3.34-1.16-2.75-2.72,1-7.83,1.55-8.57,4.87a1.51,1.51,0,0,0,1.44,1.9l3.71-.18-.39-2.94-1.24.43q-1.37.3-.39-.63c-.05-.88,2.41-3.05,3-3.64a1.51,1.51,0,0,0-1.46-2.5,3,3,0,0,0-2.37,1.41,1.51,1.51,0,0,0,1.46,2.5,52.88,52.88,0,0,1,6.51-.61l-1.45-1.9-.28,1,1.84-1.05a8.64,8.64,0,0,0-5.32-.22l.79,2.89c2.8-1,5.61-1.88,8.46-2.68a1.5,1.5,0,0,0-.79-2.89,36.55,36.55,0,0,0-9.7,3.7l1.82,2.35a9.71,9.71,0,0,0,3-8.33c-.09-.86-.9-1.84-1.9-1.45a24.58,24.58,0,0,0-5.09,2.7c-1.29.89-.53,3.42,1.16,2.74a22,22,0,0,0,5.31-3.07c1.39-1.08-.38-3.14-1.82-2.36a30.78,30.78,0,0,0-5,3.39A1.51,1.51,0,0,0,32.78,16q5.49-2.13,10.85-4.55c1.61-.73.43-3.11-1.15-2.74-6.1,1.38-10,6.24-15.14,9.41l2.26,1.3c.32-8.4,8-8.76,14.44-9.77,4.71-.74,8.71-1.71,13.54-1.2,5.15.54,11.35,1.7,15.93,4.25,3.61,2,2.75,4.58,2.65,8.37a3.75,3.75,0,0,0,.66,2.82l1.3-2.26a7.55,7.55,0,0,1-4.64-.36v2.89a6.12,6.12,0,0,1,5.34.85l-.31-2.36a9.59,9.59,0,0,1-6.35,2.4c-1,0-4.51.2-4.86-.73L66.61,26a12.85,12.85,0,0,1,9.58-1.58l-.36-2.74a30.5,30.5,0,0,1-16.15,3.69l.75,2.8a21.22,21.22,0,0,1,12.8-2.08l-.35-2.74A23.39,23.39,0,0,1,60.1,27l.4,3a94.45,94.45,0,0,1,20.16-2.53l-.4-2.94a49.24,49.24,0,0,1-10.74,1.26l.4,2.95a79.23,79.23,0,0,1,13-.82v-3a16.13,16.13,0,0,1-7.29-1l-.4,2.95a12.66,12.66,0,0,1,6.32,1.12,1.52,1.52,0,0,0,2.26-1.3A13.16,13.16,0,0,0,80.35,18l-1.46,2.5,4,2.7,2-2.05a38.73,38.73,0,0,1-5.09-4.74L78,18.79l6.9,4.2a1.51,1.51,0,0,0,2.25-1.3C87.7,17,79.75,15.21,76.43,14a1.52,1.52,0,0,0-1.7,2.21C77,19.35,79,23.06,81.65,25.9c2.2,2.38,5.47,2.22,8.54,2.77,1.56.28,2.78-1.91,1.16-2.74-2.3-1.17-4.52-2.43-6.7-3.79-1.56-1-2.79,1.1-1.82,2.35C84,26,85,26.6,83.15,27.43s-.23,3.36,1.51,2.59l2.46-.81c1.9-.48,1.08-3.23-.79-2.89L76.68,28c-1.8.32-1.14,2.78.4,2.95l.32.17.66-2.5a6.54,6.54,0,0,1-5.57.15l.35,2.75A11.18,11.18,0,0,1,79,30l-.4-2.94a26.65,26.65,0,0,1-10.15,1.84l.4,2.94a38.13,38.13,0,0,1,7.76-1.77l-.4-2.94a79.16,79.16,0,0,1-13.59.66l.4,3A56.92,56.92,0,0,1,76.34,30V27Q67.89,28,59.41,28.39a1.5,1.5,0,0,0,0,3h5.46v-3c-4.34.12-8.65.08-13-.1v3a50.5,50.5,0,0,1,9.35.53l.4-2.95a54.13,54.13,0,0,1-13.56-1v2.89a33.55,33.55,0,0,1,10.13-.7v-3L46.6,26.63l.4,2.94a26.74,26.74,0,0,1,10.58-.3l.4-2.95a73.67,73.67,0,0,1-18.59.13v3a64.72,64.72,0,0,1,15.55.18l.4-2.94a128.23,128.23,0,0,1-21.17-1.31l-.39,2.95a116.26,116.26,0,0,1,15.82.87v-3a111.06,111.06,0,0,1-23.9-2.64l-.4,2.94c4.48-.31,8.94-.27,13.43-.16v-3c-1.54,0-10.9.68-11.55-.42L26.64,25a114.25,114.25,0,0,1,12.62-6.9l-1.51-2.59a57.34,57.34,0,0,1-12.22,5.89l1.85,1.85c1.41-4.16,3.86-7.5,6.55-10.94a1.51,1.51,0,0,0-1.82-2.35,16.24,16.24,0,0,0-7.33,7.65,1.51,1.51,0,0,0,2.36,1.82,21.06,21.06,0,0,0,5.4-6.61A1.51,1.51,0,0,0,30.18,11c-2.89,2.4-5.85,5.51-9.24,7.12L23.2,19.4a6.15,6.15,0,0,1,.26-3.69l-2.94-.39L21,20.49c.12,1.36,2.07,2.2,2.8.76a44,44,0,0,1,4.07-6.58l-2.74-1.16a34.12,34.12,0,0,1-3.61,7L24.06,22l2.8-4.55-2.74-1.15c-.49,1.26-2.69,7.32-2.61,2.46l-2.8.76c1.19,1.84,2.42,3.63,3.71,5.39a1.52,1.52,0,0,0,2.74-.35c.22-.55,1.17-3.81,1.76-4.1l-1.81-.23c-.12-.13-3.84,1.81-4.31,2-1.54.49-1.36,3,.4,2.94a42.48,42.48,0,0,1,10.56.68l-.36-2.74a11.37,11.37,0,0,1-9.31.46v2.9a10.5,10.5,0,0,1,7-.32V23.21c-2.86,1-4.8.39-7.62.18l-1.06-2.56c-.63.7-4.19,2.39-4.18,2.14,0,.07,4.07,1,4.38,1.14L20,21.6a6.78,6.78,0,0,1-5.13,1.82L15.88,26l4.06-5.18a1.5,1.5,0,0,0-2.12-2.12L9,25.84c-1.3,1.05.16,2.73,1.46,2.51,6.07-1,12.71,0,18.81.5s13.14.69,18.35,4l.76-2.8q-12-1.41-23.86-3.21c-1.85-.28-2.72,2.45-.79,2.89a12.45,12.45,0,0,0,4.75.28,1.5,1.5,0,0,0,0-3,79.85,79.85,0,0,0-19.66.29l.8,2.89c8-2.52,14.8-1.62,22.84,0l21.77,4.34a1.5,1.5,0,0,0,.8-2.89L50.2,30.08,49.4,33c8.47,1.18,16.9,2.26,25.46,1.73a1.5,1.5,0,0,0,0-3L61,30.3v3l14.67.33-.39-2.94A39.3,39.3,0,0,1,52,30.09L51.2,33a69.93,69.93,0,0,0,26.89.49c4.09-.74,15.89-1.59,13-8-3.21-7-10.51-13.94-17.3-17.49C65.38,3.63,54.7,3.66,45.49,4.13v3l10.09-.58c1.92-.11,1.93-3.11,0-3a146.63,146.63,0,0,0-25,3.58l1.16,2.74c3.89-2.31,8.66-1.29,12.53-3.78,1.35-.87.51-3.4-1.15-2.74a229.05,229.05,0,0,0-24.58,11.4c-1.47.79-.47,3.31,1.15,2.74,4-1.41,6.91-6.13,11.14-6.55L29.76,8.38c-4.8,4.49-11.54,6.7-15.89,11.51-1.3,1.43.82,3.56,2.12,2.13Z"/><path class="cls-3" d="M39.87,16a25.86,25.86,0,0,1,5.61-2.68l-1.16-2.74a26.2,26.2,0,0,1-7,2.84l1.16,2.74a32.94,32.94,0,0,1,13.54-5l-.8-2.9q-5.39,1.27-10.84,2.14l.8,2.89q4.68-1.71,9.48-3.05l-.79-2.89a14.18,14.18,0,0,1-6.08.89v3c5.95-.53,12.34-1.64,18.27-.47,1.29.25,15.17,2.63,15,3.81l1.85-1.05a47,47,0,0,0-11-2.61c-1.47-.18-2.05,2.17-.75,2.79,2.28,1.09,7.63,2,7.67,5.27l2.56-1.06L72.74,14c-1.19-1-3.45.37-2.35,1.82a69.57,69.57,0,0,1,5.13,7.81l2.36-1.82c-3.83-3.34-14.43-6.81-17.11-.16a1.45,1.45,0,0,0,.39,1.46c2.47,2.35,6.75,2,9.78,1.22,1.16-.29,1.57-2.21.36-2.74-2.5-1.1-4.54-.48-7.17.13-4.29,1-8.51,2.26-12.69,3.67a1.5,1.5,0,0,0,.8,2.89c7.07-1.31,13.3-5.06,20.23-6.55l-1.85-1.84c-.94,2.47-7.48,2.92-9.28,3.08a39.89,39.89,0,0,1-7.57-.15l.4,3a66.82,66.82,0,0,1,18.07-4.24l-.76-2.8c-7.75,3.66-17.69,4.08-26.08,4.92a1.5,1.5,0,0,0,0,3q7.14.42,14.3.42c1.95,0,1.9-2.85,0-3L40.52,22.55v3H53.67a1.5,1.5,0,0,0,0-3c-4.6,0-9.44.37-14-.47V25A64.48,64.48,0,0,1,50,23c1.88-.21,2-3.15,0-3l-11.32.83v3C43,23.3,49,23.07,52.1,19.61a1.51,1.51,0,0,0-.3-2.35c-2.49-1.09-13-4.71-13.18.76a3.09,3.09,0,0,0,3.11,3c2.94.12,5-3.75,6.64-5.64a1.5,1.5,0,0,0-2.12-2.12A18,18,0,0,0,42,18.73,1.51,1.51,0,0,0,43.28,21c4.44-.24,7.95-5.89,10-9.35.82-1.4-.75-2.63-2.05-2.06-2.3,1-11.33,4.3-9.67,8.34A1.56,1.56,0,0,0,43,19c3.83-.16,7-3.88,8.6-7a1.52,1.52,0,0,0-1.69-2.2c-2.26.35-11.8,3.32-7.54,7.21,1.54,1.41,4.64.78,6.39.59A47.27,47.27,0,0,0,60.88,14.5c1.5-.59,1.4-2.94-.4-2.95-3.71,0-16.77-.64-17.08,4.73a1.53,1.53,0,0,0,1.11,1.45c4.94,1.18,14.15-1.38,17.39-5.42a1.52,1.52,0,0,0-1.06-2.56,29.48,29.48,0,0,0-10,.92c-1.72.44-1.22,2.8.4,2.94a21.91,21.91,0,0,0,8.55-.89,1.51,1.51,0,0,0-.4-3,22.14,22.14,0,0,0-8.37.9,1.5,1.5,0,0,0,.4,2.94l20.95,1.33v-3l-18.78.69v3q7.78-.68,15.52-1.79c1.75-.25,1.19-2.86-.4-2.95l-9.26-.53v3c1.89-.08,7.13.45,7.35-2.59.19-2.63-3.43-3.49-5.33-3.63-1.55-.11-1.94,2.06-.75,2.8,2.15,1.33,9.3,5.22,8.67,8.47l2.2-.89c-3.38-1.86-5-4.57-9-5.6a1.51,1.51,0,0,0-1.46,2.51c2.59,2.75,8.24,3,11.75,3.84l.8-2.89c-4.17-.6-8.41-1.48-12.62-1.8-2.07-.15-3.47-.12-5,1.33a1.51,1.51,0,0,0-.23,1.82c2.55,3.68,8.42,3.66,12.49,3.79,1.64.05,2.09-2.7.39-2.95a149.35,149.35,0,0,0-16.36-1.52c-2-.08-1.87,2.79,0,3a71.88,71.88,0,0,0,15.86,0,1.5,1.5,0,0,0,0-3c-6.41-.31-14.32-.07-19.91,3.51A1.51,1.51,0,0,0,48,21.92c3.76,3.38,11.64-1.38,15.35-3.08,1.59-.73.44-3.13-1.15-2.74-4,1-8.73,1.57-11.95,4.28a1.5,1.5,0,0,0,.66,2.5,37,37,0,0,0,17-.95,1.51,1.51,0,0,0-.4-2.95,75.92,75.92,0,0,0-17.82.63c-1.66.26-1.29,3.09.4,2.95l13.24-1.09-.4-2.95c-5.07,1.66-9.48.58-14.29-1.14-1.92-.69-2.62-.8-4.46,0-1.29.57-.72,2.35.36,2.74a24.71,24.71,0,0,0,4.71,1.22V18.47l-.89.2c-1.89.41-1.09,3.31.79,2.89l.89-.2c1.39-.31,1.48-2.65,0-2.89a26.19,26.19,0,0,1-4.7-1.22L45.7,20c1.25-.56,6.56,2,8,2.12a22.92,22.92,0,0,0,10-.69c1.52-.5,1.37-3.1-.4-3L50.09,19.56l.39,3a71.92,71.92,0,0,1,17-.53L67.11,19A33.47,33.47,0,0,1,51.74,20l.66,2.51C55,20.32,59.83,19.76,63,19l-1.15-2.74C60.23,17,52,21.48,50.16,19.8l-.31,2.36c5.18-3.31,12.46-3.38,18.4-3.1v-3a71.88,71.88,0,0,1-15.86,0v3A142.49,142.49,0,0,1,68,20.46l.4-2.94c-2.25-.07-8.27.05-9.9-2.3L58.22,17c2.18-2.06,11.84.83,14.7,1.24,1.86.26,2.73-2.41.8-2.89-2.7-.68-8.5-1-10.42-3.08l-1.46,2.51c3.63.95,5.19,3.62,8.25,5.3a1.52,1.52,0,0,0,2.2-.9C73.36,13.67,66.2,9.8,62.24,7.35l-.76,2.79c2.9.21-1.84.21-2,.22a1.5,1.5,0,0,0,0,3l9.26.53L68.32,11c-4.9.7-9.8,1.25-14.72,1.68-1.9.16-2,3.07,0,3l18.78-.69a1.5,1.5,0,0,0,0-3L51.43,10.61l.39,3a20.08,20.08,0,0,1,7.58-.79L59,9.82a19.78,19.78,0,0,1-7.75.79l.39,3a27.24,27.24,0,0,1,9.2-.81l-1.06-2.56c-2.48,3.09-10.63,5.57-14.48,4.64l1.1,1.45c.08-1.36,12.78-1.74,14.08-1.73l-.4-3a45.45,45.45,0,0,1-9.83,2.75c-.69.11-4.45.92-5,.49-.32-.26,4.65-2,5.41-2.16L49,10.48c-1,2-3.36,5.43-6,5.54l1.44,1.1c-.46-1.14,7.4-4.55,8.3-5l-2.06-2.05c-1.28,2.21-4.38,7.7-7.37,7.87l1.3,2.25a16.59,16.59,0,0,1,3.79-4.82L46.25,13.3c-1,1.19-3.46,3.17-3,4.44.21.53,6.11,1.72,7,2.11L50,17.49c-2.3,2.59-8.15,2.94-11.29,3.3-1.88.21-2,3.14,0,3L50,23V20a69.06,69.06,0,0,0-11.12,2.13c-1.35.37-1.51,2.61,0,2.89,4.84.9,9.88.56,14.78.58v-3H40.52c-2,0-1.9,2.85,0,3L59.7,27.06v-3q-7.17,0-14.3-.42v3c9-.9,19.29-1.41,27.59-5.33a1.51,1.51,0,0,0-.75-2.79,70,70,0,0,0-18.87,4.34,1.51,1.51,0,0,0,.4,2.95c5.4.56,17.29,1.27,19.75-5.13.44-1.15-.84-2.07-1.85-1.85-6.93,1.49-13.15,5.24-20.23,6.55l.8,2.89c2.78-.94,5.58-1.82,8.42-2.59,2.4-.65,6.73-2.56,9.13-1.51l.35-2.74c-2.66.65-8.68-.07-2.25-.44a10.89,10.89,0,0,1,7.86,2.93,1.51,1.51,0,0,0,2.36-1.81A68.8,68.8,0,0,0,73,14.29l-2.36,1.82,4.61,3.94A1.52,1.52,0,0,0,77.79,19c-.07-5.51-5.1-5.92-9.16-7.86l-.76,2.8a43.69,43.69,0,0,1,10.21,2.51,1.51,1.51,0,0,0,1.85-1.05C80.93,9,72.4,10,68.41,9.23c-3.36-.67-6.57-1.79-10-1.94-4.83-.21-9.81.53-14.61,1a1.5,1.5,0,0,0,0,3,15.61,15.61,0,0,0,6.87-1c1.78-.66,1.1-3.42-.79-2.89-3.21.89-6.36,1.91-9.49,3.05a1.5,1.5,0,0,0,.8,2.89C44.81,12.72,48.41,12,52,11.17c1.92-.45,1.05-3.16-.8-2.9A34.67,34.67,0,0,0,37,13.6a1.51,1.51,0,0,0,1.15,2.74,28.88,28.88,0,0,0,7.73-3.14c1.43-.83.49-3.3-1.16-2.74a30.17,30.17,0,0,0-6.32,3c-1.64,1-.14,3.61,1.51,2.59Z"/><path class="cls-1" d="M29.3,61.5A127.47,127.47,0,0,1,67.55,50.34l-.39-2.94c-6.12,2-13.2,2-19.57,3-6.79,1-13.82,1.92-20.34,4.15a1.5,1.5,0,0,0,.8,2.89,236.73,236.73,0,0,1,24.55-4v-3L23.52,53.69c-1.88.21-1.94,3.17,0,3,9.4-.82,20.14-2.27,28.39-7.15a1.52,1.52,0,0,0-.76-2.8q-12-.1-24-1l.4,3c9.4-2.49,19.88-2.7,29.54-3.8a1.51,1.51,0,0,0,.4-2.95c-3.72-1.47-8.28-.76-12.19-.77l-15.84,0,.4,2.94c5.69-1,11.53-1.76,17.07-3.45a1.51,1.51,0,0,0,0-2.89c-5.37-1.61-11-2.37-16.52-3.4L30,37.31q6.27-.26,12.53-.19c2,0,1.87-2.78,0-3q-6.63-.79-13.21-2l-.4,2.94a10,10,0,0,1,3.53.17c1.33.24,2.71-1.44,1.46-2.51L33,32l-1.06,2.56a80.21,80.21,0,0,1,8.73,1.29c1.88.39,2.69-2.44.8-2.89-10.17-2.4-20.53-2.8-30.95-2.72v3c4.75-.1,9.37-.13,13,3.45a1.5,1.5,0,0,0,2.12-2.12c-4.17-4.14-9.47-4.45-15.09-4.33a1.5,1.5,0,0,0,0,3c10.16-.08,20.23.27,30.15,2.61l.8-2.89a90.06,90.06,0,0,0-9.53-1.4,1.51,1.51,0,0,0-1.06,2.56l.9.77,1.46-2.5a17,17,0,0,0-4.33-.28c-1.57.11-2.16,2.64-.4,2.95,4.66.83,9.32,1.52,14,2.08v-3Q36.25,34,30,34.31c-1.61.07-2.14,2.62-.4,2.95,5.51,1,11.15,1.79,16.53,3.4V37.77C40.57,39.45,34.74,40.2,29,41.22c-1.69.3-1.25,2.94.4,3l13.86,0c4.19,0,9.47-.88,13.37.67l.4-3c-10,1.14-20.61,1.34-30.34,3.91a1.5,1.5,0,0,0,.4,2.94q12,.89,24,1L50.4,47c-7.7,4.55-18.15,6-26.88,6.74v3L52.6,53.47c1.88-.21,1.93-3.18,0-3a243.63,243.63,0,0,0-25.35,4.07l.8,2.89c6.52-2.23,13.55-3.11,20.34-4.14,6.38-1,13.4-1,19.56-3,1.51-.49,1.37-3.17-.4-2.95A132.22,132.22,0,0,0,27.78,58.91c-1.74.82-.22,3.41,1.52,2.59Z"/><circle class="cls-4" cx="76" cy="40" r="1"/><circle class="cls-5" cx="75.5" cy="46.5" r="3.5"/><circle class="cls-5" cx="71" cy="53" r="2"/><circle class="cls-5" cx="68" cy="44" r="2"/><circle class="cls-5" cx="15.5" cy="64.5" r="2.5"/><circle class="cls-5" cx="20" cy="58" r="3"/><circle class="cls-4" cx="22" cy="65" r="1"/><circle class="cls-4" cx="19" cy="71" r="1"/><circle class="cls-6" cx="27.5" cy="14.5" r="3"/></g><g id="Layer_2" data-name="Layer 2"><path class="cls-7" d="M6.5,30.5c26-5,56,14,87-2"/><path class="cls-7" d="M8.5,73.5c28,16,55-5,81,5"/><path class="cls-8" d="M32.5,60.5"/><path class="cls-8" d="M33.5,86.5"/><path class="cls-8" d="M41.5,58.5"/><path class="cls-8" d="M44.5,88.5"/></g><g id="Layer_1" data-name="Layer 1"><path d="M50,4A46,46,0,1,1,4,50,46.06,46.06,0,0,1,50,4m0-4a50,50,0,1,0,50,50A50,50,0,0,0,50,0Z"/></g></svg>